<svg xmlns="http://www.w3.org/2000/svg" height="200px" width="200px" viewBox="0 0 200 200">
  <path fill="#FCBF00" d="M171.985219,139.715453 C172.317792,146.646777 166.998287,152.54889 160.071202,152.933482 L121.945845,152.933482 L121.945845,157.700251 L131.477114,157.700251 C136.741051,157.700251 141.008384,161.968475 141.008384,167.23351 L141.008384,169.616755 C141.008384,170.933084 139.94169,172 138.625636,172 L62.3746431,172 C61.0585891,172 59.9918956,170.933084 59.9918956,169.616755 L59.9918956,167.23351 C59.9918956,161.968475 64.2592281,157.700251 69.523165,157.700251 L79.0544344,157.700251 L79.0544344,152.933482 L40.9290776,152.933482 C34.0017131,152.54861 28.6822076,146.646777 29.0147814,139.715453 L29.0147814,42.215516 C28.6833245,35.2853092 34.00283,29.3848718 40.9290776,29 L160.070922,29 C166.99717,29.3845925 172.316675,35.2850299 171.985219,42.215516 L171.985219,139.715453 Z M131.476835,162.46702 L69.523165,162.46702 C66.8910569,162.46702 64.7573907,164.601132 64.7573907,167.23379 L136.242609,167.23379 C136.242609,164.601132 134.108943,162.46702 131.476835,162.46702 Z M83.8202087,157.700251 L117.180071,157.700251 L117.180071,152.933482 L83.8202087,152.933482 L83.8202087,157.700251 Z M160.070922,148.166993 C164.360594,147.773183 167.541966,144.011885 167.219724,139.715732 L167.219724,133.866965 L33.7805557,133.866965 L33.7805557,139.715732 C33.4583137,144.011885 36.6396852,147.773183 40.9290776,148.166993 L160.070922,148.166993 Z M167.219444,42.215516 C167.541966,37.9196424 164.360036,34.159182 160.071202,33.7664898 L40.9290776,33.7664898 C36.6399644,34.159182 33.4583137,37.9196424 33.7805557,42.215516 L33.7805557,129.100196 L167.219444,129.100196 L167.219444,42.215516 Z M62.3746431,90.9668808 C71.5822744,90.9772148 79.0438233,98.4406005 79.0544344,107.650154 C79.0544344,116.863896 71.586463,124.333426 62.3746431,124.333426 C53.1628233,124.333426 45.6948519,116.863896 45.6948519,107.650154 C45.6948519,98.436411 53.1625441,90.9668808 62.3746431,90.9668808 Z M50.460347,107.650154 C50.4717958,108.993854 50.7136169,110.325544 51.1751991,111.587409 L59.9916164,106.298913 L59.9916164,95.9718906 C54.448161,97.1119826 50.4676072,101.989353 50.460347,107.650154 Z M53.6308281,115.674089 C57.554138,120.016606 64.0665531,120.827406 68.9345289,117.579177 L62.0052098,110.648411 L53.6308281,115.674089 Z M72.3038283,114.209174 C74.4930631,110.910672 74.8979599,106.739085 73.3844838,103.081127 C71.8707284,99.4231688 68.6365808,96.7581128 64.7573907,95.9718906 L64.7573907,106.663396 L72.3038283,114.209174 Z M157.688175,71.9000838 C159.004229,71.9000838 160.071202,72.9672792 160.071202,74.283608 C160.071202,75.5999367 159.004508,76.6668529 157.688454,76.6668529 L102.883027,76.6668529 C98.9348646,76.6668529 95.7345049,73.4655458 95.7345049,69.5168389 L95.7345049,40.916783 C95.7345049,39.6004543 96.8014776,38.5335382 98.1172525,38.5335382 C99.4330273,38.5335382 100.5,39.6004543 100.5,40.916783 L100.5,69.5168389 C100.5,70.8328883 101.566693,71.9000838 102.882748,71.9000838 L105.265495,71.9000838 L105.265495,45.6832728 C105.265495,43.0506153 107.399161,40.9165037 110.031269,40.9165037 L114.797044,40.9165037 C117.429152,40.9165037 119.562818,43.0506153 119.562818,45.6832728 L119.562818,71.9000838 L124.328313,71.9000838 L124.328313,56.9565546 C124.331106,54.6805599 126.175201,52.8360798 128.450441,52.8332868 L134.502949,52.8332868 C136.778748,52.8360798 138.622844,54.6805599 138.625357,56.9565546 L138.625357,71.9000838 L143.391131,71.9000838 L143.391131,63.7418061 C143.392527,61.6666263 145.074105,59.9846972 147.148852,59.9833007 L153.930454,59.9833007 C156.005201,59.9846972 157.686779,61.6666263 157.688175,63.7418061 L157.688175,71.9000838 Z M114.797044,71.9000838 L114.797044,45.6832728 L110.031269,45.6832728 L110.031269,71.9000838 L114.797044,71.9000838 Z M133.859862,71.9000838 L133.859862,57.6000559 L129.094087,57.6000559 L129.094087,71.9000838 L133.859862,71.9000838 Z M152.922401,71.9000838 L152.92268,71.9000838 L152.92268,64.7500698 L148.156905,64.7500698 L148.156905,71.9000838 L152.922401,71.9000838 Z M157.688175,119.566937 C159.004229,119.566937 160.070922,120.633853 160.071202,121.950461 C160.071202,123.26651 159.004508,124.333706 157.688454,124.333706 L102.883027,124.333706 C98.9348646,124.333706 95.7345049,121.132399 95.7345049,117.183692 L95.7345049,88.5836359 C95.7345049,87.2675865 96.8014776,86.200391 98.1172525,86.200391 C99.4330273,86.200391 100.5,87.2673072 100.5,88.5836359 L100.5,106.663675 L104.97732,102.18542 C107.806571,99.4848935 112.258481,99.4848935 115.087732,102.18542 L117.877889,104.978674 C118.808314,105.909013 120.316764,105.909013 121.247189,104.978674 L131.188381,95.0354063 C134.016794,92.3351589 138.467587,92.3351589 141.296279,95.0354063 L144.08895,97.8286598 C145.019375,98.7589995 146.527824,98.7589995 147.458249,97.8286598 L156.003246,89.2843931 C156.938139,88.3811453 158.424249,88.393993 159.343504,89.3134401 C160.26276,90.2326079 160.275605,91.719308 159.372545,92.6543958 L150.827549,101.201176 C148.032923,103.984654 143.514276,103.984654 140.71965,101.201176 L137.92698,98.405409 C136.985665,97.5016025 135.498995,97.5016025 134.55768,98.405409 L124.616488,108.348676 C121.825214,111.139975 117.300143,111.139975 114.50859,108.348676 L111.715919,105.555423 C110.774604,104.651617 109.287935,104.651617 108.34662,105.555423 L100.5,113.40368 L100.5,117.183692 C100.5,118.500021 101.566693,119.566937 102.882748,119.566937 L157.688175,119.566937 Z M76.6716869,62.3668249 C77.9874617,62.3668249 79.0544344,63.4337411 79.0547136,64.7500698 L79.0547136,82.9395936 C79.0309783,84.7603335 77.5390036,86.2185453 75.7186437,86.2001117 L49.0309218,86.2001117 C47.2116789,86.2227348 45.718308,84.7664781 45.6948519,82.9468554 L45.6948519,64.7500698 C45.6948519,63.4337411 46.7615454,62.3668249 48.0775994,62.3668249 C49.3936535,62.3668249 50.460347,63.4337411 50.460347,64.7500698 L50.460347,81.4333426 L74.2889393,81.4333426 L74.2889393,64.7500698 C74.2889393,63.4337411 75.3556328,62.3668249 76.6716869,62.3668249 Z M64.6549099,39.37953 L83.0263319,55.8245622 C83.6696988,56.3901394 83.9601075,57.2576372 83.7869793,58.0966467 C83.613851,58.9359354 83.0039927,59.6174211 82.1891729,59.8819158 C81.3746324,60.1464104 80.4805087,59.9531366 79.8477528,59.3758289 L62.3743639,43.7315424 L44.900975,59.3758289 C43.918891,60.2391372 42.4249616,60.149762 41.5528978,59.1752933 C40.680834,58.2008246 40.7565078,56.7057455 41.7223959,55.8245622 L45.6948519,52.2685474 L45.6948519,46.8750349 C45.6948519,45.5587062 46.7615454,44.49179 48.0775994,44.49179 C49.3936535,44.49179 50.460347,45.5587062 50.460347,46.8750349 L50.460347,48.0000449 L60.0513735,39.4152801 C61.3629598,38.2589888 63.3254524,38.2436274 64.6549099,39.37953 Z"/>
</svg>
