<svg xmlns="http://www.w3.org/2000/svg" width="300" height="89" viewBox="0 0 300 89">
  <path fill="#FFD370" fill-rule="evenodd" d="M349.57014,96.5645194 L354.474514,93.7095869 L365.287423,100.00254 L360.383048,102.855639 L349.57014,96.5645194 Z M380,84.5642681 L369.187091,90.8553878 L375.095626,94.2934087 L370.191251,97.1483412 L359.378343,90.8553878 L375.095626,81.7093356 L375.095626,57.7091996 L364.282717,51.4180798 L343.662879,63.417231 L343.662879,76.0013041 L349.569594,79.4411586 L344.665219,82.2942575 L338.758504,78.8562366 L338.758504,60.5641321 L364.282717,45.7082148 L380,54.8561007 L380,84.5642681 Z M370.191251,78.8560533 L344.667039,93.710137 L328.949756,84.5640847 L328.949756,54.8559173 L354.473968,40 L359.378343,42.8549325 L333.85413,57.7090162 L333.85413,81.7109858 L344.667039,88.0021056 L365.286877,76.0011208 L365.286877,63.4170476 L359.378343,59.9808604 L364.282717,57.1259279 L370.191251,60.5639487 L370.191251,78.8560533 Z M98.909856,81.7590264 L103.29214,81.7590264 L122.201996,126.568815 L115.81685,126.568815 L110.02474,112.769058 L92.1190439,112.769058 L86.3251149,126.568815 L80,126.568815 L98.909856,81.7590264 Z M107.987315,107.356238 L101.089174,90.6685429 L94.0564173,107.356238 L107.987315,107.356238 Z M209.807112,88.7023616 C211.606231,90.8293506 213.021514,93.269887 214.014759,95.9561272 C215.006185,98.6460348 215.510084,101.407453 215.510084,104.165204 C215.510084,107.168659 214.973441,110.067598 213.918345,112.781343 C212.86325,115.489587 211.393393,117.909953 209.548795,119.978267 C207.696921,122.057582 205.479401,123.739003 202.959906,124.97669 C200.411305,126.229047 197.609845,126.86531 194.628291,126.86531 C191.523036,126.86531 188.643354,126.196042 186.069285,124.877675 C183.535237,123.579479 181.323175,121.857718 179.491311,119.760067 C177.666723,117.66975 176.235068,115.232881 175.240004,112.517303 C174.248578,109.809059 173.746498,106.999967 173.746498,104.165204 C173.746498,101.202089 174.281322,98.3233192 175.338237,95.6059075 C176.391513,92.9013311 177.859551,90.4717964 179.70233,88.3851469 C181.557842,86.281995 183.788096,84.5895719 186.327601,83.3500508 C188.898032,82.099528 191.708588,81.4650986 194.686503,81.4650986 C197.795396,81.4650986 200.676898,82.1435347 203.254605,83.485738 C205.790473,84.805938 207.995258,86.5625375 209.807112,88.7023616 Z M194.628291,121.157279 C196.874917,121.157279 198.921438,120.678706 200.711462,119.732563 C202.541506,118.764416 204.135064,117.466219 205.444838,115.878312 C206.770984,114.270235 207.807888,112.425622 208.530082,110.393981 C209.248639,108.360506 209.614284,106.264689 209.614284,104.165204 C209.614284,101.953869 209.232267,99.7938753 208.475508,97.7457317 C207.722389,95.6994217 206.658198,93.863977 205.31568,92.2944058 C203.984077,90.7395036 202.383242,89.4779792 200.553197,88.5465047 C198.757716,87.6352 196.765769,87.1712964 194.628291,87.1712964 C192.378027,87.1712964 190.320591,87.6517025 188.510557,88.5978458 C186.667778,89.5623253 185.079678,90.8568547 183.788096,92.4447619 C182.476503,94.0565061 181.446875,95.9029525 180.7265,97.9345936 C180.007944,99.9680684 179.640479,102.063886 179.640479,104.165204 C179.640479,106.38204 180.01522,108.545701 180.751968,110.593845 C181.488715,112.636488 182.541992,114.468265 183.880871,116.034169 C185.214294,117.590905 186.815128,118.852429 188.643354,119.78207 C190.435197,120.695209 192.448973,121.157279 194.628291,121.157279 Z M161.290188,88.7027284 C163.087488,90.8297173 164.502771,93.2702537 165.496016,95.9546604 C166.489261,98.6464015 166.991341,101.40782 166.991341,104.163737 C166.991341,107.169026 166.454698,110.067965 165.399602,112.78171 C164.344507,115.489953 162.87465,117.91032 161.030052,119.978633 C160.691694,120.358191 160.327868,120.710244 159.964042,121.064131 L167.036819,125.705001 L161.377506,129 L154.543035,124.920215 C154.508471,124.936718 154.475727,124.958721 154.441163,124.977057 C151.894381,126.229414 149.089283,126.863843 146.109548,126.863843 C143.004293,126.863843 140.12461,126.196409 137.550541,124.876209 C135.018313,123.579846 132.804431,121.858085 130.972568,119.760434 C129.14798,117.670117 127.716325,115.231414 126.721261,112.51767 C125.729835,109.81126 125.227755,107.000334 125.227755,104.163737 C125.227755,101.200622 125.764398,98.3218523 126.819494,95.6062742 C127.874589,92.9016978 129.342627,90.4703295 131.183587,88.3855136 C133.040918,86.2823617 135.269353,84.588105 137.810677,83.3504175 C140.379289,82.0998947 143.191664,81.4636317 146.16776,81.4636317 C149.276653,81.4636317 152.158155,82.1439014 154.735862,83.4861047 C157.27173,84.8081383 159.476515,86.5629042 161.290188,88.7027284 Z M146.109548,87.1716631 C143.859284,87.1716631 141.801848,87.6520692 139.991814,88.5982125 C138.149035,89.562692 136.560935,90.8572214 135.269353,92.4432951 C133.95776,94.0550392 132.928132,95.9033192 132.207757,97.9349604 C131.4892,99.9684351 131.121736,102.064253 131.121736,104.163737 C131.121736,106.382407 131.496477,108.546068 132.235044,110.594212 C132.969972,112.636854 134.023248,114.466798 135.363947,116.034536 C136.69555,117.591272 138.296385,118.852796 140.12461,119.782437 C141.916453,120.693742 143.93023,121.157645 146.109548,121.157645 C148.356174,121.157645 150.402695,120.679073 152.192719,119.732929 C154.022763,118.764783 155.614502,117.46842 156.926095,115.876845 C158.252241,114.268768 159.290964,112.424155 160.011339,110.394348 C160.729896,108.360873 161.09736,106.265056 161.09736,104.163737 C161.09736,101.954236 160.713523,99.794242 159.958584,97.7460984 C159.203646,95.6997884 158.141274,93.8661773 156.796937,92.2947726 C155.467153,90.7398703 153.864499,89.4783459 152.034454,88.5468714 C150.240792,87.6337331 148.247026,87.1716631 146.109548,87.1716631 Z M240.016675,117.528562 L254.848042,81.7603099 L261.176795,81.7603099 L242.32879,126.568265 L237.710019,126.568265 L218.863832,81.7603099 L225.128916,81.7603099 L240.016675,117.528562 Z M268.391647,126.569732 L268.391647,81.8186188 L274.287447,81.8186188 L274.287447,126.569732 L268.391647,126.569732 Z M303.478662,82.057905 L322.261179,126.568815 L315.877851,126.568815 L310.087561,112.769058 L292.180045,112.769058 L286.386116,126.568815 L280.062821,126.568815 L298.970858,81.7590264 L303.353142,81.7590264 L303.478662,82.057905 Z M308.048316,107.356238 L301.148356,90.6685429 L294.117419,107.356238 L308.048316,107.356238 Z" transform="translate(-80 -40)"/>
</svg>
