<svg xmlns="http://www.w3.org/2000/svg" width="200" height="200" viewBox="0 0 200 200">
  <path fill="#EE7810" d="M155.937705,89.1691803 C157.39377,93.2557377 155.261639,97.7488525 151.17541,99.204918 C147.088852,100.661311 142.595738,98.5291803 141.139344,94.442623 L124.918033,94.442623 L124.918033,99.6885246 C124.918033,99.6888525 124.918033,99.6895082 124.918033,99.6898361 C124.917705,101.138033 123.743279,102.311803 122.295082,102.311475 L111.803279,102.311475 L111.803279,107.557377 L119.672131,107.557377 C119.672459,107.557377 119.673115,107.557377 119.673443,107.557377 C121.121639,107.557705 122.29541,108.732131 122.295082,110.180328 L122.295082,115.909508 C124.535738,116.701639 126.298689,118.464262 127.09082,120.705246 C128.539672,124.802295 126.392459,129.298361 122.295082,130.746885 C118.198033,132.195738 113.702295,130.048197 112.253443,125.951148 C110.80459,121.854098 112.951803,117.358033 117.04918,115.909508 L117.04918,112.803279 L109.180328,112.803279 C109.18,112.803279 109.179344,112.803279 109.179016,112.803279 C107.73082,112.802951 106.557049,111.628525 106.557377,110.180328 L106.557377,102.311475 L101.311475,102.311475 L101.311475,152.239672 L120.312459,152.239672 C120.423279,152.234754 120.534098,152.232131 120.644918,152.231803 C124.799344,152.223934 128.173443,155.585246 128.181311,159.739672 C128.182951,161.563607 127.568852,163.334754 126.438361,164.76623 C127.979016,166.242295 128.85082,168.282623 128.852459,170.416066 C128.852787,170.44459 128.853115,170.473115 128.853443,170.501639 C128.880656,174.875082 125.357049,178.442295 120.983607,178.469508 L76.3934426,178.469508 C72.0495082,178.464918 68.5291803,174.94459 68.5245902,170.600656 C68.5111475,168.419672 69.3793443,166.325902 70.9318033,164.794098 C69.8157377,163.415738 69.2032787,161.697705 69.1957377,159.924262 C69.1501639,157.45541 70.3301639,155.123934 72.3465574,153.698689 C71.7704918,147.05541 66.4721311,139.423607 61.7111475,132.637049 C59.4596721,129.424918 57.332459,126.392131 55.7019672,123.507869 C46.622623,107.439672 40.9836066,88.6308197 40.9836066,74.424918 C40.9836066,44.5196721 66.3308197,21.092459 98.6885246,21.092459 C98.6888525,21.092459 98.6895082,21.092459 98.6898361,21.092459 C100.138033,21.0927869 101.311803,22.2672131 101.311475,23.7154098 L101.311475,65.5904918 L111.803279,65.5904918 L111.803279,51.9921311 C109.562295,51.1996721 107.799344,49.4367213 107.007213,47.1957377 C105.558689,43.0980328 107.70623,38.6022951 111.803607,37.1537705 C115.901311,35.7052459 120.397049,37.8527869 121.845574,41.9501639 C123.294098,46.0478689 121.146557,50.5436066 117.04918,51.9921311 L117.04918,65.5908197 L122.295082,65.5908197 C122.29541,65.5908197 122.296066,65.5908197 122.296393,65.5908197 C123.74459,65.5911475 124.918361,66.7655738 124.918033,68.2137705 L124.918033,73.4596721 L132.786885,73.4596721 L132.786885,65.1072131 C130.545902,64.3147541 128.782951,62.5518033 127.99082,60.3108197 C126.542295,56.2131148 128.689508,51.717377 132.787213,50.2688525 C136.884918,48.8203279 141.380656,50.9678689 142.82918,55.0652459 C144.277705,59.1629508 142.130164,63.6586885 138.032787,65.1072131 L138.032787,76.0822951 C138.032787,76.082623 138.032787,76.0832787 138.032787,76.0836066 C138.032459,77.5318033 136.858033,78.7055738 135.409836,78.7052459 L124.918033,78.7052459 L124.918033,89.1970492 L141.139016,89.1970492 C142.243279,86.0619672 145.200984,83.9613115 148.52459,83.9511475 C151.851475,83.9452459 154.820984,86.0354098 155.937705,89.1691803 Z M135.409836,55.0983607 C133.961967,55.1 132.788197,56.2734426 132.786885,57.7213115 C132.786885,59.1698361 133.961311,60.3442623 135.409836,60.3442623 C136.858361,60.3442623 138.032787,59.1698361 138.032787,57.7213115 C138.032787,56.2727869 136.858361,55.0983607 135.409836,55.0983607 Z M66.0065574,129.62459 C70.9314754,136.646557 76.4068852,144.509836 77.4793443,152.24 L96.0662295,152.24 L96.0662295,123.183607 C95.3698361,123.131475 94.6590164,123.068197 93.8980328,122.975082 C92.7839344,122.839344 91.8796721,122.00918 91.6491803,120.910492 L90.8511475,117.111803 C90.192459,116.955738 89.5357377,116.779016 88.8813115,116.581639 L86.2672131,119.496721 C85.5170492,120.332131 84.3190164,120.598689 83.2855738,120.16 C80.3485246,118.893443 77.5763934,117.27377 75.0311475,115.336721 C74.1360656,114.660328 73.7698361,113.490164 74.1193443,112.424262 L75.3232787,108.761311 C74.827541,108.295082 74.3462295,107.811148 73.877377,107.316721 L70.2131148,108.520656 C69.1472131,108.866885 67.9786885,108.501311 67.3006557,107.608852 C65.3639344,105.062951 63.744918,102.290492 62.4786885,99.3531148 C62.0393443,98.3196721 62.3059016,97.1213115 63.1419672,96.3714754 L66.0593443,93.7586885 C65.8636066,93.1098361 65.6881967,92.46 65.5331148,91.8095082 L61.4540984,90.995082 C60.227541,90.7504918 59.3445902,89.6737705 59.3445902,88.4232787 L59.3445902,79.4790164 C59.3445902,78.2285246 60.227541,77.1518033 61.4537705,76.9072131 L65.5327869,76.0927869 C65.687541,75.4413115 65.8629508,74.7918033 66.0590164,74.1436066 L63.142623,71.5308197 C62.3055738,70.7816393 62.0386885,69.582623 62.4793443,68.5491803 C63.7452459,65.6114754 65.3645902,62.8393443 67.3013115,60.2934426 C67.98,59.4019672 69.1478689,59.0363934 70.2137705,59.3816393 L73.8780328,60.5855738 C74.3455738,60.0911475 74.8281967,59.6072131 75.3239344,59.1409836 L74.12,55.4727869 C73.7701639,54.4065574 74.1370492,53.2357377 75.0331148,52.5603279 C77.5783607,50.6262295 80.3491803,49.0081967 83.284918,47.7422951 C84.3183607,47.3009836 85.5177049,47.5678689 86.2665574,48.4055738 L88.8806557,51.3206557 C89.5357377,51.1236066 90.1921311,50.9468852 90.8504918,50.7904918 L91.6498361,46.9891803 C91.8813115,45.8914754 92.7852459,45.062623 93.8986885,44.9272131 C94.6586885,44.8340984 95.3691803,44.7708197 96.0655738,44.7186885 L96.0655738,26.3947541 C67.9137705,27.6062295 46.2295082,48.2672131 46.2295082,74.424918 C46.2295082,87.5780328 51.7406557,105.831148 60.2688525,120.925902 C61.7737705,123.589836 63.8291803,126.52 66.0065574,129.62459 Z M75.0819672,83.9508197 C75.0986885,71.9363934 84.1268852,61.8465574 96.0655738,60.4990164 L96.0655738,51.4816393 L95.6308197,53.5462295 C95.4114754,54.5914754 94.5803279,55.3990164 93.5291803,55.5878689 C91.9744262,55.8704918 90.4459016,56.282623 88.9596721,56.82 C87.9544262,57.1780328 86.832459,56.8937705 86.1190164,56.1003279 L83.652459,53.3491803 C82.2865574,54.0327869 80.9678689,54.8072131 79.7052459,55.6672131 L80.842623,59.1327869 C81.175082,60.1452459 80.8609836,61.2583607 80.0485246,61.9478689 C78.8396721,62.9763934 77.7160656,64.1009836 76.6891803,65.3111475 C75.9960656,66.1213115 74.8839344,66.4344262 73.8701639,66.1052459 L70.4045902,64.9652459 C69.5452459,66.2288525 68.7708197,67.5485246 68.0865574,68.915082 L70.8377049,71.3793443 C71.6331148,72.0918033 71.9177049,73.2147541 71.557377,74.22 C71.0213115,75.707541 70.6091803,77.2370492 70.3255738,78.792459 C70.1340984,79.852459 69.3134426,80.6878689 68.2570492,80.8980328 L64.5901639,81.6304918 L64.5901639,86.2718033 L68.2570492,87.004918 C69.3137705,87.2154098 70.1340984,88.0504918 70.3255738,89.1104918 C70.6091803,90.664918 71.0213115,92.1934426 71.5577049,93.68 C71.917377,94.684918 71.6334426,95.807541 70.8393443,96.5206557 L68.0859016,98.9872131 C68.7695082,100.354426 69.5442623,101.674098 70.4052459,102.937049 L73.8695082,101.797049 C74.8832787,101.467541 75.9957377,101.780984 76.6885246,102.591148 C77.7127869,103.800328 78.8357377,104.922623 80.0452459,105.946557 C80.8609836,106.637377 81.1767213,107.753443 80.8432787,108.76918 L79.7045902,112.234754 C80.9672131,113.095082 82.2862295,113.869836 83.6531148,114.552787 L86.1196721,111.801639 C86.6167213,111.245902 87.3272131,110.928197 88.0727869,110.928197 C88.375082,110.928852 88.6754098,110.980656 88.9603279,111.081967 C90.4465574,111.619016 91.975082,112.031148 93.5298361,112.314098 C94.5813115,112.503934 95.412459,113.312459 95.6314754,114.358033 L96.0655738,116.422623 L96.0655738,107.402623 C84.1268852,106.05541 75.0986885,95.9652459 75.0819672,83.9508197 Z M96.0655738,65.7996721 C88.0022951,66.9540984 81.6672131,73.2891803 80.5127869,81.3521311 C79.0777049,91.3767213 86.0409836,100.666885 96.0655738,102.101967 L96.0655738,65.7996721 Z M123.606557,170.600656 C123.608197,170.570164 123.60918,170.539672 123.609508,170.50918 C123.634426,169.034098 122.458689,167.818033 120.983607,167.793115 L76.3934426,167.793115 C74.9455738,167.794426 73.7718033,168.968197 73.7704918,170.416066 C73.7691803,170.446557 73.7681967,170.477049 73.767541,170.507541 C73.742623,171.982623 74.9183607,173.198689 76.3934426,173.223607 L120.983607,173.223607 C122.431475,173.222295 123.605246,172.048525 123.606557,170.600656 Z M120.312459,157.485902 L120.312459,157.485574 L77.0645902,157.485574 C77.0134426,157.480328 76.9622951,157.476393 76.9108197,157.474098 C75.6032787,157.417705 74.4977049,158.432131 74.4416393,159.739672 C74.4403279,159.770164 74.4393443,159.800656 74.4386885,159.831148 C74.4137705,161.306557 75.5895082,162.522295 77.0645902,162.547213 L120.312459,162.547213 C121.760328,162.545902 122.934098,161.372131 122.93541,159.924262 C122.937049,159.83541 122.93377,159.746557 122.925574,159.658033 C122.803934,158.336721 121.63377,157.363934 120.312459,157.485902 Z M119.672131,120.672131 C118.224262,120.67377 117.050492,121.847213 117.04918,123.295082 C117.04918,124.743607 118.223607,125.918033 119.672131,125.918033 C121.120656,125.918033 122.295082,124.743607 122.295082,123.295082 C122.295082,121.846557 121.120656,120.672131 119.672131,120.672131 Z M114.42623,41.9836066 C112.978361,41.9852459 111.80459,43.1586885 111.803279,44.6065574 C111.803279,46.055082 112.977705,47.2295082 114.42623,47.2295082 C115.874754,47.2295082 117.04918,46.055082 117.04918,44.6065574 C117.04918,43.1580328 115.874754,41.9836066 114.42623,41.9836066 Z M119.672131,97.0655738 L119.672131,70.8360656 L101.311475,70.8360656 L101.311475,97.0655738 L119.672131,97.0655738 Z M148.52459,94.442623 C149.972459,94.4413115 151.14623,93.2678689 151.147541,91.8196721 C151.147541,90.3711475 149.973115,89.1967213 148.52459,89.1967213 C147.076066,89.1967213 145.901639,90.3711475 145.901639,91.8196721 C145.901639,93.2681967 147.076066,94.442623 148.52459,94.442623 Z M123.984262,140.989836 L128.577049,143.525902 C127.759672,144.984262 127.036393,146.493443 126.411475,148.044262 L121.534426,146.112787 C122.240984,144.354754 123.059344,142.643607 123.984262,140.989836 Z M129.88459,131.750492 L134.190492,134.747541 C133.192787,136.181967 132.197705,137.637049 131.244918,139.107213 L126.841639,136.258689 C127.825246,134.737049 128.85377,133.231148 129.88459,131.750492 Z M135.851803,123.023607 L140.291148,125.815738 C139.367541,127.285902 138.338033,128.804918 137.255738,130.362295 L132.947213,127.370492 C133.980656,125.879672 134.966885,124.427213 135.851803,123.023607 Z M140.773443,113.881639 L145.507213,116.140984 C144.721639,117.788197 143.899672,119.414754 143.041639,121.020656 L138.415738,118.54623 C139.235738,117.00918 140.021639,115.454426 140.773443,113.881639 Z M144.870492,104.255738 L149.780984,106.1 C149.143934,107.794754 148.468197,109.483607 147.753443,111.166557 L142.924918,109.112131 C143.611475,107.500984 144.260984,105.877049 144.870492,104.255738 Z M156.39082,73.9022951 L156.393443,74.424918 C156.393443,76.0360656 156.319016,77.7370492 156.171803,79.4813115 L150.943934,79.0406557 C151.079672,77.4422951 151.147541,75.887541 151.147541,74.424918 L151.144918,73.9432787 L156.39082,73.9022951 Z M155.055082,62.7367213 C155.482623,64.5659016 155.808525,66.417377 156.031148,68.2822951 L150.820984,68.9022951 C150.622295,67.2301639 150.33082,65.5701639 149.947541,63.9304918 L155.055082,62.7367213 Z M151.28459,52.137377 C152.108197,53.8268852 152.836721,55.5613115 153.466885,57.3321311 L148.525902,59.0891803 C147.959672,57.5022951 147.30623,55.947541 146.568852,54.432459 L151.28459,52.137377 Z M145.284262,42.6393443 C146.45082,44.1088525 147.538361,45.6393443 148.542295,47.2242623 L144.108525,50.0265574 C143.20459,48.6009836 142.225574,47.2245902 141.175738,45.902623 L145.284262,42.6393443 Z M137.423279,34.6347541 C138.865246,35.8281967 140.245574,37.0940984 141.558689,38.4281967 L137.819016,42.1065574 C136.632459,40.9003279 135.38459,39.7554098 134.080656,38.6767213 L137.423279,34.6347541 Z M128.142951,28.3822951 C129.789836,29.2737705 131.400984,30.2472131 132.934426,31.2767213 L130.006557,35.6311475 C128.613115,34.6937705 127.146557,33.807541 125.648197,32.9980328 L128.142951,28.3822951 Z M117.861311,24.0304918 C119.650492,24.5990164 121.41541,25.2495082 123.10459,25.9695082 L121.052787,30.7954098 C119.514754,30.1422951 117.907213,29.5478689 116.273115,29.0304918 L117.861311,24.0304918 Z M106.978689,21.622623 C108.825574,21.8632787 110.675082,22.1862295 112.474426,22.5832787 L111.339672,27.7062295 C109.692459,27.34 107.999344,27.0452459 106.307541,26.827541 L106.978689,21.622623 Z M25.2459016,162.639344 L30.4918033,162.639344 L30.4918033,167.885246 L25.2459016,167.885246 L25.2459016,162.639344 Z M25.2459016,173.131148 L30.4918033,173.131148 L30.4918033,178.377049 L25.2459016,178.377049 L25.2459016,173.131148 Z M30.4918033,167.885246 L35.7377049,167.885246 L35.7377049,173.131148 L30.4918033,173.131148 L30.4918033,167.885246 Z M20,167.885246 L25.2459016,167.885246 L25.2459016,173.131148 L20,173.131148 L20,167.885246 Z M169.508197,21 L174.754098,21 L174.754098,26.2459016 L169.508197,26.2459016 L169.508197,21 Z M169.508197,31.4918033 L174.754098,31.4918033 L174.754098,36.7377049 L169.508197,36.7377049 L169.508197,31.4918033 Z M174.754098,26.2459016 L180,26.2459016 L180,31.4918033 L174.754098,31.4918033 L174.754098,26.2459016 Z M164.262295,26.2459016 L169.508197,26.2459016 L169.508197,31.4918033 L164.262295,31.4918033 L164.262295,26.2459016 Z"/>
</svg>
