<svg xmlns="http://www.w3.org/2000/svg" width="200" height="200" viewBox="0 0 200 200">
  <path fill="#605CA8" fill-rule="evenodd" d="M157.232187,51.9102539 C158.702422,51.9102539 159.894082,53.1019141 159.894082,54.5721484 L159.894082,177.014648 C159.894082,181.418047 156.311797,185 151.90873,185 L48.9853516,185 C44.5819531,185 41,181.418047 41,177.014648 L41,153.945781 C41,152.475547 42.1916602,151.283887 43.6618945,151.283887 C45.1321289,151.283887 46.3237891,152.475879 46.3237891,153.945781 L46.3237891,177.014648 C46.3237891,178.482559 47.5177734,179.676543 48.9856836,179.676543 L151.908398,179.676543 C153.376309,179.676543 154.570293,178.482559 154.570293,177.014648 L154.570293,54.5721484 C154.570293,53.1019141 155.761953,51.9102539 157.232187,51.9102539 Z M151.90873,15 C156.311465,15 159.894082,18.5819531 159.894414,22.9853516 L159.894414,40.3758203 C159.894414,41.8460547 158.702754,43.0377148 157.23252,43.0377148 C155.761953,43.0377148 154.570625,41.8457227 154.570625,40.3758203 L154.570625,22.9853516 C154.570625,21.5174414 153.376641,20.323457 151.90873,20.323457 L48.9860156,20.323457 C47.5181055,20.323457 46.3241211,21.5174414 46.3241211,22.9853516 L46.3241211,136.910254 C46.3241211,138.380488 45.1324609,139.572148 43.6622266,139.572148 C42.1919922,139.572148 41.000332,138.380156 41.000332,136.910254 L41.000332,22.9853516 C41.000332,18.5819531 44.5826172,15 48.9856836,15 L151.90873,15 Z M145.875059,26.3571289 C147.345625,26.3571289 148.536953,27.5487891 148.537285,29.0186914 L148.537285,82.9648047 C148.537285,84.4350391 147.345625,85.6266992 145.875391,85.6266992 L55.0193555,85.6266992 C53.5491211,85.6266992 52.3574609,84.434707 52.3574609,82.9648047 L52.3574609,29.0190234 C52.3574609,27.5487891 53.5494531,26.3571289 55.0193555,26.3571289 L145.875059,26.3571289 Z M143.213496,80.3025781 L143.213496,31.6805859 L57.680918,31.6805859 L57.680918,80.3025781 L143.213496,80.3025781 Z M145.875059,91.659707 C147.345625,91.659707 148.536953,92.8513672 148.536953,94.3216016 L148.536953,128.392656 C148.536953,129.862891 147.345293,131.054551 145.875059,131.054551 L106.125605,131.054551 C104.655039,131.054551 103.463711,129.862559 103.463711,128.392656 L103.463711,94.3216016 C103.463711,92.8513672 104.655371,91.659707 106.125605,91.659707 L145.875059,91.659707 Z M143.213496,125.730762 L143.213496,96.9834961 L108.7875,96.9834961 L108.7875,125.730762 L143.213496,125.730762 Z M94.7688086,91.659707 C96.2387109,91.659707 97.4303711,92.8513672 97.4307031,94.3216016 L97.4307031,128.392656 C97.4307031,129.862891 96.2387109,131.054551 94.7688086,131.054551 L55.0193555,131.054551 C53.5491211,131.054551 52.3574609,129.862559 52.3574609,128.392656 L52.3574609,94.3216016 C52.3574609,92.8513672 53.5494531,91.659707 55.0193555,91.659707 L94.7688086,91.659707 Z M92.1069141,125.730762 L92.1069141,96.9834961 L57.680918,96.9834961 L57.680918,125.730762 L92.1069141,125.730762 Z M145.875059,134.248359 C147.345625,134.248359 148.536953,135.440352 148.536953,136.910254 L148.536953,170.981309 C148.536953,172.451543 147.345293,173.643203 145.875059,173.643203 L106.125605,173.643203 C104.655039,173.643203 103.463711,172.451211 103.463711,170.981309 L103.463711,136.910254 C103.463711,135.44002 104.655371,134.248359 106.125605,134.248359 L145.875059,134.248359 Z M143.213496,168.319414 L143.213496,139.572148 L108.7875,139.572148 L108.7875,168.319414 L143.213496,168.319414 Z M94.7688086,134.248359 C96.2387109,134.248359 97.4303711,135.440352 97.4307031,136.910254 L97.4307031,170.981309 C97.4307031,172.451543 96.2387109,173.643203 94.7688086,173.643203 L55.0193555,173.643203 C53.5491211,173.643203 52.3574609,172.451211 52.3574609,170.981309 L52.3574609,136.910254 C52.3574609,135.44002 53.5494531,134.248359 55.0193555,134.248359 L94.7688086,134.248359 Z M92.1069141,168.319414 L92.1069141,139.572148 L57.680918,139.572148 L57.680918,168.319414 L92.1069141,168.319414 Z M83.4116797,108.695234 C84.881582,108.695234 86.0735742,109.886895 86.0735742,111.357129 C86.0735742,112.827363 84.881582,114.019023 83.4116797,114.019023 L77.5556445,114.019023 L77.5556445,119.875059 C77.5556445,121.345293 76.3639844,122.536953 74.89375,122.536953 C73.4235156,122.536953 72.2318555,121.344961 72.2318555,119.875059 L72.2318555,114.019023 L66.3758203,114.019023 C64.9055859,114.019023 63.7139258,112.827363 63.7139258,111.357129 C63.7139258,109.886895 64.905918,108.695234 66.3758203,108.695234 L72.2318555,108.695234 L72.2318555,102.839199 C72.2318555,101.368965 73.4235156,100.177305 74.89375,100.177305 C76.3639844,100.177305 77.5556445,101.369297 77.5556445,102.839199 L77.5556445,108.695234 L83.4116797,108.695234 Z M134.518262,108.695234 C135.988496,108.695234 137.180156,109.886895 137.180156,111.357129 C137.180156,112.827363 135.988496,114.019023 134.518262,114.019023 L117.482734,114.019023 C116.012168,114.019023 114.82084,112.827363 114.82084,111.357129 C114.82084,109.886895 116.0125,108.695234 117.482734,108.695234 L134.518262,108.695234 Z M78.6579883,153.945781 L85.2929688,160.581426 C86.2625,161.550293 86.3269141,163.151348 85.4347461,164.19293 C84.4393164,165.355371 82.6118164,165.428418 81.5290625,164.345664 L74.893418,157.71002 L68.2577734,164.345664 C67.1750195,165.428418 65.3475195,165.355371 64.3520898,164.19293 C63.4602539,163.151348 63.524668,161.550293 64.4938672,160.581426 L71.1295117,153.945781 L64.4938672,147.310137 C63.4542773,146.270879 63.4542773,144.585488 64.4938672,143.545898 C65.533125,142.506309 67.2185156,142.506309 68.2581055,143.545898 L74.89375,150.181543 L81.5293945,143.545898 C82.5686523,142.506309 84.254043,142.506309 85.2936328,143.545898 C86.3332227,144.585156 86.3332227,146.270879 85.2936328,147.310137 L78.6579883,153.945781 Z M136.400547,143.545898 C137.440137,144.585156 137.440137,146.270547 136.400215,147.310137 L119.364687,164.345664 C118.844727,164.865625 118.163398,165.125273 117.482402,165.125273 C115.154531,165.125273 113.960547,162.220996 115.600449,160.581426 L132.635977,143.545898 C133.675566,142.506309 135.360625,142.506309 136.400547,143.545898 Z M122.204219,146.385098 C123.173418,147.353965 123.2375,148.95502 122.345332,149.996602 C121.349902,151.159043 119.52207,151.231758 118.439316,150.149336 L115.600449,147.310137 C114.560859,146.270879 114.560859,144.585488 115.600449,143.545898 C116.640039,142.506309 118.325098,142.506309 119.36502,143.545898 L122.204219,146.385098 Z M136.400879,160.581426 C137.369746,161.550293 137.43416,163.151348 136.541992,164.19293 C135.546562,165.355371 133.71873,165.428086 132.635977,164.345664 L129.796777,161.506465 C128.757187,160.467207 128.757187,158.781816 129.796777,157.742227 C130.836367,156.702637 132.521426,156.702637 133.561348,157.742227 L136.400879,160.581426 Z M136.400547,52.6898633 C136.89959,53.1889062 137.179824,53.86625 137.180488,54.5718164 L137.180488,74.446543 C137.180488,75.9167773 135.988828,77.1084375 134.518594,77.1084375 L123.161465,77.1084375 C121.690898,77.1084375 120.49957,75.9164453 120.49957,74.446543 L120.49957,65.7513086 L114.46623,65.7513086 L114.46623,74.446543 C114.46623,75.9167773 113.27457,77.1084375 111.804336,77.1084375 L100.447207,77.1084375 C98.9769727,77.1084375 97.7853125,75.9164453 97.7853125,74.446543 L97.7853125,54.5718164 C97.7853125,53.865918 98.0655469,53.1889062 98.5649219,52.6898633 L115.600449,35.6543359 C116.640039,34.6147461 118.325098,34.6147461 119.36502,35.6543359 L136.400547,52.6898633 Z M131.856367,71.7849805 L131.856035,71.7849805 L131.856035,55.6744922 L117.482402,41.3008594 L103.10877,55.6744922 L103.10877,71.7849805 L109.142109,71.7849805 L109.142109,63.0897461 C109.142109,61.6195117 110.33377,60.4278516 111.804004,60.4278516 L123.161133,60.4278516 C124.631699,60.4278516 125.823027,61.6198437 125.823027,63.0897461 L125.823027,71.7849805 L131.856367,71.7849805 Z M88.1331641,38.4938672 C89.1724219,39.532793 89.1724219,41.2181836 88.132832,42.2581055 L66.8383398,63.5525977 C66.3187109,64.0725586 65.6373828,64.332207 64.9563867,64.332207 C62.6285156,64.332207 61.4345313,61.4275977 63.0744336,59.7883594 L84.3689258,38.4938672 C85.4081836,37.4542773 87.0935742,37.4542773 88.1331641,38.4938672 Z M90.9723633,55.5290625 C92.0119531,56.5683203 92.0119531,58.2537109 90.9720313,59.2933008 L82.4544336,67.8108984 C81.3716797,68.8936523 79.5441797,68.8206055 78.54875,67.6581641 C77.6569141,66.616582 77.7213281,65.0155273 78.6905273,64.0466602 L87.208125,55.5290625 C88.2473828,54.4894727 89.9327734,54.4894727 90.9723633,55.5290625 Z"/>
</svg>
