<svg xmlns="http://www.w3.org/2000/svg" width="200" height="200" viewBox="0 0 200 200">
  <path fill="#008B92" fill-rule="evenodd" d="M145.918739,136.598968 L132.705086,136.598968 C131.72776,136.598968 130.825203,136.077728 130.337074,135.231781 L123.729713,123.789062 C123.241585,122.943115 123.241585,121.900635 123.729713,121.054687 L130.337074,109.611969 C130.825203,108.766022 131.72776,108.244782 132.705086,108.244782 L140.427559,108.244782 C141.937874,108.244782 143.161934,109.46991 143.161934,110.979157 C143.161934,112.489471 141.937874,113.713532 140.427559,113.713532 L134.28376,113.713532 L129.255073,122.421875 L134.28376,131.130218 L144.341133,131.130218 L144.938209,130.096283 C145.693367,128.78891 147.364967,128.340301 148.673408,129.095459 C149.980781,129.850617 150.42939,131.523285 149.674232,132.830658 L148.287819,135.231781 C147.798622,136.077728 146.896065,136.598968 145.918739,136.598968 Z M152.525032,125.15625 C152.346657,125.15625 152.169349,125.137024 151.990974,125.101776 C151.816872,125.068665 151.643837,125.014191 151.480415,124.945831 C151.315926,124.877472 151.157844,124.795227 151.00724,124.693756 C150.85984,124.59549 150.719917,124.481201 150.59388,124.355163 C150.465706,124.229126 150.353554,124.090271 150.252083,123.939667 C150.153816,123.792267 150.069435,123.633118 150.001076,123.466492 C149.932716,123.302002 149.880379,123.130035 149.845131,122.954865 C149.809883,122.779694 149.792793,122.599182 149.792793,122.421875 C149.792793,122.244568 149.809883,122.064056 149.845131,121.888885 C149.880379,121.713715 149.932716,121.541748 150.001076,121.377258 C150.069435,121.210632 150.153816,121.052551 150.252083,120.905151 C150.353554,120.754547 150.465706,120.614624 150.59388,120.488587 C150.719917,120.363617 150.85984,120.24826 151.00724,120.149994 C151.157844,120.048523 151.315926,119.966278 151.480415,119.897919 C151.643837,119.829559 151.816872,119.775085 151.990974,119.739838 C152.344521,119.668274 152.707679,119.668274 153.060158,119.739838 C153.235329,119.775085 153.407295,119.829559 153.571785,119.897919 C153.736275,119.966278 153.894356,120.048523 154.04496,120.149994 C154.194496,120.24826 154.334419,120.363617 154.460457,120.488587 C154.586494,120.614624 154.700783,120.754547 154.799049,120.905151 C154.897316,121.052551 154.982765,121.210632 155.051124,121.377258 C155.119484,121.541748 155.170753,121.713715 155.207069,121.888885 C155.242317,122.064056 155.261543,122.244568 155.261543,122.421875 C155.261543,122.599182 155.242317,122.780762 155.207069,122.954865 C155.170753,123.130035 155.119484,123.30307 155.051124,123.466492 C154.982765,123.633118 154.897316,123.792267 154.799049,123.939667 C154.700783,124.090271 154.586494,124.229126 154.460457,124.355163 C154.334419,124.481201 154.194496,124.59549 154.04496,124.693756 C153.896492,124.795227 153.735206,124.877472 153.571785,124.945831 C153.407295,125.014191 153.235329,125.068665 153.060158,125.101776 C152.882851,125.137024 152.705543,125.15625 152.525032,125.15625 Z M155.41642,100 L167.574776,121.054688 C168.062904,121.900635 168.062904,122.943115 167.574776,123.789062 L154.627083,146.210938 C154.138954,147.056885 153.236397,147.578125 152.259071,147.578125 L127.944496,147.578125 L115.78614,168.632812 C115.296943,169.47876 114.394386,170 113.418129,170 L87.5238113,170 C86.5464858,170 85.6439285,169.47876 85.1557999,168.632812 L72.9974441,147.578125 L48.6818006,147.578125 C47.7044754,147.578125 46.8019178,147.056885 46.3137892,146.210938 L33.3660964,123.789062 C32.8779679,122.943115 32.8779679,121.900635 33.3660964,121.054688 L45.5233839,100 L33.3660964,78.9453125 C32.8779679,78.0993652 32.8779679,77.0568848 33.3660964,76.2109375 L46.3137892,53.7890625 C46.8019178,52.9431152 47.7044754,52.421875 48.6818006,52.421875 L72.9974441,52.421875 L85.1557999,31.3671875 C85.6439285,30.5212402 86.5464858,30 87.5238113,30 L113.418129,30 C114.394386,30 115.296943,30.5212402 115.78614,31.3671875 L127.943428,52.421875 L152.259071,52.421875 C153.235329,52.421875 154.138954,52.9431152 154.627083,53.7890625 L167.574776,76.2109375 C168.062904,77.0568848 168.062904,78.0993652 167.574776,78.9453125 L155.41642,100 Z M162.049415,77.578125 L150.680397,57.890625 L127.944496,57.890625 L116.575478,77.579193 L127.943428,97.265625 L150.680397,97.265625 L162.049415,77.578125 Z M111.838386,119.6875 L123.207405,100 L111.838386,80.3125 L89.1024855,80.3125 L77.7334669,100 L89.1024855,119.6875 L111.838386,119.6875 Z M89.1024855,35.46875 L77.7334669,55.15625 L89.1024855,74.84375 L111.838386,74.84375 L123.207405,55.155182 L111.839455,35.46875 L89.1024855,35.46875 Z M50.260475,57.890625 L38.8914565,77.578125 L50.260475,97.265625 L72.9974441,97.265625 L84.3653943,77.578125 L72.9974441,57.890625 L50.260475,57.890625 Z M38.8914565,122.421875 L50.260475,142.109375 L72.9974441,142.109375 L84.3653943,122.421875 L72.9974441,102.734375 L50.260475,102.734375 L38.8914565,122.421875 Z M111.839455,164.53125 L123.207405,144.844818 L111.838386,125.15625 L89.1024855,125.15625 L77.7334669,144.84375 L89.1024855,164.53125 L111.839455,164.53125 Z M150.680397,142.109375 L162.049415,122.421875 L150.680397,102.734375 L127.943428,102.734375 L116.575478,122.420807 L127.944496,142.109375 L150.680397,142.109375 Z M68.2357863,91.7552184 L55.0210646,91.7552184 C54.0448074,91.7552184 53.1422498,91.2339782 52.6530532,90.3880309 L46.0467605,78.9453125 C45.5575636,78.0993652 45.5575636,77.0568848 46.0467605,76.2109375 L52.6530532,64.7682191 C53.1422498,63.9222718 54.0448074,63.4010316 55.0210646,63.4010316 L62.7446059,63.4010316 C64.254921,63.4010316 65.4789809,64.6261595 65.4789809,66.1354066 C65.4789809,67.6457214 64.254921,68.8697816 62.7446059,68.8697816 L56.599739,68.8697816 L51.5721205,77.578125 L56.599739,86.2864684 L66.6571121,86.2864684 L67.2541886,85.2525329 C68.0093458,83.9451598 69.6820144,83.4965514 70.9893875,84.251709 C72.2978286,85.0068665 72.7453689,86.6795348 71.9902114,87.9869079 L70.6037979,90.3880309 C70.1156691,91.2339782 69.2120437,91.7552184 68.2357863,91.7552184 Z M74.8442153,80.3125 C74.1243057,80.3125 73.4193494,80.0198366 72.9109268,79.5114134 C72.4014357,79.0029909 72.1098403,78.2969665 72.1098403,77.578125 C72.1098403,77.4008177 72.1258621,77.2192383 72.1611098,77.0451354 C72.1963575,76.8699645 72.2486951,76.697998 72.3170545,76.5335084 C72.3854139,76.3668822 72.469795,76.2088014 72.5680616,76.0603333 C72.6695327,75.9097291 72.7816847,75.770874 72.9098585,75.6448366 C73.5443191,75.010376 74.4874646,74.7177123 75.3761365,74.8960876 C75.5523757,74.9313353 75.7243422,74.9858093 75.8877638,75.0541686 C76.0543898,75.122528 76.2135389,75.2047728 76.3609389,75.3062438 C76.5115431,75.4045104 76.6503982,75.5187988 76.7764357,75.6448366 C76.9024734,75.770874 77.0167615,75.9097291 77.1160964,76.0603333 C77.214363,76.2077331 77.2987439,76.3668822 77.3671033,76.5335084 C77.4354627,76.697998 77.4878005,76.8699645 77.5230483,77.0451354 C77.558296,77.2203063 77.5775222,77.4008177 77.5775222,77.578125 C77.5775222,78.2969665 77.2848585,79.0029909 76.7764357,79.5114134 C76.6503982,79.6374512 76.5115431,79.7517396 76.3609389,79.8500062 C76.2135389,79.9482728 76.0543898,80.033722 75.8877638,80.1020814 C75.7232742,80.1704407 75.5513077,80.2249147 75.3761365,80.2580261 C75.2020339,80.2932741 75.0215225,80.3125 74.8442153,80.3125 Z"/>
</svg>
