<svg xmlns="http://www.w3.org/2000/svg" width="200" height="200" viewBox="0 0 200 200">
  <path fill="#29BDEF" d="M170.714063,90.714375 C166.401563,90.714375 162.766875,93.669375 161.727188,97.6609375 L144.454063,97.6609375 C144.164688,91.241875 142.509063,85.1734375 139.771875,79.73875 L154.629688,71.160625 C156.394688,72.95 158.799375,73.9271875 161.255938,73.9271875 C162.83,73.9271875 164.424688,73.526875 165.883125,72.6846875 C170.317188,70.1246875 171.842188,64.434375 169.281875,60 C166.721563,55.565625 161.03125,54.0403125 156.5975,56.60125 C154.449375,57.8415625 152.912813,59.84375 152.270938,62.2396875 C151.83625,63.8625 151.848438,65.5340625 152.28625,67.1115625 L137.4525,75.675625 C134.065625,70.4115625 129.598438,65.90625 124.36875,62.470625 L132.8925,47.706875 C133.696875,47.9265625 134.523438,48.0375 135.349063,48.0371875 C137.460938,48.0371875 139.56375,47.325 141.255938,45.9334375 C142.254063,45.113125 142.397812,43.6390625 141.577188,42.64125 C140.756875,41.643125 139.282188,41.4990625 138.285,42.32 C136.810313,43.5321875 134.707812,43.705 133.053125,42.75 C131.987188,42.134375 131.224687,41.1409375 130.90625,39.9525 C130.5875,38.76375 130.75125,37.521875 131.366562,36.4565625 C132.359688,34.7365625 134.331562,33.846875 136.276875,34.243125 C137.543125,34.501875 138.778125,33.6840625 139.035937,32.4184375 C139.29375,31.1525 138.476875,29.9171875 137.21125,29.659375 C133.292813,28.8609375 129.315625,30.651875 127.315,34.1171875 C126.074688,36.2653125 125.745625,38.7678125 126.3875,41.16375 C126.8225,42.7865625 127.66875,44.2278125 128.836563,45.375 L120.33,60.1090625 C114.885937,57.3015625 108.7925,55.5840625 102.33875,55.248125 L102.33875,38.273125 C106.330313,37.2334375 109.285312,33.59875 109.285312,29.28625 C109.285625,24.165625 105.120312,20 100,20 C94.8796875,20 90.714375,24.165625 90.714375,29.2859375 C90.714375,33.5984375 93.669375,37.233125 97.6609375,38.2728125 L97.6609375,55.2478125 C91.2075,55.58375 85.11375,57.3009375 79.6696875,60.10875 L71.163125,45.3746875 C72.3309375,44.2275 73.1775,42.78625 73.6125,41.1634375 C74.2546875,38.7675 73.9253125,36.2653125 72.685,34.116875 C70.124375,29.6825 64.434375,28.1571875 60,30.718125 C57.851875,31.9584375 56.315625,33.960625 55.6734375,36.3565625 C55.0315625,38.7525 55.3609375,41.2546875 56.60125,43.4028125 C57.8415625,45.5509375 59.84375,47.0875 62.2396875,47.729375 C63.0396875,47.94375 63.8515625,48.0496875 64.658125,48.0496875 C65.4878125,48.0496875 66.3115625,47.9353125 67.11125,47.7134375 L75.63125,62.470625 C70.4015625,65.90625 65.934375,70.4115625 62.5475,75.675625 L47.71375,67.1115625 C48.1515625,65.5340625 48.16375,63.8625 47.7290625,62.2396875 C47.0871875,59.84375 45.550625,57.8415625 43.4025,56.60125 C38.96875,54.04125 33.278125,55.5659375 30.718125,60 C28.1578125,64.434375 29.6828125,70.1246875 34.116875,72.6846875 C35.575625,73.526875 37.1696875,73.9271875 38.7440625,73.9271875 C41.2003125,73.926875 43.605,72.95 45.37,71.160625 L60.228125,79.73875 C57.4909375,85.1734375 55.8353125,91.2421875 55.5459375,97.6609375 L38.2728125,97.6609375 C37.233125,93.669375 33.5984375,90.714375 29.2859375,90.714375 C24.165625,90.714375 20,94.8796875 20,100 C20,105.120312 24.165625,109.285937 29.2859375,109.285937 C33.5984375,109.285937 37.233125,106.330625 38.2728125,102.339062 L55.57875,102.339062 C55.9553125,108.717187 57.68,114.737812 60.473125,120.119687 L45.374375,128.836875 C44.2271875,127.669062 42.785625,126.8225 41.1628125,126.387812 C38.7665625,125.745312 36.2646875,126.075625 34.11625,127.315625 L34.1165625,127.315625 C29.6825,129.875625 28.1578125,135.565625 30.7178125,140 C31.958125,142.148125 33.9603125,143.684375 36.35625,144.326563 C37.15625,144.540937 37.968125,144.646875 38.7746875,144.646875 C40.38375,144.646875 41.971875,144.224688 43.4025,143.39875 C45.550625,142.158437 47.086875,140.15625 47.7290625,137.760312 C48.1640625,136.137187 48.1515625,134.465625 47.71375,132.888125 L62.8446875,124.1525 C66.2515625,129.309375 70.700625,133.719375 75.8915625,137.078125 L67.1115625,152.285937 C65.5340625,151.847813 63.8625,151.835312 62.2396875,152.270625 C59.84375,152.912813 57.8415625,154.449062 56.60125,156.597188 C55.3609375,158.745313 55.031875,161.247813 55.6734375,163.643125 C56.315625,166.039062 57.851875,168.04125 60,169.281563 C61.45875,170.12375 63.0528125,170.524063 64.6271875,170.524063 C67.83875,170.524063 70.9665625,168.858438 72.6846875,165.882813 C73.925,163.735 74.2540625,161.2325 73.6121875,158.836563 C73.1771875,157.21375 72.3309375,155.772188 71.163125,154.625 L79.9478125,139.409375 C85.3209375,142.132813 91.316875,143.799063 97.6609375,144.129375 L97.6609375,161.726875 C93.669375,162.766563 90.714375,166.401563 90.714375,170.714063 C90.714375,175.834688 94.8796875,180 100,180 C105.120312,180 109.285625,175.834688 109.285625,170.714375 C109.285625,166.401875 106.330625,162.766875 102.339063,161.727187 L102.339063,144.129687 C108.683125,143.799688 114.679063,142.133438 120.052188,139.409687 L128.836875,154.625313 C127.669062,155.7725 126.8225,157.214062 126.387813,158.836875 C125.745625,161.232812 126.075,163.735 127.315313,165.883125 C129.03375,168.85875 132.16125,170.524375 135.372813,170.524375 C136.946875,170.524375 138.541562,170.124062 140,169.281875 C142.148125,168.041562 143.684375,166.039375 144.326563,163.643437 C144.968125,161.247812 144.639063,158.745625 143.39875,156.5975 C142.158438,154.449375 140.15625,152.913125 137.760313,152.270937 C136.136875,151.835937 134.465625,151.848437 132.888125,152.28625 L124.108125,137.078437 C129.299375,133.719687 133.748438,129.309687 137.155,124.152812 L152.285938,132.888437 C151.848125,134.465937 151.835625,136.1375 152.270625,137.760625 C152.9125,140.156562 154.449063,142.15875 156.597188,143.399062 C158.028125,144.225 159.615938,144.647187 161.225,144.647187 C162.031563,144.647187 162.843438,144.54125 163.643438,144.326875 C166.039375,143.684687 168.041563,142.148437 169.281875,140.000312 C171.841875,135.565937 170.317188,129.875937 165.883438,127.315937 C163.735313,126.075312 161.232813,125.745937 158.836875,126.388125 C157.214063,126.822812 155.7725,127.669375 154.625313,128.837187 L139.526563,120.12 C142.319688,114.738125 144.044375,108.717187 144.420938,102.339375 L161.726875,102.339375 C162.766563,106.330937 166.40125,109.28625 170.71375,109.28625 C175.834375,109.285937 180,105.120312 180,100 C180,94.8796875 175.834375,90.714375 170.714063,90.714375 Z M156.79,63.4503125 C157.108438,62.2615625 157.870937,61.268125 158.936562,60.6528125 C159.660312,60.235 160.45125,60.03625 161.2325,60.03625 C162.825937,60.03625 164.377812,60.8628125 165.230312,62.3390625 C165.845625,63.405 166.009062,64.6465625 165.690625,65.835625 C165.372187,67.024375 164.609687,68.0178125 163.544062,68.633125 C162.478437,69.24875 161.236562,69.411875 160.048125,69.0934375 C158.859062,68.775 157.865625,68.0125 157.250313,66.946875 C156.634687,65.8809375 156.47125,64.639375 156.79,63.4503125 Z M69.0934375,39.9521875 C68.775,41.140625 68.0125,42.1340625 66.94625,42.7496875 C65.8809375,43.3653125 64.6390625,43.52875 63.450625,43.2103125 C62.261875,42.8915625 61.2684375,42.129375 60.6528125,41.0634375 C60.0375,39.9978125 59.8740625,38.7559375 60.1925,37.5671875 C60.5109375,36.3784375 61.2734375,35.385 62.3390625,34.7696875 C63.0628125,34.351875 63.85375,34.1534375 64.635,34.1534375 C66.2284375,34.1534375 67.780625,34.9796875 68.633125,36.4559375 C69.2484375,37.5221875 69.4121875,38.7634375 69.0934375,39.9521875 Z M42.75,66.946875 C42.1346875,68.0125 41.14125,68.775 39.9521875,69.0934375 C38.764375,69.41125 37.521875,69.2484375 36.45625,68.633125 C35.390625,68.0178125 34.6278125,67.024375 34.3096875,65.835625 C33.99125,64.6465625 34.1546875,63.405 34.77,62.3390625 C35.6225,60.8625 37.174375,60.03625 38.7678125,60.03625 C39.54875,60.03625 40.34,60.2346875 41.06375,60.6528125 C42.129375,61.268125 42.8921875,62.2615625 43.2103125,63.4503125 C43.52875,64.639375 43.365,65.8809375 42.75,66.946875 Z M29.2859375,104.607812 C26.7453125,104.607812 24.6784375,102.540937 24.6784375,100 C24.6784375,97.459375 26.7453125,95.3925 29.2859375,95.3925 C31.8265625,95.3925 33.8934375,97.459375 33.8934375,100 C33.8934375,102.540937 31.8265625,104.607812 29.2859375,104.607812 Z M43.21,136.549688 C42.891875,137.738438 42.1290625,138.731875 41.0634375,139.347188 C39.9978125,139.963125 38.75625,140.125938 37.5671875,139.8075 C36.3784375,139.489063 35.385,138.726562 34.7696875,137.660937 C33.4996875,135.460625 34.2559375,132.637187 36.45625,131.367188 C36.45625,131.367188 36.45625,131.367188 36.4565625,131.367188 C37.16625,130.957187 37.9540625,130.747812 38.7525,130.747812 C39.1528125,130.747812 39.5553125,130.800312 39.9521875,130.906875 C41.1409375,131.225312 42.134375,131.987812 42.75,133.05375 C43.365,134.119062 43.52875,135.360937 43.21,136.549688 Z M68.633125,163.544062 C67.3628125,165.744062 64.54,166.50125 62.3390625,165.230625 C61.273125,164.615312 60.510625,163.621875 60.1925,162.433125 C59.87375,161.244375 60.0375,160.0025 60.6528125,158.936875 C61.268125,157.87125 62.2615625,157.108437 63.4503125,156.790312 C63.8475,156.684062 64.2503125,156.63125 64.6503125,156.63125 C65.44875,156.63125 66.2365625,156.840625 66.9465625,157.250312 C68.0125,157.865937 68.775,158.859375 69.0934375,160.048125 C69.4121875,161.236875 69.2484375,162.478125 68.633125,163.544062 Z M130.906562,160.048125 C131.225312,158.859375 131.9875,157.865938 133.053437,157.250313 C133.763437,156.840313 134.55125,156.63125 135.349687,156.63125 C135.75,156.63125 136.152812,156.684063 136.549687,156.790313 C137.738437,157.108438 138.731875,157.87125 139.347187,158.936875 C139.9625,160.0025 140.125937,161.244375 139.8075,162.433125 C139.489062,163.621875 138.726875,164.615313 137.660937,165.230625 C135.460312,166.500938 132.637187,165.744375 131.366875,163.544063 C130.751562,162.478125 130.587812,161.236875 130.906562,160.048125 Z M157.25,133.053438 C157.865625,131.9875 158.859062,131.225 160.047812,130.906563 C160.444687,130.800313 160.847187,130.7475 161.2475,130.7475 C162.045937,130.7475 162.83375,130.956875 163.543437,131.366875 C163.54375,131.366875 163.54375,131.366875 163.54375,131.366875 C165.744062,132.636875 166.500312,135.460312 165.230312,137.660625 C164.615,138.72625 163.621562,139.489062 162.432812,139.807187 C161.24375,140.125937 160.0025,139.962812 158.936562,139.346875 C157.870937,138.731562 157.108125,137.738125 156.79,136.549375 C156.47125,135.360937 156.634688,134.119062 157.25,133.053438 Z M133.02125,77.450625 C128.55,76.6675 124.204687,76.0721875 120.021562,75.629375 C119.481562,70.8146875 118.866562,67.0028125 118.380312,64.36875 C124.279062,67.450625 129.315625,71.9653125 133.02125,77.450625 Z M95.3925,29.2859375 C95.3925,26.7453125 97.459375,24.6784375 100,24.6784375 C102.540625,24.6784375 104.6075,26.7453125 104.6075,29.2859375 C104.6075,31.8265625 102.540625,33.8934375 100,33.8934375 C97.459375,33.8934375 95.3925,31.8265625 95.3925,29.2859375 Z M88.049375,61.6975 C91.8234375,60.5078125 95.8378125,59.8646875 100,59.8646875 C104.606562,59.8646875 109.031562,60.6534375 113.150625,62.09875 C113.529375,63.8434375 114.445,68.4253125 115.23625,75.18125 C103.704375,74.2421875 93.625,74.430625 85.903125,74.948125 C86.7590625,67.7178125 87.75125,63.0228125 88.049375,61.6975 Z M82.84625,63.7528125 C82.354375,66.3409375 81.699375,70.2715625 81.12375,75.3303125 C75.1590625,75.8846875 70.410625,76.6171875 67.1415625,77.214375 C71.0890625,71.4615625 76.5053125,66.791875 82.84625,63.7528125 Z M64.023125,82.6228125 C66.080625,82.15875 71.975625,80.945 80.641875,80.0959375 C80.5615625,81.0003125 80.484375,81.9284375 80.4128125,82.885625 C80.1034375,87.006875 79.8709375,91.88125 79.8415625,97.3496875 L60.246875,97.3496875 C60.551875,92.10625 61.8753125,87.1325 64.023125,82.6228125 Z M63.121875,114.714375 C61.505,110.760937 60.50625,106.492188 60.2465625,102.027813 L79.86625,102.027813 C79.94375,106.822187 80.186875,111.998125 80.666875,117.469062 C69.8496875,116.402812 63.29625,114.754375 63.211875,114.732812 C63.181875,114.725 63.151875,114.720938 63.121875,114.714375 Z M65.8065625,120.08125 C69.055,120.714687 74.29875,121.585625 81.13625,122.219062 C81.6165625,126.574687 82.253125,131.0925 83.0765625,135.732187 C75.885625,132.342187 69.8665625,126.863125 65.8065625,120.08125 Z M104.6075,170.714375 C104.6075,173.255 102.540625,175.321875 100,175.321875 C97.459375,175.321875 95.3925,173.255 95.3925,170.714375 C95.3925,168.17375 97.459375,166.106562 100,166.106562 C102.540625,166.106562 104.6075,168.173437 104.6075,170.714375 Z M115.733125,117.6375 C113.249375,117.8525 110.759687,118.022812 108.267812,118.14125 C106.977187,118.2025 105.980937,119.298437 106.0425,120.58875 C106.101562,121.84125 107.135938,122.816563 108.376875,122.816563 C108.414375,122.816563 108.452188,122.815625 108.49,122.81375 C110.746563,122.706562 113.00125,122.55625 115.251563,122.371562 C114.703438,127.2 113.961875,132.2025 112.984063,137.3375 C108.9125,138.745625 104.544375,139.512812 100.000313,139.512812 C95.890625,139.512812 91.9240625,138.886875 88.19125,137.725625 C88.184375,137.663437 88.1771875,137.60125 88.1653125,137.539062 C87.18375,132.413438 86.4396875,127.42 85.886875,122.598125 C87.67375,122.718125 89.54,122.82 91.4909375,122.894688 C91.52125,122.895938 91.551875,122.896563 91.581875,122.896563 C92.8325,122.896563 93.8696875,121.907188 93.9178125,120.646875 C93.9675,119.35625 92.96125,118.269375 91.67,118.22 C89.4771875,118.135937 87.385,118.016875 85.4003125,117.87375 C84.8915625,112.305 84.6334375,107.000312 84.5565625,102.028125 L116.555625,102.028125 C116.479687,106.929687 116.2275,112.155 115.733125,117.6375 Z M84.5353125,97.3496875 C84.5796875,90.7015625 84.9325,84.7509375 85.4025,79.6928125 C93.7796875,79.091875 104.125,78.91875 115.730312,79.915 C116.19,84.924375 116.532812,90.7996875 116.57625,97.3496875 L84.5353125,97.3496875 Z M118.139062,135.136562 C118.93,130.60125 119.544687,126.182812 120.00875,121.922812 C124.824687,121.41 129.6075,120.720937 134.325,119.859688 C130.491875,126.356562 124.87,131.678125 118.139062,135.136562 Z M136.9,114.660625 C136.736562,114.658125 136.570312,114.671562 136.403125,114.705 C131.170625,115.7475 125.8425,116.56375 120.470625,117.162812 C120.932813,111.805312 121.16875,106.7325 121.245,102.028125 L139.753438,102.028125 C139.494687,106.471875 138.50375,110.722187 136.9,114.660625 Z M121.27,97.3496875 C121.240625,91.88125 121.008125,87.006875 120.69875,82.885625 C120.634688,82.0309375 120.566563,81.1971875 120.495625,80.384375 C125.493125,80.9396875 130.69375,81.7171875 136.046875,82.7725 C138.153125,87.2425 139.451563,92.1640625 139.753438,97.3496875 L121.27,97.3496875 Z M170.714062,104.607812 C168.173437,104.607812 166.106562,102.540937 166.106562,100 C166.106562,97.459375 168.173437,95.3925 170.714063,95.3925 C173.254688,95.3925 175.321562,97.459375 175.321562,100 C175.321562,102.540937 173.254687,104.607812 170.714062,104.607812 Z"/>
</svg>
