<svg xmlns="http://www.w3.org/2000/svg" xmlns:xlink="http://www.w3.org/1999/xlink" width="200" height="200" viewBox="0 0 200 200">
  <defs>
    <clipPath id="clip-wind-turbine-icon">
      <rect width="200" height="200"/>
    </clipPath>
  </defs>
  <g id="wind-turbine-icon" clip-path="url(#clip-wind-turbine-icon)">
    <rect width="200" height="200" fill="#fff"/>
    <path id="wind-turbine-icon-2" data-name="wind-turbine-icon" d="M159.611,83.4a3.574,3.574,0,0,1,0,3.2,3.3,3.3,0,0,1-2.5,1.6l-29.9,3.9c-8.1,1.1-16.3,2.1-24.4,3.2a4.869,4.869,0,0,1-1.2.1,6.1,6.1,0,0,1-5.7-3.5,8.225,8.225,0,0,0-5.6-4.5,8.641,8.641,0,0,1-2.1-.7,7.9,7.9,0,0,1-1.4,2.3l8.1,90.9h12.9a2.4,2.4,0,1,1,0,4.8H49.5a2.4,2.4,0,1,1,0-4.8H63l7.9-88.5L69,93.1,27.1,129.9a45.013,45.013,0,0,1-3.7,2.8,6.351,6.351,0,0,1-3.4,1,10.215,10.215,0,0,1-4-.9,3.048,3.048,0,0,1-1.9-2.1,3.375,3.375,0,0,1,.8-2.9l18.9-22.4C39.6,98.7,45.3,91.9,51,85.1c2.7-3.2,5.5-2.9,7.4-2.2a7.916,7.916,0,0,0,7-.6,12.147,12.147,0,0,1,2-.9,11.2,11.2,0,0,1,3.7-8l-.1-.1-13-61v-.1a41.125,41.125,0,0,1-.7-4.7C57.1,4.4,59,2.3,60.6.8A2.971,2.971,0,0,1,63.4,0a2.934,2.934,0,0,1,2.2,2.1L69,11.4c1.2,3.4,2.5,6.8,3.7,10.1l3.5,9.6c3,8,5.9,16.1,8.9,24.1,1.4,3.8,0,6.2-1.5,7.6a8.686,8.686,0,0,0-2.8,6.8c0,.3-.1.7-.1,1.1a11.066,11.066,0,0,1,7.5,6.3,4.18,4.18,0,0,1,1-.4l5.3.1,54.9,1.3h.1a32.83,32.83,0,0,1,4.6.4C157.111,79,158.611,81.4,159.611,83.4ZM84.606,81.5a6.113,6.113,0,1,0-12.2,0,6.283,6.283,0,0,0,6.1,6.5A6.349,6.349,0,0,0,84.606,81.5ZM62.8,11.1l12.6,59h.8v-.7a13.45,13.45,0,0,1,4.4-10.3c.5-.5.9-1,.3-2.5-3-8-5.9-16.1-8.9-24.1L64.7,12.9h.1c-.4-.9-1-2.5-2-5.3l-.5-1.3a2.2,2.2,0,0,0-.1.8C62.3,8.2,62.6,9.9,62.8,11.1ZM24.3,126,68.9,86.9l-.4-.8a.764.764,0,0,0-.5.2,12.569,12.569,0,0,1-11,.8c-.2,0-.4-.1-.6-.1-.4,0-.8.2-1.5,1-5.7,6.8-11.5,13.5-17.2,20.3L20.4,128.7a6.888,6.888,0,0,0,.8-.3A32.409,32.409,0,0,0,24.3,126ZM68,179.5h22.2l-7.8-87.6a10.066,10.066,0,0,1-3.9.8,12.59,12.59,0,0,1-2.7-.4Zm58.7-92.5,27.3-3.6a2.01,2.01,0,0,0-.8-.4c-1.1-.2-2.7-.3-3.9-.4l-58.2-1.4-.2,1c.2.1.4.1.6.2a12.712,12.712,0,0,1,8.7,6.9c.3.7.7,1.1,2.1.9C110.408,89.1,118.608,88.1,126.709,87Zm-24.7-78.2a2.388,2.388,0,0,1,1.6-4.5,78.529,78.529,0,0,1,36.9,27.3,2.412,2.412,0,0,1-1.9,3.8,2.463,2.463,0,0,1-1.9-.9A73.055,73.055,0,0,0,102.007,8.8ZM4.7,81.5a78.8,78.8,0,0,0,3.9,24.7,2.388,2.388,0,0,1-1.5,3,1.7,1.7,0,0,1-.7.1,2.34,2.34,0,0,1-2.2-1.6A83.369,83.369,0,0,1,27.6,19.6a2.338,2.338,0,1,1,3.1,3.5A77.915,77.915,0,0,0,4.7,81.5Zm55.2,79a.735.735,0,0,1-.6-.2,77.946,77.946,0,0,1-32.9-18.1,2.335,2.335,0,1,1,3.2-3.4,72.463,72.463,0,0,0,30.9,17,2.4,2.4,0,0,1,1.7,2.9A2.347,2.347,0,0,1,59.9,160.5Zm89.506-50.3a2.393,2.393,0,0,1,1.3,3.1,80.679,80.679,0,0,1-36.5,40.7,2.016,2.016,0,0,1-1.1.3,2.391,2.391,0,0,1-1.1-4.5,76.012,76.012,0,0,0,34.3-38.3A2.394,2.394,0,0,1,149.41,110.2Zm-53.8-86.6a2.3,2.3,0,0,1-1.6-2.9,2.432,2.432,0,0,1,3-1.5,62.948,62.948,0,0,1,34.6,27.4,2.313,2.313,0,0,1-.8,3.2,2.663,2.663,0,0,1-1.2.3,2.306,2.306,0,0,1-2-1.1A58.212,58.212,0,0,0,95.607,23.6ZM15.9,89a62.275,62.275,0,0,1-.4-7.4,66.285,66.285,0,0,1,21-48.7,2.269,2.269,0,0,1,3.3.1,2.356,2.356,0,0,1-.1,3.3A61.6,61.6,0,0,0,20.2,81.5a54.763,54.763,0,0,0,.4,7,2.366,2.366,0,0,1-2.1,2.6h-.3A2.364,2.364,0,0,1,15.9,89Zm43.8,54.7a1.2,1.2,0,0,1-.8-.2,62,62,0,0,1-22.4-13.4,2.335,2.335,0,1,1,3.2-3.4,57.794,57.794,0,0,0,20.7,12.4,2.432,2.432,0,0,1,1.5,3A2.25,2.25,0,0,1,59.7,143.7Zm78.205-40.8a63.7,63.7,0,0,1-27.5,34.7,1.746,1.746,0,0,1-1.2.4,2.306,2.306,0,0,1-2-1.1,2.5,2.5,0,0,1,.8-3.3,59.91,59.91,0,0,0,25.4-32.2,2.389,2.389,0,0,1,3-1.5A2.432,2.432,0,0,1,137.91,102.9Zm-17.2,76.6a2.4,2.4,0,1,1,0,4.8h-6.1a2.4,2.4,0,1,1,0-4.8Z" transform="translate(20 8.072)" fill="#605ca8"/>
  </g>
</svg>
