<svg xmlns="http://www.w3.org/2000/svg" width="160" height="185" viewBox="0 0 160 185">
  <path fill="#605ca8" d="M159.6,83.4 C160.3,84.7 159.9,85.7 159.6,86.6 C159.3,87.1 158.6,88 157.1,88.2 L127.2,92.1 C119.1,93.2 110.9,94.2 102.8,95.3 C102.4,95.4 102,95.4 101.6,95.4 C98.4,95.4 96.7,93.5 95.9,91.9 C94.7,89.5 92.9,88.1 90.3,87.4 C89.6,87.3 88.9,87 88.2,86.7 C87.9,87.5 87.4,88.3 86.8,89 L94.9,179.9 L107.8,179.9 C109.1,179.9 110.2,181 110.2,182.3 C110.2,183.6 109.1,184.7 107.8,184.7 L92.8,184.7 L65.4,184.7 L49.5,184.7 C48.2,184.7 47.1,183.6 47.1,182.3 C47.1,181 48.2,179.9 49.5,179.9 L63,179.9 L70.9,91.4 L69,93.1 L27.1,129.9 C26,130.8 24.5,132 23.4,132.7 C22.3,133.4 21.1,133.7 20,133.7 C18.5,133.7 17.2,133.3 16,132.8 C15,132.4 14.3,131.6 14.1,130.7 C14,130.1 13.9,129 14.9,127.8 L33.8,105.4 C39.6,98.7 45.3,91.9 51,85.1 C53.7,81.9 56.5,82.2 58.4,82.9 C60.8,83.8 63,83.6 65.4,82.3 C66,81.9 66.7,81.7 67.4,81.4 C67.5,78.2 68.9,75.4 71.1,73.4 C71.1,73.4 71,73.3 71,73.3 L58,12.3 C58,12.2 58,12.2 58,12.2 C57.7,10.8 57.4,8.8 57.3,7.5 C57.1,4.4 59,2.3 60.6,0.8 C61.4,2.68396416e-14 62.4,-0.2 63.4,2.68396416e-14 C64,0.1 65.1,0.6 65.6,2.1 L69,11.4 C70.2,14.8 71.5,18.2 72.7,21.5 L76.2,31.1 C79.2,39.1 82.1,47.2 85.1,55.2 C86.5,59 85.1,61.4 83.6,62.8 C81.7,64.6 80.8,66.7 80.8,69.6 C80.8,69.9 80.7,70.3 80.7,70.7 C84.1,71.5 86.8,73.9 88.2,77 C88.5,76.8 88.9,76.7 89.2,76.6 L94.5,76.7 L149.4,78 C149.5,78 149.5,78 149.5,78 C150.9,78 152.9,78.2 154.1,78.4 C157.1,79 158.6,81.4 159.6,83.4 Z M84.6,81.5 C84.6,77.9 81.8,75 78.5,75 C75.2,75 72.4,77.9 72.4,81.5 C72.4,85.1 75.1,88 78.5,88 C81.8,88 84.6,85.1 84.6,81.5 Z M62.8,11.1 L75.4,70.1 L76.2,70.1 C76.2,69.9 76.2,69.6 76.2,69.4 C76.2,65.2 77.7,61.8 80.6,59.1 C81.1,58.6 81.5,58.1 80.9,56.6 C77.9,48.6 75,40.5 72,32.5 L64.7,12.9 L64.8,12.9 C64.4,12 63.8,10.4 62.8,7.6 L62.3,6.3 C62.2,6.6 62.2,6.8 62.2,7.1 C62.3,8.2 62.6,9.9 62.8,11.1 Z M24.3,126 L68.9,86.9 L68.5,86.1 C68.3,86.1 68.1,86.2 68,86.3 C64.4,88.3 60.7,88.5 57,87.1 C56.8,87.1 56.6,87 56.4,87 C56,87 55.6,87.2 54.9,88 C49.2,94.8 43.4,101.5 37.7,108.3 L20.4,128.7 C20.7,128.6 21,128.5 21.2,128.4 C22.1,127.8 23.4,126.8 24.3,126 Z M68,179.5 L90.2,179.5 L82.4,91.9 C81.2,92.4 79.9,92.7 78.5,92.7 C77.6,92.7 76.7,92.5 75.8,92.3 L68,179.5 Z M126.7,87 L154,83.4 C153.8,83.2 153.5,83.1 153.2,83 C152.1,82.8 150.5,82.7 149.3,82.6 L91.1,81.2 L90.9,82.2 C91.1,82.3 91.3,82.3 91.5,82.4 C95.5,83.4 98.4,85.7 100.2,89.3 C100.5,90 100.9,90.4 102.3,90.2 C110.4,89.1 118.6,88.1 126.7,87 Z M102,8.8 C100.8,8.4 100.1,7 100.6,5.7 C101,4.5 102.4,3.9 103.6,4.3 C118.2,9.4 131,18.9 140.5,31.6 C141.3,32.6 141,34.1 140,34.9 C139.6,35.2 139.1,35.4 138.6,35.4 C137.9,35.4 137.2,35.1 136.7,34.5 C127.8,22.5 115.8,13.6 102,8.8 Z M4.7,81.5 C4.7,90 6,98.3 8.6,106.2 C9,107.5 8.3,108.8 7.1,109.2 C6.9,109.3 6.6,109.3 6.4,109.3 C5.5,109.3 4.5,108.7 4.2,107.7 C1.4,99.3 3.55271368e-15,90.5 3.55271368e-15,81.5 C3.55271368e-15,57.6 10,35.1 27.6,19.6 C28.5,18.7 30,18.8 30.9,19.8 C31.8,20.7 31.7,22.2 30.7,23.1 C14.2,37.7 4.7,59 4.7,81.5 Z M59.9,160.5 C59.7,160.5 59.5,160.5 59.3,160.3 C47.2,157.1 35.8,150.9 26.4,142.2 C25.5,141.4 25.4,139.9 26.3,138.9 C27.1,138 28.6,137.9 29.6,138.8 C38.4,147 49.1,152.8 60.5,155.8 C61.8,156.2 62.5,157.4 62.2,158.7 C61.9,159.8 61,160.5 59.9,160.5 Z M149.4,110.2 C150.6,110.7 151.2,112.1 150.7,113.3 C143.5,130.8 130.6,145.3 114.2,154 C113.9,154.2 113.5,154.3 113.1,154.3 C112.2,154.3 111.4,153.8 111,153 C110.4,151.8 110.8,150.4 112,149.8 C127.4,141.6 139.5,128 146.3,111.5 C146.8,110.3 148.2,109.7 149.4,110.2 Z M95.6,23.6 C94.3,23.2 93.6,21.9 94,20.7 C94.4,19.5 95.8,18.8 97,19.2 C111.3,23.7 123.6,33.5 131.6,46.6 C132.3,47.7 131.9,49.1 130.8,49.8 C130.4,50 130,50.1 129.6,50.1 C128.8,50.1 128,49.7 127.6,49 C120.2,36.8 108.8,27.8 95.6,23.6 Z M15.9,89 C15.6,86.5 15.5,84 15.5,81.6 C15.5,63 23.1,45.3 36.5,32.9 C37.4,32 38.9,32 39.8,33 C40.7,33.9 40.6,35.4 39.7,36.3 C27.3,47.8 20.2,64.2 20.2,81.5 C20.2,83.8 20.3,86.2 20.6,88.5 C20.7,89.8 19.8,91 18.5,91.1 C18.4,91.1 18.3,91.1 18.2,91.1 C17.1,91.1 16,90.2 15.9,89 Z M59.7,143.7 C59.4,143.7 59.2,143.7 58.9,143.5 C50.6,140.7 43.1,136.2 36.5,130.1 C35.6,129.2 35.5,127.7 36.4,126.8 C37.3,125.9 38.8,125.8 39.7,126.7 C45.8,132.3 52.7,136.5 60.4,139.1 C61.6,139.5 62.3,140.9 61.9,142.1 C61.6,143.1 60.7,143.7 59.7,143.7 Z M137.9,102.9 C133.1,117.4 123.4,129.8 110.4,137.6 C110.1,137.9 109.6,138 109.2,138 C108.4,138 107.6,137.6 107.2,136.9 C106.6,135.7 106.9,134.3 108,133.6 C119.9,126.3 128.9,114.9 133.4,101.4 C133.8,100.2 135.1,99.5 136.4,99.9 C137.6,100.3 138.3,101.7 137.9,102.9 Z M120.7,179.5 C122,179.5 123.1,180.6 123.1,181.9 C123.1,183.2 122,184.3 120.7,184.3 L114.6,184.3 C113.3,184.3 112.2,183.2 112.2,181.9 C112.2,180.6 113.3,179.5 114.6,179.5 L120.7,179.5 Z"/>
</svg>
