<svg xmlns="http://www.w3.org/2000/svg" version="1.0" width="885.827" height="343.728"><path d="M0 343.728h885.827V0H0v343.728z" fill="#fff"/><path d="M8.837 334.417h867.76V9.022H8.837v325.395z" fill="#1f2569"/><path d="M747.993 195.39c-11.632-16.807-34.91-49.141-51.07-69.184 0 0-.66 52.377.635 69.185-4.529 0-9.046-.647-14.232 0 2.599-9.045 3.246-85.346.658-95.05 3.87 0 9.692.647 13.574 0 12.28 16.809 37.497 50.436 50.435 67.891 0-12.926.647-53.67-.646-67.89 5.175.646 9.056 1.293 14.232 0-1.941 11.632-3.235 83.416 0 95.049-3.882-.647-9.704-.647-13.586 0m-204.327-26.505c0 21.983-18.113 27.794-29.746 27.794-8.41 0-19.396-3.87-26.512-7.763 0-7.104.647-9.692 0-16.808 3.881 5.175 16.808 12.927 25.865 12.927 9.045 0 14.22-5.164 14.867-13.574.659-11.633-18.102-20.69-26.5-26.5-7.116-5.834-12.303-11.644-12.303-21.348 0-12.927 11.645-23.277 27.817-23.277 10.34 0 15.515 3.234 24.56 7.763-3.223 4.528-5.164 8.398-7.105 12.926-3.234-4.528-9.056-10.339-17.455-10.339-8.41 0-12.938 5.81-12.938 12.28 0 5.822 7.763 10.997 20.678 19.396 11.01 7.116 18.772 12.938 18.772 26.523m-75.01 26.504c-6.47-.646-13.574-.646-20.043 0-3.246-5.81-25.218-37.497-28.452-40.084l-1.294-9.057c12.926.647 21.983-5.175 21.983-18.749 0-10.997-9.692-16.82-20.042-16.82h-8.41c-.647 20.702 0 65.962 1.294 84.71-5.811 0-11.645-.646-17.455 0 1.94-15.513 1.94-78.887 0-95.049 16.16 1.294 12.28 0 26.511 0 13.574 0 32.981 4.529 32.981 25.218 0 16.808-14.232 26.512-21.348 26.512 1.294.635 29.111 38.145 34.275 43.32m-202.394-11.638c-.647 3.882-.647 8.399-.647 12.292-11.633-1.294-38.803-1.294-49.789 0 1.294-12.292 1.294-82.77 0-95.708 7.752 1.294 40.732 1.294 49.142 0v12.291c-8.41-.647-23.924-1.94-32.98-1.294 0 6.47-.647 18.102 0 29.088 9.056.659 21.994.659 31.04-1.294 0 4.529 0 8.41.646 12.292-10.985-1.294-21.336-1.294-31.687-.647-.646 7.116-.646 27.805-.646 34.263 9.056 0 25.217-.636 34.921-1.283m393.148-36.858c0 27.158-20.043 50.435-46.555 50.435-28.464 0-47.213-22.63-47.213-50.435 0-23.924 20.055-46.555 46.566-46.555 27.159 0 47.202 22.63 47.202 46.555zm-16.162.647c0-15.515-9.715-36.851-31.04-36.851-21.348 0-30.404 21.336-30.404 36.85 0 18.114 9.703 39.439 31.051 39.439 20.031 0 30.393-21.325 30.393-39.438M371.662 195.39c-4.528-.646-12.927 0-18.102 0-1.294-5.81-5.822-19.395-8.41-27.158-12.29-.647-24.57-.647-35.568 0-1.93 7.116-6.458 22.63-7.763 27.159h-14.867c5.175-9.704 31.687-82.77 34.274-94.403 5.823.647 10.35.647 15.515 0 3.234 12.927 30.393 85.358 34.921 94.403zM341.27 156.6c-3.87-11.645-10.986-31.04-14.22-40.097-3.235 9.056-9.057 27.805-13.586 40.096 7.116 1.294 21.348.636 27.806 0m-153.25-30.397c0 21.983-21.337 32.98-40.086 32.334-.647-3.235-.647-6.47-1.294-9.046 16.162-.647 26.512-7.763 26.512-21.995 0-10.985-9.703-19.395-21.983-19.395H140.17c0 18.749 0 69.184 1.294 87.945-5.822-1.294-10.997-1.294-16.82 0H124c1.305-9.704 2.587-86.651 0-97.649 16.82 1.294 14.232 0 28.452 0 14.88 0 35.569 5.822 35.569 27.806m252.263 117.574c-133.702 0-245.895 20.516-335.63 41.171v-1.64c11.182-4.62 145.982-54.849 335.619-54.906h-.012c189.625.057 324.413 50.285 335.595 54.906.012 0 0 1.64 0 1.64-89.7-20.655-201.928-41.17-335.607-41.17h.035" fill="#fff"/></svg>