<svg xmlns="http://www.w3.org/2000/svg" width="300" height="89"><path fill="#FFD370" fill-rule="evenodd" d="M269.57 56.565l4.905-2.855 10.812 6.293-4.904 2.853-10.813-6.291zm30.43-12l-10.813 6.29 5.909 3.438-4.905 2.855-10.813-6.293 15.718-9.146v-24l-10.813-6.29-20.62 11.998v12.584l5.907 3.44-4.905 2.853-5.906-3.438V20.564l25.524-14.856L300 14.856v29.708zm-9.809-5.709L264.667 53.71l-15.717-9.146V14.856L274.474 0l4.904 2.855-25.524 14.854v24.002l10.813 6.291 20.62-12V23.416l-5.909-3.436 4.905-2.855 5.908 3.438v18.292zM18.91 41.76h4.382l18.91 44.81h-6.385l-5.792-13.8H12.119l-5.794 13.8H0l18.91-44.81zm9.077 25.597L21.09 50.67l-7.033 16.687h13.931zm101.82-18.654a24.157 24.157 0 0 1 4.208 7.254c.991 2.69 1.495 5.451 1.495 8.21 0 3.003-.537 5.902-1.592 8.615-1.055 2.709-2.525 5.129-4.37 7.197a21.43 21.43 0 0 1-6.588 4.999c-2.549 1.252-5.35 1.888-8.332 1.888-3.105 0-5.985-.669-8.559-1.987a21.997 21.997 0 0 1-6.578-5.118c-1.824-2.09-3.256-4.527-4.251-7.243a24.226 24.226 0 0 1-1.494-8.352c0-2.963.535-5.842 1.592-8.56 1.054-2.704 2.522-5.133 4.364-7.22a21.162 21.162 0 0 1 6.626-5.035c2.57-1.25 5.38-1.885 8.359-1.885 3.108 0 5.99.679 8.568 2.02a21.614 21.614 0 0 1 6.552 5.217zm-15.179 32.455c2.247 0 4.293-.478 6.083-1.424a15.502 15.502 0 0 0 4.734-3.855 18.117 18.117 0 0 0 3.085-5.484 18.66 18.66 0 0 0 1.084-6.229 18.46 18.46 0 0 0-1.138-6.42c-.754-2.046-1.818-3.881-3.16-5.45a15.488 15.488 0 0 0-4.763-3.748c-1.795-.912-3.787-1.376-5.925-1.376-2.25 0-4.307.48-6.117 1.427a15.029 15.029 0 0 0-4.723 3.847 18.404 18.404 0 0 0-3.062 5.49 18.665 18.665 0 0 0-1.086 6.23c0 2.217.375 4.38 1.112 6.429.737 2.042 1.79 3.874 3.129 5.44a15.476 15.476 0 0 0 4.762 3.748c1.792.913 3.806 1.375 5.985 1.375zM81.29 48.703a24.204 24.204 0 0 1 4.206 7.252c.993 2.691 1.495 5.453 1.495 8.209 0 3.005-.536 5.904-1.591 8.618-1.055 2.708-2.525 5.128-4.37 7.197-.338.38-.702.731-1.066 1.085l7.073 4.641L81.377 89l-6.834-4.08c-.035.017-.067.039-.102.057-2.547 1.252-5.352 1.887-8.331 1.887-3.106 0-5.985-.668-8.56-1.988a21.984 21.984 0 0 1-6.577-5.116c-1.825-2.09-3.257-4.529-4.252-7.242a24.22 24.22 0 0 1-1.493-8.354c0-2.963.536-5.842 1.591-8.558 1.056-2.704 2.524-5.136 4.365-7.22a21.142 21.142 0 0 1 6.627-5.036c2.568-1.25 5.38-1.886 8.357-1.886 3.109 0 5.99.68 8.568 2.022a21.671 21.671 0 0 1 6.554 5.217zm-15.18-1.531c-2.25 0-4.308.48-6.118 1.426a15.049 15.049 0 0 0-4.723 3.845 18.414 18.414 0 0 0-3.061 5.492 18.662 18.662 0 0 0-1.086 6.229 18.9 18.9 0 0 0 1.113 6.43c.735 2.043 1.788 3.873 3.129 5.44a15.448 15.448 0 0 0 4.76 3.748c1.792.912 3.806 1.376 5.986 1.376 2.246 0 4.293-.479 6.083-1.425a15.476 15.476 0 0 0 4.733-3.856 18.091 18.091 0 0 0 3.085-5.483 18.665 18.665 0 0 0 1.086-6.23 18.5 18.5 0 0 0-1.138-6.418c-.755-2.046-1.818-3.88-3.162-5.451a15.467 15.467 0 0 0-4.763-3.748c-1.793-.913-3.787-1.375-5.924-1.375zm93.907 30.357l14.831-35.769h6.329l-18.848 44.808h-4.619L138.864 41.76h6.265l14.888 35.769zm28.375 9.04V41.82h5.895v44.75h-5.895zm35.087-44.511l18.782 44.51h-6.383l-5.79-13.799H212.18l-5.794 13.8h-6.323l18.908-44.81h4.382l.126.299zm4.57 25.298l-6.9-16.687-7.032 16.687h13.931z"/></svg>