<?xml version="1.0" standalone="no"?>
<!DOCTYPE svg PUBLIC "-//W3C//DTD SVG 20010904//EN"
 "http://www.w3.org/TR/2001/REC-SVG-20010904/DTD/svg10.dtd">
<svg version="1.0" xmlns="http://www.w3.org/2000/svg"
 width="700.000000pt" height="700.000000pt" viewBox="0 0 700.000000 700.000000"
 preserveAspectRatio="xMidYMid meet">
<metadata>
Created by potrace 1.14, written by Peter Selinger 2001-2017
</metadata>
<g transform="translate(0.000000,700.000000) scale(0.100000,-0.100000)"
fill="#000000" stroke="none">
<path d="M3435 6963 c-50 -29 -700 -405 -1225 -708 -69 -40 -184 -106 -257
-148 -72 -42 -149 -86 -170 -98 -21 -12 -94 -54 -163 -94 -165 -97 -885 -513
-930 -538 -19 -10 -40 -23 -45 -27 -7 -6 -11 -539 -10 -1661 l0 -1651 237
-138 c131 -76 245 -143 253 -150 8 -7 15 -10 15 -6 0 3 24 -9 53 -28 28 -18
74 -45 101 -60 26 -15 164 -94 305 -175 141 -82 272 -158 291 -168 19 -11 142
-82 273 -158 l237 -137 38 23 c20 12 55 32 77 44 22 13 195 113 385 222 190
110 372 215 405 233 33 18 67 39 76 46 8 8 18 14 21 14 3 0 83 45 178 100 95
55 175 100 177 100 2 0 16 8 31 19 15 10 167 98 337 196 171 98 351 202 400
230 50 29 232 135 405 235 173 100 320 186 325 191 7 7 10 362 10 1025 l0
1016 -80 44 c-44 25 -87 49 -95 54 -37 24 -483 280 -488 280 -3 0 -55 -29
-116 -64 -61 -35 -127 -73 -146 -84 -19 -11 -75 -43 -125 -72 -49 -29 -107
-62 -127 -73 l-38 -20 28 -17 c15 -9 151 -88 302 -175 151 -87 287 -166 302
-174 15 -9 28 -23 30 -31 3 -13 2 -1318 -1 -1375 -1 -13 -17 -28 -48 -45 -27
-14 -77 -42 -112 -64 -36 -21 -85 -50 -110 -64 -25 -14 -59 -34 -76 -44 -16
-10 -37 -21 -45 -25 -8 -4 -86 -49 -173 -100 -88 -51 -161 -93 -163 -93 -2 0
-36 -20 -76 -44 -57 -34 -458 -266 -695 -402 -113 -65 -578 -334 -680 -393
-68 -39 -128 -71 -134 -71 -6 0 -70 35 -142 77 -73 42 -141 81 -152 87 -11 6
-76 44 -145 84 -69 40 -271 157 -450 260 l-325 188 0 1333 0 1333 25 18 c21
14 535 312 667 386 23 13 93 54 155 90 62 37 131 77 153 89 22 12 213 122 425
245 212 122 401 232 420 243 19 10 107 61 195 112 88 51 176 102 195 112 19
11 58 34 86 50 27 17 70 41 95 55 24 14 105 60 179 103 74 43 163 95 197 114
35 20 63 39 63 42 0 4 -46 34 -102 67 -185 107 -438 252 -441 252 -1 -1 -29
-17 -62 -37z"/>
<path d="M4099 6075 c-272 -157 -501 -289 -509 -294 -8 -5 -111 -65 -229 -133
-264 -152 -250 -144 -456 -263 -93 -54 -269 -156 -390 -225 -121 -70 -292
-169 -380 -220 -88 -50 -212 -122 -275 -158 -63 -36 -117 -67 -120 -69 -3 -3
-5 -461 -5 -1020 l0 -1016 35 -22 c32 -20 444 -260 530 -307 19 -11 49 -29 67
-39 l32 -20 268 155 c147 85 269 158 270 163 1 4 -141 91 -317 192 -176 101
-323 188 -327 194 -7 12 -11 1385 -3 1397 3 4 122 75 265 157 248 143 471 271
690 398 193 112 670 388 703 406 131 75 186 107 327 189 88 51 178 103 200
115 22 13 60 34 84 48 l43 25 217 -125 c119 -69 241 -139 271 -155 30 -17 66
-38 80 -47 30 -19 4 -4 347 -201 155 -89 286 -167 291 -173 6 -9 9 -2602 3
-2664 0 -6 -83 -58 -183 -116 -101 -58 -199 -114 -218 -126 -19 -11 -73 -42
-120 -69 -47 -27 -159 -91 -250 -144 -347 -201 -677 -391 -720 -416 -25 -14
-76 -44 -115 -66 -38 -23 -87 -50 -107 -61 -21 -11 -38 -23 -38 -26 0 -6 211
-131 380 -227 19 -11 161 -93 315 -182 154 -89 331 -192 394 -228 l115 -66 45
26 c163 92 487 280 494 287 6 6 -204 133 -431 261 -198 112 -239 140 -202 140
6 0 36 16 66 35 30 19 56 35 58 35 2 0 71 39 153 86 81 48 164 96 183 106 57
33 498 287 588 340 45 26 87 48 92 48 6 0 10 3 10 8 0 4 10 12 23 17 l22 10 0
1655 0 1655 -190 112 c-104 61 -196 112 -202 112 -7 1 -13 6 -13 11 0 6 -4 10
-10 10 -5 0 -47 22 -92 49 -46 27 -101 59 -123 71 -22 12 -227 131 -455 263
-228 132 -433 250 -455 262 -22 13 -80 46 -128 74 -49 28 -92 51 -96 51 -4 0
-230 -128 -502 -285z"/>
<path d="M3370 943 c-69 -41 -134 -78 -145 -83 -11 -6 -27 -14 -35 -20 -50
-33 -224 -130 -233 -130 -19 -1 18 -25 202 -131 97 -55 183 -105 191 -110 8
-5 94 -54 190 -109 96 -55 182 -104 190 -109 8 -6 65 -38 125 -72 61 -35 151
-87 200 -117 50 -29 97 -54 105 -55 8 0 105 51 215 115 110 64 216 125 235
135 19 11 50 29 68 40 l33 20 -25 16 c-14 9 -41 26 -61 37 -20 11 -212 122
-428 246 -216 125 -408 236 -427 247 -19 10 -72 41 -117 68 -45 26 -99 57
-120 67 l-38 19 -125 -74z"/>
</g>
</svg>
