<svg xmlns="http://www.w3.org/2000/svg" width="300" height="86.219" version="1.0"><g style="fill:#000"><path style="fill:#000;fill-rule:nonzero" d="M0 0c0-11.25-14-10.583-14-10.583h-14V9.75h14C.417 9.833 0 0 0 0m-28 40.75h10.667c11.083-.584 10.666-8.833 10.666-8.833 0-10.25-12.25-10.417-12.25-10.417H-28v19.25zM-2.583 17.5S7 21.583 6.917 32.417c0 0 1.457 17.749-22.063 19.916H-41.25v-74.416h29.917s25-.084 25 21c0 0 .583 14.333-16.25 18.583m-67.545 49.416H39.75V-36.628H-70.128V66.916z" transform="matrix(.82302 0 0 -.82302 162.5 55.573)"/></g><g style="fill:#000"><path d="M0 0c0-11.25-14-10.583-14-10.583h-14V9.75h14C.417 9.833 0 0 0 0m-28 40.75h10.667c11.083-.584 10.666-8.833 10.666-8.833 0-10.25-12.25-10.417-12.25-10.417H-28v19.25zM-2.583 17.5S7 21.583 6.917 32.417c0 0 1.457 17.749-22.063 19.916H-41.25v-74.416h29.917s25-.084 25 21c0 0 .583 14.333-16.25 18.583m-67.545 49.416H39.75V-36.628H-70.128V66.916z" style="fill:#000;fill-rule:nonzero" transform="matrix(.82302 0 0 -.82302 58.217 55.573)"/></g><g style="fill:#000"><path d="M0 0v-13.75S-13.417-5.5-28.25-5.333c0 0-27.666.54-28.916-26.522 0 0-1-24.895 28.583-26.312 0 0 12.417-1.5 29.25 9.25v-14.25s-22.583-13.416-48.75-3.083c0 0-22 8.04-22.834 34.395 0 0-.917 27.105 28.417 36.105 0 0 7.834 3 21.917 1.667 0 0 8.416-.834 20.583-5.917m-87.461-83.627H22.417V19.917H-87.461V-83.627z" style="fill:#000;fill-rule:nonzero" transform="matrix(.82302 0 0 -.82302 281.05 16.892)"/></g></svg>