<svg xmlns="http://www.w3.org/2000/svg" width="291" height="50"><path fill="#003B65" fill-rule="evenodd" d="M11.685 15.007h1v28.256h4.836v5.733H.284v-5.733h4.552V20.509H0v-5.502h11.685ZM3.802 4.753C3.802 2.132 5.964 0 8.624 0s4.823 2.132 4.823 4.753c0 2.62-2.163 4.752-4.823 4.752-2.66 0-4.822-2.133-4.822-4.752Zm197.197 10.254h1v28.256h4.836v5.733h-17.238v-5.733h4.553V20.509h-4.837v-5.502H201Zm-7.884-10.254c0-2.621 2.164-4.753 4.823-4.753 2.658 0 4.822 2.132 4.822 4.753 0 2.62-2.164 4.752-4.822 4.752-2.66 0-4.823-2.133-4.823-4.752ZM33.085 20.309c.34.05 2.466-5.824 11.41-5.824 4.575 0 10.598 2.641 10.598 10.051v18.727h4.396v5.733H42.706l.034-5.733h4.512l-.008-16.21c0-4.898-4.985-6.694-5.948-6.694-6.228 0-8.211 5.638-8.211 8.516v14.388h4.68v5.733H20.557v-5.733h4.961V20.509h-4.814v-5.502h12.38v5.302Zm224.163 0c.34.05 2.467-5.824 11.41-5.824 4.576 0 10.6 2.641 10.6 10.051v18.727h4.395v5.733h-16.784l.035-5.733h4.513l-.008-16.21c0-4.898-4.986-6.694-5.95-6.694-6.226 0-8.21 5.638-8.21 8.516v14.388h4.679v5.733h-17.206v-5.733h4.961V20.509h-4.813v-5.502h12.378v5.302ZM65.608 6.92l7.564-3.036v11.122h8.493v5.786h-8.493v17.89c0 3.237 1.72 4.775 3.83 4.653 3.135-.181 4.096-.423 4.096-.423v5.478s-3.805.582-8.547.582c-5.656 0-6.944-5.413-6.944-7.991v-20.19h-5.866v-5.785h5.866V6.921Zm43.88 32.223h5.166v5.962c.001 0-5.628 4.274-13.8 4.274-14.175 0-16.968-10.568-16.968-17.934 0-11.08 7.134-17.652 16.51-17.652 10.559 0 15.367 9.434 15.367 19.217v.946H91.45c.039 6.674 4.004 9.962 9.157 9.962 4.076 0 7.238-1.732 8.883-4.775Zm-8.954-19.779c-8 0-8.85 6.214-8.85 8.925h16.699c0-3.674-2.173-8.925-7.85-8.925Zm42.847-4.358h1.001v5.774h-4.414c-6.257 0-7.56 7.968-7.56 12.523v9.959h5.829v5.733h-18.608v-5.733h5.781V20.509h-5.634v-5.502h12.118v6.158c2.247-3.165 3.557-6.158 7.323-6.158h4.164Zm39.677 0h1v5.502h-3.025c-.524.594-9.295 9.96-10.224 11.015.972 1.053 9.843 11.165 10.374 11.739h4.428v5.733h-16.578v-5.733h3.05c-1.562-1.645-5.62-6.42-6.537-7.387-.871.998-4.757 5.764-6.171 7.387h3.324v5.733h-15.718v-5.733h4.464c.53-.593 9.08-10.64 10.038-11.712-.97-1.044-9.59-10.48-10.114-11.042h-2.935v-5.502h15.738v5.502h-3.367c1.354 1.442 5.3 6.334 6.112 7.197.794-.875 4.403-5.763 5.702-7.197h-3.518v-5.502h13.957Zm25.305 17.006c0-10.226 6.604-17.935 16.864-17.935 10.222 0 17.08 7.709 17.08 17.935 0 10.225-6.888 17.934-17.148 17.934-10.222 0-16.796-7.71-16.796-17.934Zm7.976 0c0 5.658 3.63 11.907 8.82 11.907 5.228 0 9.17-6.249 9.17-11.907 0-5.66-3.942-11.912-9.17-11.912-5.19 0-8.82 6.252-8.82 11.912Zm63.743-16.515v-.635h4.566v.635h-1.905v5.084h-.756v-5.084h-1.905Zm6.257-.635 1.806 4.805 1.812-4.805H291v5.719h-.726v-4.758h-.016l-1.785 4.758h-.649l-1.785-4.758h-.015v4.758h-.727v-5.719h1.042Z"/></svg>