<svg xmlns="http://www.w3.org/2000/svg" width="200" height="100.195"><path d="M47.801 422.395c0-20.978 14.863-38.145 38.745-38.145 25.144 0 38.625 18.01 38.625 39.165 0 23.263-17.034 37.365-38.445 37.365-23.303 0-38.925-15.895-38.925-38.385zM48 492.645c0-3.57 2.002-6.152 6-6.152h65.272c3.448 0 5.728 2.733 5.728 6.092V592.65c0 17.061 9.714 36.904 39.696 36.904 29.199 0 44.304-18.169 44.304-55.264v-7.798l31 59 4 20s-30.415 29.404-85.542 29.404C131.097 674.897 48 670.408 48 579.493z" style="fill:#00beca;fill-opacity:1;stroke:none" transform="matrix(.34266 0 0 .34266 -15.94 -131.168)"/><path d="m244 645.493 31-80 10-10v14c0 33.674 16.336 59.582 58.607 59.582 38.543 0 65.674-21.835 65.674-55.719 0-17.222-8.337-30.888-8.337-30.888l43.723 21.832 3.833 53.193s-29.116 57.104-111.191 57.104c-64.09 0-93.309-29.104-93.309-29.104z" style="fill:#8c7b11;fill-opacity:1;stroke:none" transform="matrix(.34266 0 0 .34266 -15.94 -131.168)"/><path d="M244 645.493s-35-26.746-35-76.759v-143.24c0-11.519 7.432-21.5 38.42-21.5 33.864 0 37.58 13.181 37.58 23.07v59.43h60c4.33 0 6 2.53 6 6.54v35.46c0 3.352-1.368 6-5.304 6H306c-10.294 0-21-4-21-4v24c0 29.924-7.733 60.49-41 91z" style="fill:#000;fill-opacity:1;stroke:none" transform="matrix(.34266 0 0 .34266 -15.94 -131.168)"/><path d="m448.5 617.493 9.527-104.675 4.305-18.215s19.014 27.722 67.453 116.903c30.764-55.936 50.383-122.777 50.383-122.777 1.377-4.569 5.025-5.675 10.306-4.283l33.207 10.263c4.031 1.439 6.219 3.031 3.948 10.528-27.62 80.38-70.871 146.685-70.871 146.685-8.327 12.34-16.81 22.817-44.912 22.817-22.673 0-30.57-7.722-38.466-19.509z" style="fill:#ffab00;fill-opacity:1;stroke:none" transform="matrix(.34266 0 0 .34266 -15.94 -131.168)"/><path d="m448.5 617.493-51.768-81.571c-3.107-5.814-5.475-9.34-5.475-16.245.04-10.15 5.314-17.487 23.196-28.691 3.864-2.54 17.79-8.075 29.075-8.075 15.217 0 26.57 15.75 26.57 48.702 0 53.615-21.598 85.88-21.598 85.88z" style="fill:#c80063;fill-opacity:1;stroke:none" transform="matrix(.34266 0 0 .34266 -15.94 -131.168)"/></svg>