<svg xmlns="http://www.w3.org/2000/svg" version="1.0" width="885.827" height="343.728"><path d="M977.05 191.928h885.827V-151.8H977.05v343.728z" style="fill:#fff;fill-opacity:1;fill-rule:nonzero;stroke:none" transform="translate(-977.05 151.8)"/><path d="M985.887 182.617h867.76v-325.395h-867.76v325.395z" style="fill:#1f2569;fill-opacity:1;fill-rule:nonzero;stroke:none" transform="translate(-977.05 151.8)"/><path d="M1725.043 43.59c-11.632-16.807-34.91-49.141-51.07-69.184 0 0-.66 52.377.635 69.185-4.529 0-9.046-.647-14.232 0 2.599-9.045 3.246-85.346.658-95.05 3.87 0 9.692.647 13.574 0 12.28 16.808 37.497 50.436 50.435 67.891 0-12.927.647-53.67-.647-67.89 5.176.646 9.057 1.293 14.232 0-1.94 11.632-3.234 83.416 0 95.049-3.88-.647-9.703-.647-13.585 0M1520.716 17.086c0 21.983-18.113 27.794-29.746 27.794-8.41 0-19.396-3.87-26.512-7.763 0-7.105.647-9.692 0-16.808 3.881 5.175 16.808 12.926 25.865 12.926 9.045 0 14.22-5.163 14.867-13.573.659-11.633-18.102-20.69-26.5-26.5-7.116-5.834-12.303-11.645-12.303-21.348 0-12.927 11.645-23.277 27.817-23.277 10.34 0 15.515 3.234 24.56 7.762-3.223 4.529-5.164 8.399-7.105 12.927-3.234-4.528-9.056-10.339-17.455-10.339-8.41 0-12.938 5.81-12.938 12.28 0 5.822 7.763 10.997 20.678 19.396 11.009 7.116 18.772 12.938 18.772 26.523M1445.706 43.59c-6.47-.646-13.574-.646-20.043 0-3.246-5.81-25.218-37.497-28.452-40.085l-1.294-9.056c12.926.647 21.983-5.176 21.983-18.75 0-10.997-9.692-16.819-20.042-16.819h-8.41c-.647 20.701 0 65.962 1.294 84.71-5.811 0-11.645-.646-17.455 0 1.94-15.514 1.94-78.888 0-95.049 16.16 1.294 12.28 0 26.511 0 13.574 0 32.981 4.529 32.981 25.218 0 16.808-14.232 26.512-21.348 26.512 1.294.635 29.111 38.144 34.275 43.32M1243.312 31.953c-.647 3.882-.647 8.399-.647 12.292-11.633-1.294-38.803-1.294-49.789 0 1.294-12.292 1.294-82.77 0-95.708 7.751 1.293 40.732 1.293 49.142 0v12.29c-8.41-.646-23.924-1.94-32.98-1.293 0 6.47-.648 18.102 0 29.088 9.056.658 21.994.658 31.04-1.294 0 4.528 0 8.41.646 12.291-10.986-1.293-21.336-1.293-31.687-.647-.647 7.116-.647 27.806-.647 34.264 9.057 0 25.218-.636 34.922-1.283M1636.46-4.906c0 27.16-20.043 50.436-46.555 50.436-28.464 0-47.213-22.63-47.213-50.436 0-23.924 20.054-46.554 46.566-46.554 27.159 0 47.202 22.63 47.202 46.554zm-16.162.647c0-15.514-9.715-36.85-31.04-36.85-21.348 0-30.405 21.336-30.405 36.85 0 18.114 9.704 39.439 31.052 39.439 20.031 0 30.393-21.325 30.393-39.439M1348.712 43.59c-4.528-.646-12.927 0-18.102 0-1.294-5.81-5.822-19.395-8.41-27.158-12.29-.647-24.57-.647-35.568 0-1.93 7.116-6.458 22.63-7.763 27.159h-14.867c5.175-9.704 31.687-82.77 34.274-94.403 5.822.647 10.35.647 15.515 0 3.234 12.927 30.393 85.358 34.921 94.403zM1318.32 4.8c-3.87-11.645-10.986-31.04-14.22-40.098-3.235 9.057-9.057 27.806-13.586 40.097 7.116 1.294 21.348.636 27.806 0M1165.07-25.599c0 21.984-21.337 32.981-40.086 32.334-.647-3.234-.647-6.469-1.294-9.045 16.162-.647 26.512-7.763 26.512-21.995 0-10.986-9.703-19.395-21.983-19.395h-10.998c0 18.748 0 69.184 1.294 87.945-5.822-1.294-10.997-1.294-16.82 0h-.646c1.305-9.704 2.587-86.652 0-97.65 16.82 1.295 14.232 0 28.452 0 14.879 0 35.569 5.823 35.569 27.806M1417.334 91.976c-133.702 0-245.895 20.516-335.63 41.171v-1.64c11.182-4.621 145.982-54.849 335.619-54.907h-.013c189.626.058 324.414 50.286 335.596 54.907.012 0 0 1.64 0 1.64-89.7-20.655-201.928-41.171-335.607-41.171h.035" style="fill:#fff;fill-opacity:1;fill-rule:nonzero;stroke:none" transform="translate(-977.05 151.8)"/></svg>