<svg xmlns="http://www.w3.org/2000/svg" width="291" height="50" viewBox="0 0 291 50">
  <path fill="#003B65" fill-rule="evenodd" d="M11.6847954,15.0074528 L12.6856922,15.0074528 L12.6856922,43.2625399 L17.5211937,43.2625399 L17.5211937,48.9959489 L0.283970725,48.9959489 L0.283970725,43.2625399 L4.83550149,43.2625399 L4.83550149,20.5088857 L0,20.5088857 L0,15.0074528 L11.6847954,15.0074528 Z M3.80160808,4.75251005 C3.80160808,2.13178023 5.96438511,0 8.62411092,0 C11.2838367,0 13.4466138,2.13178023 13.4466138,4.75251005 C13.4466138,7.37223998 11.2838367,9.5050201 8.62411092,9.5050201 C5.96438511,9.5050201 3.80160808,7.37223998 3.80160808,4.75251005 Z M200.999278,15.0074528 L201.999175,15.0074528 L201.999175,43.2625399 L206.834677,43.2625399 L206.834677,48.9959489 L189.597454,48.9959489 L189.597454,43.2625399 L194.149985,43.2625399 L194.149985,20.5088857 L189.313483,20.5088857 L189.313483,15.0074528 L200.999278,15.0074528 Z M193.115091,4.75251005 C193.115091,2.13178023 195.278868,0 197.937594,0 C200.59632,0 202.760097,2.13178023 202.760097,4.75251005 C202.760097,7.37223998 200.59632,9.5050201 197.937594,9.5050201 C195.278868,9.5050201 193.115091,7.37223998 193.115091,4.75251005 Z M33.0845892,20.3089063 C33.4245542,20.3589011 35.5513349,14.4845068 44.4944129,14.4845068 C49.0699412,14.4845068 55.0933203,17.1262344 55.0933203,24.5364705 L55.0933203,43.2625399 L59.4888671,43.2625399 L59.4888671,48.9959489 L42.7055974,48.9959489 L42.7395939,43.2625399 L47.2521286,43.2625399 L47.2441295,27.053211 C47.2441295,22.154716 42.2586434,20.3589011 41.2957427,20.3589011 C35.0683847,20.3589011 33.0845892,25.9973199 33.0845892,28.8750232 L33.0845892,43.2625399 L37.7641068,43.2625399 L37.7641068,48.9959489 L20.5578806,48.9959489 L20.5578806,43.2625399 L25.5193691,43.2625399 L25.5193691,20.5088857 L20.7048655,20.5088857 L20.7048655,15.0074528 L33.0845892,15.0074528 L33.0845892,20.3089063 Z M257.24848,20.3089063 C257.588444,20.3589011 259.715225,14.4845068 268.658303,14.4845068 C273.233832,14.4845068 279.25821,17.1262344 279.25821,24.5364705 L279.25821,43.2625399 L283.652757,43.2625399 L283.652757,48.9959489 L266.869488,48.9959489 L266.904484,43.2625399 L271.417019,43.2625399 L271.40902,27.053211 C271.40902,22.154716 266.422534,20.3589011 265.459633,20.3589011 C259.233275,20.3589011 257.24848,25.9973199 257.24848,28.8750232 L257.24848,43.2625399 L261.927997,43.2625399 L261.927997,48.9959489 L244.721771,48.9959489 L244.721771,43.2625399 L249.683259,43.2625399 L249.683259,20.5088857 L244.869756,20.5088857 L244.869756,15.0074528 L257.24848,15.0074528 L257.24848,20.3089063 Z M65.6072364,6.92128647 L73.1724564,3.88459953 L73.1724564,15.0074528 L81.664581,15.0074528 L81.664581,20.7928564 L73.1724564,20.7928564 L73.1724564,38.6830121 C73.1724564,41.9196784 74.8922791,43.4575198 77.0020616,43.3355324 C80.1367385,43.1545511 81.0976394,42.912576 81.0976394,42.912576 L81.0976394,48.3910112 C81.0976394,48.3910112 77.2930316,48.9729512 72.5505206,48.9729512 C66.8951036,48.9729512 65.6072364,43.5595093 65.6072364,40.9817751 L65.6072364,20.7928564 L59.7408412,20.7928564 L59.7408412,15.0074528 L65.6072364,15.0074528 L65.6072364,6.92128647 Z M109.488713,39.1439645 L114.65418,39.1439645 L114.65418,45.1063499 C114.65518,45.1063499 109.02576,49.3799093 100.853603,49.3799093 C86.679064,49.3799093 83.8863519,38.8119988 83.8863519,31.4457582 C83.8863519,20.3669003 91.0196165,13.793578 100.39665,13.793578 C110.954561,13.793578 115.763066,23.2276054 115.763066,33.0105968 L115.763066,33.9574992 L91.4485723,33.9574992 C91.4875683,40.6308113 95.4531595,43.9194722 100.605628,43.9194722 C104.682208,43.9194722 107.843882,42.1866509 109.488713,39.1439645 Z M100.533636,19.3650036 C92.5344604,19.3650036 91.6835481,25.579363 91.6835481,28.2900835 L108.382827,28.2900835 C108.382827,24.6164622 106.210051,19.3650036 100.533636,19.3650036 Z M143.381218,15.0074528 L144.382115,15.0074528 L144.382115,20.7808576 L139.96757,20.7808576 C133.711215,20.7808576 132.40835,28.7490362 132.40835,33.3035666 L132.40835,43.2625399 L138.236749,43.2625399 L138.236749,48.9959489 L119.628667,48.9959489 L119.628667,43.2625399 L125.410071,43.2625399 L125.410071,20.5088857 L119.775652,20.5088857 L119.775652,15.0074528 L131.894403,15.0074528 L131.894403,21.1648181 C134.141171,18.0001443 135.451036,15.0074528 139.216648,15.0074528 L143.381218,15.0074528 Z M183.058128,15.0074528 L184.058025,15.0074528 L184.058025,20.5088857 L181.033337,20.5088857 C180.509391,21.1028245 171.738295,30.4698588 170.809391,31.5237501 C171.781291,32.5766416 180.652376,42.6885991 181.183321,43.2625399 L185.610865,43.2625399 L185.610865,48.9959489 L169.032574,48.9959489 L169.032574,43.2625399 L172.08226,43.2625399 C170.52142,41.6177095 166.462839,36.8432017 165.545933,35.8763014 C164.675023,36.8741985 160.789424,41.6397072 159.37457,43.2625399 L162.699227,43.2625399 L162.699227,48.9959489 L146.980847,48.9959489 L146.980847,43.2625399 L151.445387,43.2625399 C151.974333,42.6696011 160.525451,32.6236367 161.483352,31.5507473 C160.512452,30.506855 151.893341,21.0718276 151.369395,20.5088857 L148.433698,20.5088857 L148.433698,15.0074528 L164.172075,15.0074528 L164.172075,20.5088857 L160.805422,20.5088857 C162.159283,21.950737 166.104876,26.8432327 166.916792,27.7061437 C167.71071,26.8312339 171.320338,21.9427379 172.619204,20.5088857 L169.100567,20.5088857 L169.100567,15.0074528 L183.058128,15.0074528 Z M208.362519,32.0126997 C208.362519,21.7867539 214.966838,14.0775487 225.226781,14.0775487 C235.448727,14.0775487 242.30702,21.7867539 242.30702,32.0126997 C242.30702,42.2376456 235.41873,49.9468508 225.158788,49.9468508 C214.936842,49.9468508 208.362519,42.2376456 208.362519,32.0126997 Z M216.338697,32.0126997 C216.338697,37.6711164 219.969323,43.9204721 225.158788,43.9204721 C230.387249,43.9204721 234.329842,37.6711164 234.329842,32.0126997 C234.329842,26.3532832 230.387249,20.1009277 225.158788,20.1009277 C219.969323,20.1009277 216.338697,26.3532832 216.338697,32.0126997 Z M280.082126,15.4984022 L280.082126,14.8634677 L284.647655,14.8634677 L284.647655,15.4984022 L282.742851,15.4984022 L282.742851,20.5818782 L281.986929,20.5818782 L281.986929,15.4984022 L280.082126,15.4984022 Z M286.33948,14.8634677 L288.145294,19.6679724 L289.957108,14.8634677 L291,14.8634677 L291,20.5818782 L290.274075,20.5818782 L290.274075,15.8243686 L290.258076,15.8243686 L288.47326,20.5818782 L287.824327,20.5818782 L286.038511,15.8243686 L286.023513,15.8243686 L286.023513,20.5818782 L285.296588,20.5818782 L285.296588,14.8634677 L286.33948,14.8634677 Z"/>
</svg>
