<?xml version="1.0" encoding="UTF-8" standalone="no"?>
<!-- Created with Inkscape (http://www.inkscape.org/) -->

<svg
   xmlns:dc="http://purl.org/dc/elements/1.1/"
   xmlns:cc="http://creativecommons.org/ns#"
   xmlns:rdf="http://www.w3.org/1999/02/22-rdf-syntax-ns#"
   xmlns:svg="http://www.w3.org/2000/svg"
   xmlns="http://www.w3.org/2000/svg"
   xmlns:sodipodi="http://sodipodi.sourceforge.net/DTD/sodipodi-0.dtd"
   xmlns:inkscape="http://www.inkscape.org/namespaces/inkscape"
   version="1.0"
   width="885.82672"
   height="343.72833"
   id="svg2"
   inkscape:version="0.91 r13725"
   sodipodi:docname="Pearson_Logo.svg">
  <metadata
     id="metadata18">
    <rdf:RDF>
      <cc:Work
         rdf:about="">
        <dc:format>image/svg+xml</dc:format>
        <dc:type
           rdf:resource="http://purl.org/dc/dcmitype/StillImage" />
        <dc:title></dc:title>
      </cc:Work>
    </rdf:RDF>
  </metadata>
  <sodipodi:namedview
     pagecolor="#ffffff"
     bordercolor="#666666"
     borderopacity="1"
     objecttolerance="10"
     gridtolerance="10"
     guidetolerance="10"
     inkscape:pageopacity="0"
     inkscape:pageshadow="2"
     inkscape:window-width="1366"
     inkscape:window-height="705"
     id="namedview16"
     showgrid="false"
     fit-margin-top="0"
     fit-margin-left="0"
     fit-margin-right="0"
     fit-margin-bottom="0"
     inkscape:zoom="0.36584364"
     inkscape:cx="442.91337"
     inkscape:cy="171.86417"
     inkscape:window-x="-8"
     inkscape:window-y="-8"
     inkscape:window-maximized="1"
     inkscape:current-layer="svg2" />
  <defs
     id="defs4" />
  <g
     transform="translate(-1012.483,116.3809)"
     id="layer1">
    <g
       transform="translate(35.433066,35.419298)"
       id="g3115">
      <path
         d="m 977.04996,191.92813 885.82674,0 0,-343.72833 -885.82674,0 0,343.72833 z"
         id="path2824"
         style="fill:#ffffff;fill-opacity:1;fill-rule:nonzero;stroke:none"
         inkscape:connector-curvature="0" />
      <path
         d="m 985.8872,182.61726 867.7595,0 0,-325.39538 -867.7595,0 0,325.39538 z"
         id="path2826"
         style="fill:#1f2569;fill-opacity:1;fill-rule:nonzero;stroke:none"
         inkscape:connector-curvature="0" />
      <path
         d="m 1725.0434,43.590716 c -11.6328,-16.80809 -34.91,-49.1420096 -51.0711,-69.18464 0,0 -0.6585,52.37655 0.6353,69.18464 -4.5284,0 -9.0452,-0.64691 -14.232,0 2.5992,-9.04518 3.2461,-85.34582 0.6585,-95.04946 3.8699,0 9.6921,0.64691 13.5735,0 12.2797,16.80809 37.4976,50.4358204 50.4358,67.89082 0,-12.9266396 0.6469,-53.67037 -0.6469,-67.89082 5.1753,0.64691 9.0568,1.29382 14.232,0 -1.9407,11.63281 -3.2345,83.41664 0,95.04946 -3.8814,-0.64691 -9.7036,-0.64691 -13.5851,0"
         id="path2830"
         style="fill:#ffffff;fill-opacity:1;fill-rule:nonzero;stroke:none"
         inkscape:connector-curvature="0" />
      <path
         d="m 1520.7159,17.085826 c 0,21.98336 -18.1134,27.79399 -29.7462,27.79399 -8.4099,0 -19.3958,-3.8699 -26.5118,-7.76291 0,-7.10445 0.6469,-9.69209 0,-16.80809 3.8815,5.17528 16.8081,12.92664 25.8648,12.92664 9.0452,0 14.2205,-5.16373 14.8674,-13.57355 0.6585,-11.6328096 -18.1019,-20.6895396 -26.5002,-26.5001796 -7.116,-5.8337304 -12.3028,-11.6443604 -12.3028,-21.3480004 0,-12.92664 11.6444,-23.27719 27.8171,-23.27719 10.339,0 15.5143,3.23455 24.5594,7.76292 -3.2229,4.52836 -5.1637,8.39827 -7.1044,12.92663 -3.2345,-4.52836 -9.0567,-10.339 -17.455,-10.339 -8.4098,0 -12.9382,5.81064 -12.9382,12.27973 0,5.82218 7.7629,10.99746 20.678,19.3957304 11.009,7.116 18.7719,12.93818 18.7719,26.5232796"
         id="path2834"
         style="fill:#ffffff;fill-opacity:1;fill-rule:nonzero;stroke:none"
         inkscape:connector-curvature="0" />
      <path
         d="m 1445.7057,43.590716 c -6.4691,-0.64691 -13.5736,-0.64691 -20.0427,0 -3.246,-5.81063 -25.2179,-37.4976396 -28.4524,-40.0852796 l -1.2938,-9.05673 c 12.9266,0.64691 21.9833,-5.1752704 21.9833,-18.7488104 0,-10.99746 -9.6921,-16.81965 -20.0426,-16.81965 -3.2345,0 -5.8222,0 -8.4098,0 -0.6469,20.7011 0,65.96165 1.2938,84.71047 -5.8106,0 -11.6444,-0.64691 -17.455,0 1.9407,-15.51427 1.9407,-78.88828 0,-95.04946 16.1612,1.29382 12.2797,0 26.5117,0 13.5736,0 32.9809,4.52836 32.9809,25.21791 0,16.8080904 -14.2321,26.5117304 -21.3481,26.5117304 1.2939,0.63536 29.111,38.1445396 34.2747,43.3198196"
         id="path2838"
         style="fill:#ffffff;fill-opacity:1;fill-rule:nonzero;stroke:none"
         inkscape:connector-curvature="0" />
      <path
         d="m 1243.312,31.953276 c -0.6469,3.88146 -0.6469,8.39827 -0.6469,12.29128 -11.6328,-1.29382 -38.803,-1.29382 -49.7889,0 1.2938,-12.29128 1.2938,-82.76974 0,-95.70792 7.7513,1.29382 40.7322,1.29382 49.142,0 0,4.52836 0,8.40982 0,12.29127 -8.4098,-0.64691 -23.9241,-1.94072 -32.9808,-1.29381 0,6.46909 -0.6469,18.1019 0,29.08781 9.0567,0.65846 21.9949,0.65846 31.0401,-1.29382 0,4.5283704 0,8.4098204 0.6469,12.2912804 -10.9859,-1.29382 -21.3365,-1.29382 -31.687,-0.64691 -0.6469,7.116 -0.6469,27.8055496 -0.6469,34.2630896 9.0567,0 25.2179,-0.63536 34.9215,-1.28227"
         id="path2842"
         style="fill:#ffffff;fill-opacity:1;fill-rule:nonzero;stroke:none"
         inkscape:connector-curvature="0" />
      <path
         d="m 1636.4596,-4.9055836 c 0,27.1586396 -20.0427,50.4358196 -46.5544,50.4358196 -28.464,0 -47.2128,-22.63027 -47.2128,-50.4358196 0,-23.9240904 20.0541,-46.5543604 46.5659,-46.5543604 27.1586,0 47.2013,22.63027 47.2013,46.5543604 z m -16.1612,0.64691 c 0,-15.5142704 -9.7152,-36.8507204 -31.0401,-36.8507204 -21.348,0 -30.4048,21.33645 -30.4048,36.8507204 0,18.1134596 9.7037,39.4383696 31.0517,39.4383696 20.0311,0 30.3932,-21.32491 30.3932,-39.4383696"
         id="path2846"
         style="fill:#ffffff;fill-opacity:1;fill-rule:nonzero;stroke:none"
         inkscape:connector-curvature="0" />
      <path
         d="m 1348.7121,43.590716 c -4.5284,-0.64691 -12.9267,0 -18.1019,0 -1.2938,-5.81063 -5.8222,-19.39573 -8.4098,-27.15864 -12.2913,-0.64691 -24.571,-0.64691 -35.5685,0 -1.9292,7.116 -6.4575,22.63027 -7.7629,27.15864 -3.223,0 -10.9859,0 -14.8674,0 5.1753,-9.70364 31.687,-82.76974 34.2747,-94.40255 5.8222,0.64691 10.3505,0.64691 15.5143,0 3.2345,12.92663 30.3931,85.35737 34.9215,94.40255 z M 1318.3189,4.7992564 c -3.8699,-11.64436 -10.9859,-31.0400904 -14.2204,-40.0968204 -3.2346,9.05673 -9.0568,27.8055504 -13.5851,40.0968204 7.116,1.29382 21.348,0.63536 27.8055,0"
         id="path2850"
         style="fill:#ffffff;fill-opacity:1;fill-rule:nonzero;stroke:none"
         inkscape:connector-curvature="0" />
      <path
         d="m 1165.0695,-25.598544 c 0,21.9833604 -21.3364,32.9808204 -40.0852,32.3339104 -0.647,-3.23455 -0.647,-6.46909 -1.2939,-9.04518 16.1612,-0.64691 26.5118,-7.7629104 26.5118,-21.9949104 0,-10.98591 -9.7037,-19.39573 -21.9834,-19.39573 -0.6469,0 -5.1868,0 -10.9975,0 0,18.74882 0,69.18464 1.2939,87.94501 -5.8222,-1.29382 -10.9975,-1.29382 -16.8197,0 l -0.6469,0 c 1.3054,-9.70364 2.5876,-86.65119 0,-97.64865 16.8196,1.29382 14.232,0 28.4525,0 14.8789,0 35.5684,5.82218 35.5684,27.80555"
         id="path2854"
         style="fill:#ffffff;fill-opacity:1;fill-rule:nonzero;stroke:none"
         inkscape:connector-curvature="0" />
      <path
         d="m 1417.3341,91.976016 c -133.7023,0 -245.8948,20.516274 -335.6304,41.171164 l 0,-1.64038 c 11.1823,-4.62078 145.982,-54.848674 335.6188,-54.906434 l -0.012,0 c 189.6253,0.05776 324.4135,50.285654 335.5957,54.906434 0.012,0 0,1.64038 0,1.64038 -89.7009,-20.65489 -201.9281,-41.171164 -335.6073,-41.171164 l 0.035,0"
         id="path2858"
         style="fill:#ffffff;fill-opacity:1;fill-rule:nonzero;stroke:none"
         inkscape:connector-curvature="0" />
    </g>
  </g>
</svg>
