<svg xmlns="http://www.w3.org/2000/svg" height="200" width="200"><path fill="#FCBF00" d="M171.985 139.715c.333 6.932-4.987 12.834-11.914 13.218h-38.125v4.767h9.531c5.264 0 9.531 4.268 9.531 9.534v2.383a2.383 2.383 0 0 1-2.382 2.383H62.375a2.383 2.383 0 0 1-2.383-2.383v-2.383c0-5.266 4.267-9.534 9.531-9.534h9.531v-4.767H40.93c-6.927-.384-12.247-6.286-11.914-13.218v-97.5c-.332-6.93 4.988-12.83 11.914-13.215h119.142c6.926.385 12.246 6.285 11.914 13.216v97.5Zm-40.508 22.752H69.523a4.766 4.766 0 0 0-4.766 4.767h71.486a4.766 4.766 0 0 0-4.766-4.767ZM83.82 157.7h33.36v-4.767H83.82v4.767Zm76.25-9.533a7.893 7.893 0 0 0 7.15-8.451v-5.849H33.78v5.849a7.893 7.893 0 0 0 7.15 8.451h119.14Zm7.15-105.951a7.89 7.89 0 0 0-7.149-8.45H40.93a7.89 7.89 0 0 0-7.148 8.45V129.1h133.438V42.216ZM62.374 90.966c9.207.011 16.669 7.475 16.68 16.684 0 9.214-7.469 16.683-16.68 16.683-9.212 0-16.68-7.47-16.68-16.683 0-9.214 7.468-16.683 16.68-16.683ZM50.46 107.65c.012 1.344.254 2.676.715 3.937l8.817-5.288V95.972a11.937 11.937 0 0 0-9.532 11.678Zm3.17 8.024a11.798 11.798 0 0 0 15.305 1.905l-6.93-6.93-8.374 5.025Zm18.674-1.465a11.898 11.898 0 0 0-7.547-18.237v10.691l7.547 7.546ZM157.688 71.9a2.383 2.383 0 0 1 0 4.767h-54.805a7.15 7.15 0 0 1-7.148-7.15v-28.6a2.383 2.383 0 1 1 4.765 0v28.6a2.383 2.383 0 0 0 2.383 2.383h2.382V45.683a4.766 4.766 0 0 1 4.766-4.766h4.766a4.766 4.766 0 0 1 4.766 4.766V71.9h4.765V56.957a4.128 4.128 0 0 1 4.122-4.124h6.053a4.128 4.128 0 0 1 4.122 4.124V71.9h4.766v-8.158a3.76 3.76 0 0 1 3.758-3.759h6.781a3.76 3.76 0 0 1 3.758 3.759V71.9Zm-42.891 0V45.683h-4.766V71.9h4.766Zm19.063 0V57.6h-4.766v14.3h4.766Zm19.062 0v-7.15h-4.765v7.15h4.765Zm4.766 47.667a2.383 2.383 0 0 1 0 4.767h-54.805a7.15 7.15 0 0 1-7.148-7.15v-28.6a2.383 2.383 0 1 1 4.765 0v18.08l4.477-4.479a7.321 7.321 0 0 1 10.11 0l2.79 2.794c.931.93 2.44.93 3.37 0l9.941-9.944a7.319 7.319 0 0 1 10.108 0l2.793 2.794c.93.93 2.439.93 3.37 0l8.544-8.545a2.382 2.382 0 0 1 3.37 3.37l-8.545 8.547a7.161 7.161 0 0 1-10.108 0l-2.793-2.796a2.432 2.432 0 0 0-3.37 0l-9.94 9.944a7.147 7.147 0 0 1-10.108 0l-2.793-2.794a2.432 2.432 0 0 0-3.37 0l-7.846 7.849v3.78a2.383 2.383 0 0 0 2.383 2.383h54.805Zm-81.016-57.2a2.383 2.383 0 0 1 2.383 2.383v18.19a3.303 3.303 0 0 1-3.336 3.26H49.03a3.296 3.296 0 0 1-3.336-3.253V64.75a2.383 2.383 0 1 1 4.765 0v16.683H74.29V64.75a2.383 2.383 0 0 1 2.383-2.383ZM64.655 39.38l18.371 16.445a2.384 2.384 0 1 1-3.178 3.55L62.374 43.733 44.901 59.376a2.382 2.382 0 0 1-3.179-3.551l3.973-3.556v-5.394a2.383 2.383 0 1 1 4.765 0V48l9.591-8.585a3.512 3.512 0 0 1 4.604-.035Z"/></svg>