<svg height="2048" style="shape-rendering:geometricPrecision;text-rendering:geometricPrecision;image-rendering:optimizeQuality;fill-rule:evenodd;clip-rule:evenodd" width="2048" xml:space="preserve" xmlns="http://www.w3.org/2000/svg"><defs><style>.fil0{fill:none}.fil1{fill:#212121;fill-rule:nonzero}</style></defs><g id="Layer_x0020_1"><g id="_392722200"><path class="fil0" id="_392720208" d="M0 0h2048v2048H0z"/><path class="fil0" id="_392719272" d="M255.999 255.999h1536v1536h-1536z"/></g><path class="fil1" d="M1536.67 1312H511.34v191.999h1025.33V1312zm-1041.04-64.002h1056.74c15.494 0 28.754 7.796 37.647 20.39 6.577 9.314 10.65 21.616 10.65 34.69v209.843c0 13.064-4.074 25.369-10.654 34.688-8.89 12.592-22.146 20.392-37.643 20.392H495.63c-15.495 0-28.75-7.803-37.642-20.395-6.578-9.314-10.656-21.62-10.656-34.685v-209.843c0-13.074 4.076-25.375 10.653-34.688 8.894-12.595 22.154-20.392 37.645-20.392zM576 1760h896v64H576z"/><path class="fil1" d="M1056 1600v192h-64.001v-192zM544.001 1376h128v64h-128zM1536.67 960.001H511.34V1152h1025.33V960.001zM495.63 895.999h1056.74c15.494 0 28.754 7.796 37.647 20.39 6.576 9.313 10.65 21.615 10.65 34.69v209.843c0 13.062-4.074 25.369-10.654 34.688-8.89 12.587-22.143 20.392-37.643 20.392H495.63c-15.495 0-28.75-7.803-37.642-20.395-6.578-9.316-10.656-21.623-10.656-34.685V951.079c0-13.075 4.076-25.375 10.653-34.688C466.879 903.796 480.139 896 495.63 896z"/><path class="fil1" d="M544.001 1024h128v64h-128zM1536.67 608.001H511.34V800h1025.33V608.001zM495.63 543.999h1056.74c15.494 0 28.754 7.796 37.647 20.39 6.576 9.313 10.65 21.615 10.65 34.69v209.843c0 13.063-4.073 25.369-10.654 34.688-8.89 12.591-22.146 20.391-37.643 20.391H495.63c-15.495 0-28.75-7.802-37.642-20.394-6.58-9.315-10.656-21.62-10.656-34.685V599.079c0-13.075 4.076-25.375 10.653-34.688C466.879 551.796 480.139 544 495.63 544z"/><path class="fil1" d="M544.001 671.999h128v64.002h-128z"/><path class="fil1" d="M1629.59 927.101a257.115 257.115 0 0 0 55.414-42.103c46.332-46.332 75-110.332 75-181.002 0-55.085-17.445-105.816-47.059-147.239-30.633-42.85-74.287-75.863-125.139-93.574l-22.149-7.714.774-23.411c.158-4.813.623-8.086 1.085-11.352.236-1.67.474-3.341.474-4.714 0-97.193-39.403-185.196-103.101-248.895-63.697-63.696-151.694-103.099-248.892-103.099-64.524 0-124.585 17.538-176.111 47.986-53.922 31.866-98.637 77.86-129.49 132.705l-11.153 19.827-22.222-3.952c-8.011-1.424-15.713-2.62-22.784-3.379a207.437 207.437 0 0 0-22.236-1.19c-55.076 0-105.782 17.441-147.181 47.048-42.834 30.632-75.832 74.289-93.546 125.15l-8.007 22.99-24.243-1.615c-2.916-.193-6.03-.619-9.149-1.043-1.946-.265-3.906-.532-5.877-.532-70.67 0-134.672 28.667-181.003 74.999-46.335 46.334-75.002 110.339-75.002 181.004 0 70.672 28.666 134.675 74.997 181.006a257.074 257.074 0 0 0 55.418 42.102 95.133 95.133 0 0 0-3.077 23.973v45.983c-36.634-16.114-69.68-38.895-97.59-66.808-57.916-57.915-93.75-137.919-93.75-226.257 0-88.331 35.835-168.336 93.754-226.255 57.066-57.065 135.574-92.693 222.37-93.725 23.408-53.5 60.833-99.451 107.706-132.972 51.96-37.16 115.423-59.05 184.18-59.05 9.412 0 19.114.632 28.988 1.69 1.732.186 3.437.382 5.117.585 35.61-56.182 84.031-103.453 141.28-137.284 61.193-36.16 132.347-56.988 208.61-56.988 114.863 0 218.86 46.569 294.142 121.85 74.415 74.416 120.767 176.89 121.827 290.171 53.504 23.408 99.458 60.852 132.978 107.74 37.167 51.988 59.061 115.476 59.061 184.238 0 88.336-35.835 168.337-93.75 226.252-27.913 27.912-60.956 50.692-97.587 66.808v-45.978a95.171 95.171 0 0 0-3.078-23.978z"/></g></svg>