<?xml version="1.0" ?><!DOCTYPE svg  PUBLIC '-//W3C//DTD SVG 1.1//EN'  'http://www.w3.org/Graphics/SVG/1.1/DTD/svg11.dtd'><svg enable-background="new 0 0 64 64" id="Layer_1" version="1.1" viewBox="0 0 64 64" xml:space="preserve" xmlns="http://www.w3.org/2000/svg" xmlns:xlink="http://www.w3.org/1999/xlink"><path d="  M50,52c0,2.2-1.8,4-4,4H18c-2.2,0-4-1.8-4-4V17l9-9h23c2.2,0,4,1.8,4,4V52z" fill="none" stroke="#2C3E50" stroke-linecap="round" stroke-linejoin="round" stroke-miterlimit="10" stroke-width="2"/><path d="  M24,11v3c0,2.2-1.9,4-4.1,4H17" fill="none" stroke="#2C3E50" stroke-linecap="round" stroke-linejoin="round" stroke-miterlimit="10" stroke-width="2"/><line fill="none" stroke="#2C3E50" stroke-linecap="round" stroke-linejoin="round" stroke-miterlimit="10" stroke-width="2" x1="21" x2="43" y1="48" y2="48"/><line fill="none" stroke="#2C3E50" stroke-linecap="round" stroke-linejoin="round" stroke-miterlimit="10" stroke-width="2" x1="21" x2="43" y1="42" y2="42"/><path d="  M40.1,35.5c0-1.5-0.2-3.5-1.1-3.8c-0.9-0.2-4-1-4-1v0l-2.5,2.6l-2.4-2.6c0,0-3.2,0.8-4.1,1s-1.1,2.3-1.1,3.8" fill="none" stroke="#2C3E50" stroke-linecap="round" stroke-linejoin="round" stroke-miterlimit="10" stroke-width="2"/><path d="  M35.7,22.3c-0.4-2-2.3-2.3-3.2-2.3c-1.1,0-2.9,0.3-3.2,2.6c-0.2,1.8,0.6,4.1,1.2,4.9c0.7,0.9,1.3,1.3,2.1,1.3c0.8,0,1.3-0.4,2-1.4  C35.3,26.4,36,24,35.7,22.3z" fill="none" stroke="#2C3E50" stroke-linecap="round" stroke-linejoin="round" stroke-miterlimit="10" stroke-width="2"/></svg>