<svg viewBox="0 0 64 64" xml:space="preserve" xmlns="http://www.w3.org/2000/svg"><path d="M50 52c0 2.2-1.8 4-4 4H18c-2.2 0-4-1.8-4-4V17l9-9h23c2.2 0 4 1.8 4 4v40z" fill="none" stroke="#2C3E50" stroke-linecap="round" stroke-linejoin="round" stroke-miterlimit="10" stroke-width="2"/><path d="M24 11v3c0 2.2-1.9 4-4.1 4H17M21 48h22M21 42h22M40.1 35.5c0-1.5-.2-3.5-1.1-3.8-.9-.2-4-1-4-1v0l-2.5 2.6-2.4-2.6s-3.2.8-4.1 1-1.1 2.3-1.1 3.8M35.7 22.3c-.4-2-2.3-2.3-3.2-2.3-1.1 0-2.9.3-3.2 2.6-.2 1.8.6 4.1 1.2 4.9.7.9 1.3 1.3 2.1 1.3s1.3-.4 2-1.4c.7-1 1.4-3.4 1.1-5.1z" fill="none" stroke="#2C3E50" stroke-linecap="round" stroke-linejoin="round" stroke-miterlimit="10" stroke-width="2"/></svg>