<svg xmlns="http://www.w3.org/2000/svg" width="200" height="200"><path fill="#EE7810" d="M155.938 89.17a7.855 7.855 0 0 1-14.799 5.273h-16.221v5.246a2.622 2.622 0 0 1-2.623 2.622h-10.492v5.246h7.87a2.622 2.622 0 0 1 2.622 2.623v5.73a7.868 7.868 0 1 1-10.042 10.042 7.868 7.868 0 0 1 4.796-10.042v-3.107h-7.87a2.622 2.622 0 0 1-2.622-2.623v-7.869h-5.246v49.929h19.001a7.522 7.522 0 0 1 7.869 7.5 8.099 8.099 0 0 1-1.743 5.026 7.833 7.833 0 0 1 2.414 5.65l.001.086a7.919 7.919 0 0 1-7.87 7.968h-44.59a7.877 7.877 0 0 1-7.868-7.87 8.087 8.087 0 0 1 2.407-5.806 7.792 7.792 0 0 1-1.736-4.87 7.456 7.456 0 0 1 3.15-6.225c-.576-6.644-5.874-14.275-10.635-21.062-2.251-3.212-4.379-6.245-6.009-9.13-9.08-16.067-14.718-34.876-14.718-49.082 0-29.905 25.347-53.333 57.705-53.333a2.622 2.622 0 0 1 2.622 2.623V65.59h10.492V51.992a7.87 7.87 0 1 1 5.246 0v13.599H122.296a2.622 2.622 0 0 1 2.622 2.623v5.246h7.869v-8.353a7.87 7.87 0 1 1 5.246 0v10.977a2.622 2.622 0 0 1-2.623 2.621h-10.492v10.492h16.221a7.856 7.856 0 0 1 7.386-5.246 7.855 7.855 0 0 1 7.413 5.218ZM135.41 55.097a2.623 2.623 0 1 0 0 5.246 2.623 2.623 0 0 0 0-5.246Zm-69.403 74.527c4.924 7.022 10.4 14.885 11.472 22.615h18.587v-29.056a45.675 45.675 0 0 1-2.168-.209 2.622 2.622 0 0 1-2.249-2.065l-.798-3.798a33.84 33.84 0 0 1-1.97-.53l-2.614 2.915a2.628 2.628 0 0 1-2.981.663 39.378 39.378 0 0 1-8.255-4.823 2.625 2.625 0 0 1-.912-2.913l1.204-3.663c-.495-.466-.977-.95-1.446-1.444l-3.664 1.204a2.635 2.635 0 0 1-2.912-.912 39.39 39.39 0 0 1-4.822-8.256 2.625 2.625 0 0 1 .663-2.982l2.917-2.612a34.251 34.251 0 0 1-.526-1.95l-4.079-.814a2.622 2.622 0 0 1-2.11-2.572V79.48c0-1.25.884-2.327 2.11-2.572l4.079-.814c.155-.652.33-1.301.526-1.95l-2.916-2.612a2.621 2.621 0 0 1-.664-2.982 39.367 39.367 0 0 1 4.822-8.256 2.639 2.639 0 0 1 2.913-.911l3.664 1.204c.468-.495.95-.979 1.446-1.445l-1.204-3.668a2.623 2.623 0 0 1 .913-2.913 39.47 39.47 0 0 1 8.252-4.818 2.62 2.62 0 0 1 2.982.664l2.614 2.915a34.59 34.59 0 0 1 1.97-.53l.799-3.802a2.622 2.622 0 0 1 2.249-2.062c.76-.093 1.47-.156 2.167-.208V26.395C67.914 27.606 46.23 48.267 46.23 74.425c0 13.153 5.51 31.406 14.039 46.5 1.505 2.665 3.56 5.595 5.738 8.7Zm9.075-45.674c.017-12.015 9.045-22.104 20.984-23.452v-9.017l-.435 2.064a2.62 2.62 0 0 1-2.102 2.042 28.35 28.35 0 0 0-4.57 1.232 2.632 2.632 0 0 1-2.84-.72l-2.467-2.75a34.209 34.209 0 0 0-3.947 2.317l1.138 3.466a2.62 2.62 0 0 1-.794 2.815 29.344 29.344 0 0 0-3.36 3.363 2.638 2.638 0 0 1-2.819.794l-3.465-1.14a34.46 34.46 0 0 0-2.318 3.95l2.75 2.464a2.624 2.624 0 0 1 .72 2.841 28.642 28.642 0 0 0-1.231 4.572 2.622 2.622 0 0 1-2.069 2.106l-3.667.732v4.642l3.667.733a2.622 2.622 0 0 1 2.069 2.105 28.574 28.574 0 0 0 1.232 4.57 2.628 2.628 0 0 1-.719 2.84l-2.753 2.467a34.029 34.029 0 0 0 2.32 3.95l3.464-1.14a2.637 2.637 0 0 1 2.819.794 28.711 28.711 0 0 0 3.356 3.356 2.625 2.625 0 0 1 .798 2.822l-1.138 3.466a34.002 34.002 0 0 0 3.948 2.318l2.467-2.751a2.62 2.62 0 0 1 2.84-.72c1.487.537 3.015.95 4.57 1.232a2.624 2.624 0 0 1 2.101 2.044l.435 2.065v-9.02c-11.94-1.348-20.967-11.438-20.984-23.452ZM96.066 65.8a18.337 18.337 0 0 0-15.553 15.552c-1.435 10.025 5.528 19.315 15.553 20.75V65.8Zm27.54 104.8a2.671 2.671 0 0 0-2.623-2.808l-44.59.001a2.626 2.626 0 0 0-2.623 2.623 2.671 2.671 0 0 0 2.623 2.808h44.59a2.626 2.626 0 0 0 2.624-2.623Zm-3.294-13.114H77.065a2.37 2.37 0 0 0-2.626 2.346 2.671 2.671 0 0 0 2.626 2.715h43.247a2.626 2.626 0 0 0 2.623-2.623 2.406 2.406 0 0 0-2.623-2.438Zm-.64-36.814a2.623 2.623 0 1 0 0 5.246 2.623 2.623 0 0 0 0-5.246Zm-5.246-78.688a2.623 2.623 0 1 0 0 5.246 2.623 2.623 0 0 0 0-5.246Zm5.246 55.082v-26.23h-18.36v26.23h18.36Zm28.853-2.623a2.623 2.623 0 1 0 0-5.246 2.623 2.623 0 0 0 0 5.246Zm-24.54 46.547 4.592 2.536a39.233 39.233 0 0 0-2.166 4.518l-4.877-1.931a44.466 44.466 0 0 1 2.45-5.123Zm5.9-9.24 4.305 2.998a161.26 161.26 0 0 0-2.945 4.36l-4.403-2.85a158.904 158.904 0 0 1 3.043-4.508Zm5.967-8.726 4.44 2.792c-.924 1.47-1.954 2.989-3.036 4.546l-4.309-2.992c1.034-1.49 2.02-2.943 2.905-4.346Zm4.921-9.142 4.734 2.259a119.62 119.62 0 0 1-2.465 4.88l-4.626-2.475c.82-1.537 1.606-3.092 2.357-4.664Zm4.097-9.626 4.911 1.844a129.731 129.731 0 0 1-2.028 5.067l-4.828-2.055a121.168 121.168 0 0 0 1.945-4.856Zm11.52-30.354.003.523c0 1.611-.074 3.312-.221 5.056l-5.228-.44c.136-1.599.204-3.153.204-4.616l-.003-.482 5.246-.04Zm-1.335-11.165c.428 1.829.754 3.68.976 5.545l-5.21.62a45.355 45.355 0 0 0-.873-4.972l5.107-1.193Zm-3.77-10.6a50.472 50.472 0 0 1 2.182 5.195l-4.941 1.757a45.86 45.86 0 0 0-1.957-4.657l4.716-2.295Zm-6-9.498a52.92 52.92 0 0 1 3.257 4.585l-4.433 2.803a47.735 47.735 0 0 0-2.933-4.124l4.108-3.264Zm-7.862-8.004a55.066 55.066 0 0 1 4.136 3.793l-3.74 3.679a49.531 49.531 0 0 0-3.738-3.43l3.342-4.042Zm-9.28-6.253a59.11 59.11 0 0 1 4.791 2.895l-2.927 4.354a52.827 52.827 0 0 0-4.359-2.633l2.495-4.616Zm-10.282-4.352a58.967 58.967 0 0 1 5.244 1.94l-2.052 4.825a53.906 53.906 0 0 0-4.78-1.765l1.588-5Zm-10.882-2.407c1.847.24 3.696.563 5.495.96l-1.134 5.123a56.517 56.517 0 0 0-5.032-.878l.67-5.205ZM25.246 162.639h5.246v5.246h-5.246v-5.246Zm0 10.492h5.246v5.246h-5.246v-5.246Zm5.246-5.246h5.246v5.246h-5.246v-5.246Zm-10.492 0h5.246v5.246H20v-5.246ZM169.508 21h5.246v5.246h-5.246V21Zm0 10.492h5.246v5.246h-5.246v-5.246Zm5.246-5.246H180v5.246h-5.246v-5.246Zm-10.492 0h5.246v5.246h-5.246v-5.246Z"/></svg>