<svg xmlns="http://www.w3.org/2000/svg" viewBox="0 0 100 100" style="enable-background:new 0 0 100 100" xml:space="preserve" width="200" height="200"><path style="fill:#a3a3cd" d="M75 75V24a8 8 0 0 0-8-8H30a5 5 0 0 0-5 5v55h49a1 1 0 0 0 1-1z"/><path style="fill:#666aad" d="M41 76V16H30c-2.76 0-5 2.24-5 5v55h16z"/><path style="fill:#fefdef" d="M72 79.5c0 1.959 1.252 3.882 3 4.5H29.5a4.5 4.5 0 0 1 0-9H75c-1.748.618-3 2.541-3 4.5z"/><path style="fill:#fcba7f" d="M48.5 13.5v31l-8-4-8 4v-31z"/><path style="fill:#1f212b" d="M75 85H29.5c-3.033 0-5.5-2.468-5.5-5.5s2.467-5.5 5.5-5.5H75a1 1 0 0 1 .333 1.942c-1.33.471-2.333 2-2.333 3.558s1.003 3.087 2.333 3.558A1 1 0 0 1 75 85zm-45.5-9c-1.93 0-3.5 1.57-3.5 3.5s1.57 3.5 3.5 3.5h42.648C71.43 82.005 71 80.768 71 79.5s.43-2.505 1.148-3.5H29.5z"/><path style="fill:#1f212b" d="M71.5 79h-40a.5.5 0 0 1 0-1h40a.5.5 0 0 1 0 1zM71.5 81h-31a.5.5 0 0 1 0-1h31a.5.5 0 0 1 0 1zM26 79.5h-2V21c0-3.309 2.691-6 6-6h2.5v2H30c-2.206 0-4 1.794-4 4v58.5zM76 75h-2V24c0-3.859-3.14-7-7-7H48.5v-2H67c4.962 0 9 4.037 9 9v51zM40.5 60a.5.5 0 0 1-.5-.5v-19a.5.5 0 0 1 1 0v19a.5.5 0 0 1-.5.5zM40.5 65a.5.5 0 0 1-.5-.5v-2a.5.5 0 0 1 1 0v2a.5.5 0 0 1-.5.5zM40.5 68a.5.5 0 0 1-.5-.5v-1a.5.5 0 0 1 1 0v1a.5.5 0 0 1-.5.5z"/><path style="fill:#1f212b" d="M48.5 45a.505.505 0 0 1-.224-.053L40.5 41.059l-7.776 3.889a.511.511 0 0 1-.486-.021A.505.505 0 0 1 32 44.5v-31a.5.5 0 0 1 .5-.5h16a.5.5 0 0 1 .5.5v31a.503.503 0 0 1-.5.5zm-8-5c.077 0 .153.018.224.053L48 43.691V14H33v29.691l7.276-3.639A.518.518 0 0 1 40.5 40z"/></svg>