<svg xmlns="http://www.w3.org/2000/svg" viewBox="0 0 48 48" style="enable-background:new 0 0 48 48" xml:space="preserve" width="480" height="480"><path style="fill:#ff6f02" d="m31 7.002 13 1.686L33.296 19 31 7.002zM17 41 4 39.314 14.704 29 17 41z"/><path style="fill:#ff6f00" d="M8 24c0-8.837 7.163-16 16-16 1.024 0 2.021.106 2.992.29l.693-3.865c-1.16-.313-2.423-.42-3.685-.42-11.053 0-20 8.947-20 20 0 4.844 1.686 9.474 4.844 13.051l3.037-2.629A15.923 15.923 0 0 1 8 24zM39.473 11.267l-3.143 2.537A15.932 15.932 0 0 1 40 24c0 8.837-7.163 16-16 16-1.029 0-2.033-.106-3.008-.292l-.676 3.771c1.262.21 2.525.317 3.684.317 11.053 0 20-8.947 20-20 0-4.421-1.579-8.948-4.527-12.529z"/></svg>