<svg xmlns="http://www.w3.org/2000/svg" width="200" height="200"><path fill="#605CA8" fill-rule="evenodd" d="M157.232 51.91a2.662 2.662 0 0 1 2.662 2.662v122.443c0 4.403-3.582 7.985-7.985 7.985H48.985c-4.403 0-7.985-3.582-7.985-7.985v-23.07a2.662 2.662 0 1 1 5.324 0v23.07a2.665 2.665 0 0 0 2.662 2.662h102.922a2.665 2.665 0 0 0 2.662-2.662V54.572a2.662 2.662 0 0 1 2.662-2.662ZM151.91 15c4.402 0 7.985 3.582 7.985 7.985v17.39a2.662 2.662 0 1 1-5.323 0v-17.39a2.665 2.665 0 0 0-2.662-2.662H48.986a2.665 2.665 0 0 0-2.662 2.662V136.91a2.662 2.662 0 1 1-5.324 0V22.985C41 18.582 44.583 15 48.986 15h102.923Zm-6.034 11.357a2.662 2.662 0 0 1 2.662 2.662v53.946a2.662 2.662 0 0 1-2.662 2.662H55.02a2.662 2.662 0 0 1-2.662-2.662V29.019a2.662 2.662 0 0 1 2.662-2.662h90.856Zm-2.662 53.946V31.68H57.681v48.622h85.532Zm2.662 11.357a2.662 2.662 0 0 1 2.662 2.662v34.07a2.662 2.662 0 0 1-2.662 2.663h-39.75a2.662 2.662 0 0 1-2.661-2.662V94.322a2.662 2.662 0 0 1 2.662-2.662h39.75Zm-2.662 34.07V96.984h-34.425v28.748h34.425ZM94.77 91.66a2.662 2.662 0 0 1 2.662 2.662v34.07a2.662 2.662 0 0 1-2.662 2.663h-39.75a2.662 2.662 0 0 1-2.662-2.662V94.322a2.662 2.662 0 0 1 2.662-2.662h39.75Zm-2.662 34.07V96.984H57.68v28.748h34.426Zm53.768 8.518a2.662 2.662 0 0 1 2.662 2.662v34.071a2.662 2.662 0 0 1-2.662 2.662h-39.75a2.662 2.662 0 0 1-2.661-2.662v-34.07a2.662 2.662 0 0 1 2.662-2.663h39.75Zm-2.662 34.071v-28.747h-34.425v28.747h34.425ZM94.77 134.25a2.662 2.662 0 0 1 2.662 2.661v34.071a2.662 2.662 0 0 1-2.662 2.662h-39.75a2.662 2.662 0 0 1-2.662-2.662v-34.07a2.662 2.662 0 0 1 2.662-2.663h39.75Zm-2.662 34.07v-28.747H57.68v28.747h34.426Zm-8.695-59.624a2.662 2.662 0 0 1 0 5.324h-5.856v5.856a2.662 2.662 0 1 1-5.324 0v-5.856h-5.856a2.662 2.662 0 1 1 0-5.324h5.856v-5.856a2.662 2.662 0 1 1 5.324 0v5.856h5.856Zm51.106 0a2.662 2.662 0 1 1 0 5.324h-17.035a2.662 2.662 0 1 1 0-5.324h17.035Zm-55.86 45.25 6.635 6.636c.97.97 1.034 2.57.142 3.612-.996 1.162-2.823 1.235-3.906.153l-6.636-6.636-6.635 6.636c-1.083 1.082-2.91 1.01-3.906-.153-.892-1.042-.827-2.643.142-3.612l6.636-6.635-6.636-6.636a2.661 2.661 0 1 1 3.764-3.764l6.636 6.636 6.635-6.636a2.661 2.661 0 1 1 3.765 3.764l-6.636 6.636Zm57.743-10.4a2.661 2.661 0 0 1 0 3.765l-17.036 17.036c-.52.52-1.202.78-1.883.78-2.327 0-3.521-2.905-1.882-4.545l17.036-17.035a2.662 2.662 0 0 1 3.765 0Zm-14.197 2.84c.97.969 1.034 2.57.141 3.612-.995 1.162-2.823 1.235-3.906.152l-2.839-2.839a2.661 2.661 0 1 1 3.765-3.764l2.84 2.84Zm14.197 14.196c.969.97 1.033 2.57.141 3.612-.995 1.162-2.823 1.235-3.906.153l-2.84-2.84a2.661 2.661 0 1 1 3.765-3.764l2.84 2.84Zm0-107.891c.499.499.779 1.176.78 1.882v19.875a2.662 2.662 0 0 1-2.662 2.661H123.16a2.662 2.662 0 0 1-2.661-2.661V65.75h-6.034v8.696a2.662 2.662 0 0 1-2.662 2.661h-11.357a2.662 2.662 0 0 1-2.662-2.661V54.572c0-.706.28-1.383.78-1.882L115.6 35.654a2.662 2.662 0 0 1 3.765 0l17.036 17.036Zm-4.545 19.095v-16.11L117.482 41.3 103.11 55.674v16.111h6.033V63.09a2.662 2.662 0 0 1 2.662-2.662h11.357a2.662 2.662 0 0 1 2.662 2.662v8.695h6.033ZM88.133 38.494a2.662 2.662 0 0 1 0 3.764L66.838 63.553c-.52.52-1.2.78-1.882.78-2.327 0-3.521-2.905-1.882-4.545L84.37 38.494a2.661 2.661 0 0 1 3.764 0Zm2.84 17.035a2.661 2.661 0 0 1-.001 3.764l-8.518 8.518c-1.082 1.083-2.91 1.01-3.905-.153-.892-1.041-.828-2.642.142-3.611l8.517-8.518a2.661 2.661 0 0 1 3.764 0Z"/></svg>