<svg xmlns="http://www.w3.org/2000/svg" width="200" height="200"><path fill="#008B92" fill-rule="evenodd" d="M145.919 136.599h-13.214c-.977 0-1.88-.521-2.368-1.367l-6.607-11.443a2.736 2.736 0 0 1 0-2.734l6.607-11.443a2.734 2.734 0 0 1 2.368-1.367h7.723a2.735 2.735 0 0 1 0 5.469h-6.144l-5.029 8.708 5.029 8.708h10.057l.597-1.034a2.735 2.735 0 0 1 4.736 2.735l-1.386 2.4a2.737 2.737 0 0 1-2.37 1.368zm6.606-11.443a2.746 2.746 0 0 1-1.931-.8 2.67 2.67 0 0 1-.593-.89 2.748 2.748 0 0 1-.208-1.044 2.716 2.716 0 0 1 .46-1.517 2.678 2.678 0 0 1 .754-.755c.15-.101.309-.184.473-.252a2.69 2.69 0 0 1 2.091 0 2.7 2.7 0 0 1 .889.59 2.6 2.6 0 0 1 .339.417 2.7 2.7 0 0 1 .408.984c.035.175.055.356.055.533a2.71 2.71 0 0 1-.21 1.044 2.71 2.71 0 0 1-1.48 1.48 2.732 2.732 0 0 1-1.047.21zM155.416 100l12.159 21.055a2.736 2.736 0 0 1 0 2.734l-12.948 22.422a2.734 2.734 0 0 1-2.368 1.367h-24.315l-12.158 21.055a2.736 2.736 0 0 1-2.368 1.367H87.524c-.978 0-1.88-.521-2.368-1.367l-12.159-21.055H48.682c-.978 0-1.88-.521-2.368-1.367l-12.948-22.422a2.736 2.736 0 0 1 0-2.734L45.523 100 33.366 78.945a2.736 2.736 0 0 1 0-2.734l12.948-22.422a2.734 2.734 0 0 1 2.368-1.367h24.315l12.159-21.055A2.734 2.734 0 0 1 87.524 30h25.894c.976 0 1.879.521 2.368 1.367l12.157 21.055h24.316c.976 0 1.88.521 2.368 1.367l12.948 22.422a2.736 2.736 0 0 1 0 2.734L155.416 100zm6.633-22.422L150.68 57.891h-22.736l-11.369 19.688 11.368 19.687h22.737l11.37-19.688zm-50.21 42.11L123.206 100l-11.369-19.688H89.102L77.733 100l11.37 19.688h22.735zm-22.737-84.22L77.733 55.157l11.37 19.688h22.735l11.37-19.689-11.369-19.686H89.102zM50.26 57.892L38.891 77.578l11.37 19.688h22.736l11.368-19.688-11.368-19.687H50.26zm-11.369 64.53l11.37 19.688h22.736l11.368-19.687-11.368-19.688H50.26l-11.369 19.688zm72.948 42.11l11.368-19.686-11.369-19.689H89.102l-11.369 19.688 11.37 19.687h22.736zm38.841-22.422l11.37-19.687-11.37-19.688h-22.737l-11.368 19.687 11.37 19.688h22.735zM68.236 91.755H55.02a2.736 2.736 0 0 1-2.368-1.367l-6.606-11.443a2.73 2.73 0 0 1 0-2.734l6.606-11.443a2.736 2.736 0 0 1 2.368-1.367h7.724a2.735 2.735 0 0 1 0 5.469H56.6l-5.028 8.708 5.028 8.708h10.057l.597-1.033a2.735 2.735 0 0 1 4.736 2.734l-1.386 2.401a2.735 2.735 0 0 1-2.368 1.367zm6.608-11.442c-.72 0-1.425-.293-1.933-.802a2.752 2.752 0 0 1-.75-2.466 2.748 2.748 0 0 1 .749-1.4 2.76 2.76 0 0 1 2.466-.749c.176.035.348.09.512.158.166.069.326.15.473.252a2.657 2.657 0 0 1 1.006 1.227 2.748 2.748 0 0 1 .21 1.045c0 .719-.292 1.425-.8 1.933a2.71 2.71 0 0 1-1.4.747 2.7 2.7 0 0 1-.533.055z"/></svg>