<svg xmlns="http://www.w3.org/2000/svg" width="200" height="200"><path fill="#29BDEF" d="M170.714 90.714c-4.312 0-7.947 2.955-8.987 6.947h-17.273a44.185 44.185 0 0 0-4.682-17.922l14.858-8.578a9.322 9.322 0 0 0 6.626 2.766c1.574 0 3.169-.4 4.627-1.242 4.434-2.56 5.96-8.25 3.399-12.685-2.56-4.434-8.25-5.96-12.685-3.399a9.225 9.225 0 0 0-4.326 5.639 9.23 9.23 0 0 0 .015 4.872l-14.834 8.564A44.857 44.857 0 0 0 124.37 62.47l8.524-14.764c.804.22 1.63.33 2.456.33a9.3 9.3 0 0 0 5.907-2.104 2.339 2.339 0 1 0-2.971-3.613 4.632 4.632 0 0 1-5.232.43 4.578 4.578 0 0 1-2.147-2.797 4.575 4.575 0 0 1 .46-3.496 4.602 4.602 0 0 1 4.91-2.214 2.338 2.338 0 1 0 .935-4.584 9.276 9.276 0 0 0-9.896 4.458 9.225 9.225 0 0 0-.927 7.047 9.23 9.23 0 0 0 2.449 4.211l-8.507 14.734a44.187 44.187 0 0 0-17.991-4.86V38.272c3.991-1.04 6.946-4.674 6.946-8.987 0-5.12-4.165-9.286-9.285-9.286s-9.286 4.166-9.286 9.286c0 4.312 2.955 7.947 6.947 8.987v16.975a44.183 44.183 0 0 0-17.991 4.86l-8.507-14.733a9.23 9.23 0 0 0 2.45-4.212 9.224 9.224 0 0 0-.928-7.046c-2.56-4.434-8.25-5.96-12.685-3.399a9.226 9.226 0 0 0-4.327 5.639 9.225 9.225 0 0 0 .928 7.046 9.225 9.225 0 0 0 5.639 4.326 9.17 9.17 0 0 0 4.872-.016l8.52 14.758a44.857 44.857 0 0 0-13.085 13.205l-14.833-8.564a9.23 9.23 0 0 0 .015-4.872 9.225 9.225 0 0 0-4.326-5.639c-4.434-2.56-10.125-1.035-12.685 3.399-2.56 4.434-1.035 10.125 3.399 12.685a9.228 9.228 0 0 0 4.627 1.242c2.456 0 4.861-.977 6.626-2.766l14.858 8.578a44.187 44.187 0 0 0-4.682 17.922H38.273c-1.04-3.992-4.675-6.947-8.987-6.947C24.166 90.714 20 94.88 20 100c0 5.12 4.166 9.286 9.286 9.286 4.312 0 7.947-2.955 8.987-6.947h17.306a44.178 44.178 0 0 0 4.894 17.78l-15.099 8.718a9.227 9.227 0 0 0-4.211-2.45 9.224 9.224 0 0 0-7.047.929c-4.433 2.56-5.958 8.25-3.398 12.684a9.226 9.226 0 0 0 5.638 4.327 9.232 9.232 0 0 0 7.046-.928 9.226 9.226 0 0 0 4.327-5.639 9.228 9.228 0 0 0-.015-4.872l15.13-8.736a44.861 44.861 0 0 0 13.048 12.926l-8.78 15.208a9.22 9.22 0 0 0-4.872-.015 9.226 9.226 0 0 0-5.639 4.326 9.226 9.226 0 0 0-.928 7.046A9.226 9.226 0 0 0 60 169.282a9.292 9.292 0 0 0 12.685-3.399 9.224 9.224 0 0 0 .927-7.046 9.23 9.23 0 0 0-2.449-4.212l8.785-15.216a44.186 44.186 0 0 0 17.713 4.72v17.598c-3.992 1.04-6.947 4.675-6.947 8.987 0 5.12 4.166 9.286 9.286 9.286 5.12 0 9.286-4.165 9.286-9.286 0-4.312-2.955-7.947-6.947-8.987V144.13a44.176 44.176 0 0 0 17.713-4.72l8.785 15.215a9.227 9.227 0 0 0-2.45 4.212 9.223 9.223 0 0 0 .928 7.046A9.293 9.293 0 0 0 140 169.282a9.226 9.226 0 0 0 4.327-5.639 9.226 9.226 0 0 0-.928-7.046 9.226 9.226 0 0 0-5.639-4.326 9.228 9.228 0 0 0-4.872.015l-8.78-15.208a44.854 44.854 0 0 0 13.047-12.925l15.13 8.735a9.228 9.228 0 0 0-.014 4.873 9.225 9.225 0 0 0 4.326 5.638 9.233 9.233 0 0 0 7.046.928 9.226 9.226 0 0 0 5.639-4.327c2.56-4.434 1.035-10.124-3.399-12.684a9.223 9.223 0 0 0-7.046-.928 9.227 9.227 0 0 0-4.212 2.45l-15.098-8.718a44.18 44.18 0 0 0 4.894-17.78h17.306c1.04 3.99 4.674 6.946 8.987 6.946 5.12 0 9.286-4.166 9.286-9.286 0-5.12-4.166-9.286-9.286-9.286ZM156.79 63.45a4.577 4.577 0 0 1 2.147-2.797 4.61 4.61 0 0 1 6.294 1.686 4.579 4.579 0 0 1 .46 3.497 4.577 4.577 0 0 1-2.147 2.797 4.576 4.576 0 0 1-3.496.46 4.577 4.577 0 0 1-2.798-2.146 4.576 4.576 0 0 1-.46-3.497ZM69.093 39.952a4.577 4.577 0 0 1-2.147 2.798 4.575 4.575 0 0 1-3.495.46 4.579 4.579 0 0 1-2.798-2.147 4.578 4.578 0 0 1-.46-3.496 4.577 4.577 0 0 1 2.146-2.797 4.611 4.611 0 0 1 6.294 1.686 4.577 4.577 0 0 1 .46 3.496ZM42.75 66.947a4.577 4.577 0 0 1-2.798 2.146 4.58 4.58 0 0 1-3.496-.46 4.576 4.576 0 0 1-2.146-2.797 4.579 4.579 0 0 1 .46-3.497 4.61 4.61 0 0 1 6.294-1.686 4.576 4.576 0 0 1 2.146 2.797 4.58 4.58 0 0 1-.46 3.497Zm-13.464 37.66A4.613 4.613 0 0 1 24.678 100a4.613 4.613 0 0 1 4.608-4.608A4.613 4.613 0 0 1 33.893 100a4.613 4.613 0 0 1-4.607 4.608ZM43.21 136.55a4.576 4.576 0 0 1-2.147 2.797 4.575 4.575 0 0 1-3.496.46 4.577 4.577 0 0 1-2.797-2.146 4.613 4.613 0 0 1 1.686-6.294 4.578 4.578 0 0 1 3.496-.46 4.578 4.578 0 0 1 2.798 2.147 4.577 4.577 0 0 1 .46 3.496Zm25.423 26.994a4.613 4.613 0 0 1-6.294 1.687 4.575 4.575 0 0 1-2.146-2.798 4.576 4.576 0 0 1 .46-3.496 4.576 4.576 0 0 1 2.797-2.147 4.582 4.582 0 0 1 3.496.46 4.578 4.578 0 0 1 2.147 2.798 4.576 4.576 0 0 1-.46 3.496Zm62.274-3.496a4.579 4.579 0 0 1 2.146-2.798 4.58 4.58 0 0 1 3.497-.46 4.576 4.576 0 0 1 2.797 2.147 4.578 4.578 0 0 1 .46 3.496 4.576 4.576 0 0 1-2.146 2.798 4.613 4.613 0 0 1-6.294-1.687 4.576 4.576 0 0 1-.46-3.496Zm26.343-26.995a4.578 4.578 0 0 1 2.798-2.146 4.578 4.578 0 0 1 3.496.46 4.613 4.613 0 0 1 1.686 6.294 4.576 4.576 0 0 1-2.797 2.146 4.574 4.574 0 0 1-3.496-.46 4.576 4.576 0 0 1-2.147-2.798 4.576 4.576 0 0 1 .46-3.496Zm-24.229-55.602a193.345 193.345 0 0 0-13-1.822c-.54-4.814-1.154-8.626-1.64-11.26a40.105 40.105 0 0 1 14.64 13.082ZM95.393 29.286A4.613 4.613 0 0 1 100 24.678a4.613 4.613 0 0 1 4.608 4.608A4.613 4.613 0 0 1 100 33.893a4.613 4.613 0 0 1-4.608-4.607Zm-7.344 32.411A39.686 39.686 0 0 1 100 59.865c4.607 0 9.032.788 13.15 2.234.38 1.744 1.295 6.326 2.086 13.082a199.461 199.461 0 0 0-29.333-.233c.856-7.23 1.848-11.925 2.146-13.25Zm-5.203 2.056c-.492 2.588-1.147 6.519-1.722 11.577-5.965.555-10.713 1.287-13.982 1.884a40.096 40.096 0 0 1 15.704-13.461Zm-18.823 18.87c2.058-.464 7.953-1.678 16.619-2.527-.08.904-.158 1.832-.23 2.79-.309 4.12-.541 8.995-.57 14.464H60.247a39.526 39.526 0 0 1 3.776-14.727Zm-.901 32.091a39.529 39.529 0 0 1-2.875-12.686h19.62c.077 4.794.32 9.97.8 15.441-10.817-1.066-17.37-2.715-17.455-2.736-.03-.008-.06-.012-.09-.019Zm2.685 5.367c3.248.634 8.492 1.505 15.33 2.138.48 4.356 1.116 8.874 1.94 13.513a40.093 40.093 0 0 1-17.27-15.65Zm38.8 50.633a4.613 4.613 0 0 1-4.607 4.608 4.613 4.613 0 0 1-4.608-4.608 4.613 4.613 0 0 1 4.608-4.607 4.613 4.613 0 0 1 4.608 4.607Zm11.126-53.076c-2.484.215-4.973.385-7.465.503a2.339 2.339 0 1 0 .222 4.673c2.257-.107 4.511-.258 6.762-.442-.549 4.828-1.29 9.83-2.268 14.966A39.652 39.652 0 0 1 100 139.513c-4.11 0-8.076-.626-11.809-1.787a2.389 2.389 0 0 0-.026-.187 201.405 201.405 0 0 1-2.278-14.94 194.617 194.617 0 0 0 5.695.298 2.34 2.34 0 0 0 .088-4.677 186.463 186.463 0 0 1-6.27-.346 209.965 209.965 0 0 1-.843-15.846h31.999a210.188 210.188 0 0 1-.823 15.61ZM84.535 97.35c.045-6.648.398-12.6.868-17.657 8.377-.601 18.722-.774 30.327.222a206.3 206.3 0 0 1 .846 17.435h-32.04Zm33.604 37.787c.791-4.536 1.406-8.954 1.87-13.214a194.366 194.366 0 0 0 14.316-2.063 40.114 40.114 0 0 1-16.186 15.277ZM136.9 114.66c-.163-.003-.33.01-.497.044a188.61 188.61 0 0 1-15.932 2.458c.462-5.358.698-10.43.774-15.135h18.508a39.542 39.542 0 0 1-2.853 12.633ZM121.27 97.35a208.838 208.838 0 0 0-.774-16.966 187.441 187.441 0 0 1 15.55 2.388 39.528 39.528 0 0 1 3.707 14.578H121.27Zm49.444 7.258a4.613 4.613 0 0 1-4.607-4.608 4.613 4.613 0 0 1 4.607-4.608 4.613 4.613 0 0 1 4.608 4.608 4.613 4.613 0 0 1-4.608 4.608Z"/></svg>