<svg xmlns="http://www.w3.org/2000/svg" width="200" height="200"><defs><clipPath id="a"><path d="M0 0h200v200H0z"/></clipPath></defs><g clip-path="url(#a)"><path fill="#fff" d="M0 0h200v200H0z"/><path data-name="wind-turbine-icon" d="M179.611 91.472a3.574 3.574 0 0 1 0 3.2 3.3 3.3 0 0 1-2.5 1.6l-29.9 3.9c-8.1 1.1-16.3 2.1-24.4 3.2a4.869 4.869 0 0 1-1.2.1 6.1 6.1 0 0 1-5.7-3.5 8.225 8.225 0 0 0-5.6-4.5 8.641 8.641 0 0 1-2.1-.7 7.9 7.9 0 0 1-1.4 2.3l8.1 90.9h12.9a2.4 2.4 0 1 1 0 4.8H69.5a2.4 2.4 0 1 1 0-4.8H83l7.9-88.5-1.9 1.7-41.9 36.8a45.013 45.013 0 0 1-3.7 2.8 6.351 6.351 0 0 1-3.4 1 10.215 10.215 0 0 1-4-.9 3.048 3.048 0 0 1-1.9-2.1 3.375 3.375 0 0 1 .8-2.9l18.9-22.4c5.8-6.7 11.5-13.5 17.2-20.3 2.7-3.2 5.5-2.9 7.4-2.2a7.916 7.916 0 0 0 7-.6 12.147 12.147 0 0 1 2-.9 11.2 11.2 0 0 1 3.7-8l-.1-.1-13-61v-.1a41.125 41.125 0 0 1-.7-4.7c-.2-3.1 1.7-5.2 3.3-6.7a2.971 2.971 0 0 1 2.8-.8 2.934 2.934 0 0 1 2.2 2.1l3.4 9.3c1.2 3.4 2.5 6.8 3.7 10.1l3.5 9.6c3 8 5.9 16.1 8.9 24.1 1.4 3.8 0 6.2-1.5 7.6a8.686 8.686 0 0 0-2.8 6.8c0 .3-.1.7-.1 1.1a11.066 11.066 0 0 1 7.5 6.3 4.18 4.18 0 0 1 1-.4l5.3.1 54.9 1.3h.1a32.83 32.83 0 0 1 4.6.4c3.011.6 4.511 3 5.511 5Zm-75.005-1.9a6.113 6.113 0 1 0-12.2 0 6.283 6.283 0 0 0 6.1 6.5 6.349 6.349 0 0 0 6.1-6.5ZM82.8 19.172l12.6 59h.8v-.7a13.45 13.45 0 0 1 4.4-10.3c.5-.5.9-1 .3-2.5-3-8-5.9-16.1-8.9-24.1l-7.3-19.6h.1c-.4-.9-1-2.5-2-5.3l-.5-1.3a2.2 2.2 0 0 0-.1.8c.1 1.1.4 2.8.6 4Zm-38.5 114.9 44.6-39.1-.4-.8a.764.764 0 0 0-.5.2 12.569 12.569 0 0 1-11 .8c-.2 0-.4-.1-.6-.1-.4 0-.8.2-1.5 1-5.7 6.8-11.5 13.5-17.2 20.3l-17.3 20.4a6.888 6.888 0 0 0 .8-.3 32.409 32.409 0 0 0 3.1-2.4Zm43.7 53.5h22.2l-7.8-87.6a10.066 10.066 0 0 1-3.9.8 12.59 12.59 0 0 1-2.7-.4Zm58.7-92.5 27.3-3.6a2.01 2.01 0 0 0-.8-.4c-1.1-.2-2.7-.3-3.9-.4l-58.2-1.4-.2 1c.2.1.4.1.6.2a12.712 12.712 0 0 1 8.7 6.9c.3.7.7 1.1 2.1.9 8.108-1.1 16.308-2.1 24.409-3.2Zm-24.7-78.2a2.388 2.388 0 0 1 1.6-4.5 78.529 78.529 0 0 1 36.9 27.3 2.412 2.412 0 0 1-1.9 3.8 2.463 2.463 0 0 1-1.9-.9 73.055 73.055 0 0 0-34.693-25.7Zm-97.3 72.7a78.8 78.8 0 0 0 3.9 24.7 2.388 2.388 0 0 1-1.5 3 1.7 1.7 0 0 1-.7.1 2.34 2.34 0 0 1-2.2-1.6 83.369 83.369 0 0 1 23.4-88.1 2.338 2.338 0 1 1 3.1 3.5 77.915 77.915 0 0 0-26 58.4Zm55.2 79a.735.735 0 0 1-.6-.2 77.946 77.946 0 0 1-32.9-18.1 2.335 2.335 0 1 1 3.2-3.4 72.463 72.463 0 0 0 30.9 17 2.4 2.4 0 0 1 1.7 2.9 2.347 2.347 0 0 1-2.3 1.8Zm89.506-50.3a2.393 2.393 0 0 1 1.3 3.1 80.679 80.679 0 0 1-36.5 40.7 2.016 2.016 0 0 1-1.1.3 2.391 2.391 0 0 1-1.1-4.5 76.012 76.012 0 0 0 34.3-38.3 2.394 2.394 0 0 1 3.104-1.3Zm-53.8-86.6a2.3 2.3 0 0 1-1.6-2.9 2.432 2.432 0 0 1 3-1.5 62.948 62.948 0 0 1 34.6 27.4 2.313 2.313 0 0 1-.8 3.2 2.663 2.663 0 0 1-1.2.3 2.306 2.306 0 0 1-2-1.1 58.212 58.212 0 0 0-31.999-25.4ZM35.9 97.072a62.275 62.275 0 0 1-.4-7.4 66.285 66.285 0 0 1 21-48.7 2.269 2.269 0 0 1 3.3.1 2.356 2.356 0 0 1-.1 3.3 61.6 61.6 0 0 0-19.5 45.2 54.763 54.763 0 0 0 .4 7 2.366 2.366 0 0 1-2.1 2.6h-.3a2.364 2.364 0 0 1-2.3-2.1Zm43.8 54.7a1.2 1.2 0 0 1-.8-.2 62 62 0 0 1-22.4-13.4 2.335 2.335 0 1 1 3.2-3.4 57.794 57.794 0 0 0 20.7 12.4 2.432 2.432 0 0 1 1.5 3 2.25 2.25 0 0 1-2.2 1.6Zm78.205-40.8a63.7 63.7 0 0 1-27.5 34.7 1.746 1.746 0 0 1-1.2.4 2.306 2.306 0 0 1-2-1.1 2.5 2.5 0 0 1 .8-3.3 59.91 59.91 0 0 0 25.4-32.2 2.389 2.389 0 0 1 3-1.5 2.432 2.432 0 0 1 1.505 3Zm-17.2 76.6a2.4 2.4 0 1 1 0 4.8h-6.1a2.4 2.4 0 1 1 0-4.8Z" fill="#605ca8"/></g></svg>