<?xml version="1.0" encoding="utf-8"?>
<!-- Generator: Adobe Illustrator 23.0.1, SVG Export Plug-In . SVG Version: 6.00 Build 0)  -->
<svg version="1.1" id="Layer_1" xmlns="http://www.w3.org/2000/svg" xmlns:xlink="http://www.w3.org/1999/xlink" x="0px" y="0px"
	 viewBox="0 0 200 200" style="enable-background:new 0 0 200 200;" xml:space="preserve">
<g>
	<path d="M179.6,91.4c-1-2-2.5-4.4-5.5-5c-1.2-0.2-3.2-0.4-4.6-0.4c0,0,0,0-0.1,0l-54.9-1.3l-5.3-0.1c-0.3,0.1-0.7,0.2-1,0.4
		c-1.4-3.1-4.1-5.5-7.5-6.3c0-0.4,0.1-0.8,0.1-1.1c0-2.9,0.9-5,2.8-6.8c1.5-1.4,2.9-3.8,1.5-7.6c-3-8-5.9-16.1-8.9-24.1l-3.5-9.6
		c-1.2-3.3-2.5-6.7-3.7-10.1l-3.4-9.3c-0.5-1.5-1.6-2-2.2-2.1c-1-0.2-2,0-2.8,0.8c-1.6,1.5-3.5,3.6-3.3,6.7c0.1,1.3,0.4,3.3,0.7,4.7
		c0,0,0,0,0,0.1l13,61c0,0,0.1,0.1,0.1,0.1c-2.2,2-3.6,4.8-3.7,8c-0.7,0.3-1.4,0.5-2,0.9c-2.4,1.3-4.6,1.5-7,0.6
		c-1.9-0.7-4.7-1-7.4,2.2c-5.7,6.8-11.4,13.6-17.2,20.3l-18.9,22.4c-1,1.2-0.9,2.3-0.8,2.9c0.2,0.9,0.9,1.7,1.9,2.1
		c1.2,0.5,2.5,0.9,4,0.9c1.1,0,2.3-0.3,3.4-1c1.1-0.7,2.6-1.9,3.7-2.8c0,0,0,0,0,0l41.9-36.8l1.9-1.7l-7.9,88.5H69.5
		c-1.3,0-2.4,1.1-2.4,2.4s1.1,2.4,2.4,2.4h15.9h27.4h15c1.3,0,2.4-1.1,2.4-2.4s-1.1-2.4-2.4-2.4h-12.9l-8.1-90.9
		c0.6-0.7,1.1-1.5,1.4-2.3c0.7,0.3,1.4,0.6,2.1,0.7c2.6,0.7,4.4,2.1,5.6,4.5c0.8,1.6,2.5,3.5,5.7,3.5c0.4,0,0.8,0,1.2-0.1
		c8.1-1.1,16.3-2.1,24.4-3.2l29.9-3.9c1.5-0.2,2.2-1.1,2.5-1.6C179.9,93.7,180.3,92.7,179.6,91.4z M104.6,89.5
		c0,3.6-2.8,6.5-6.1,6.5c-3.4,0-6.1-2.9-6.1-6.5c0-3.6,2.8-6.5,6.1-6.5C101.8,83,104.6,85.9,104.6,89.5z M82.8,19.1
		c-0.2-1.2-0.5-2.9-0.6-4c0-0.3,0-0.5,0.1-0.8l0.5,1.3c1,2.8,1.6,4.4,2,5.3l-0.1,0L92,40.5c3,8,5.9,16.1,8.9,24.1
		c0.6,1.5,0.2,2-0.3,2.5c-2.9,2.7-4.4,6.1-4.4,10.3c0,0.2,0,0.5,0,0.7l-0.8,0L82.8,19.1z M44.3,134c-0.9,0.8-2.2,1.8-3.1,2.4
		c-0.2,0.1-0.5,0.2-0.8,0.3l17.3-20.4c5.7-6.8,11.5-13.5,17.2-20.3c0.7-0.8,1.1-1,1.5-1c0.2,0,0.4,0.1,0.6,0.1
		c3.7,1.4,7.4,1.2,11-0.8c0.1-0.1,0.3-0.2,0.5-0.2l0.4,0.8L44.3,134z M88,187.5l7.8-87.2c0.9,0.2,1.8,0.4,2.7,0.4
		c1.4,0,2.7-0.3,3.9-0.8l7.8,87.6H88z M146.7,95c-8.1,1.1-16.3,2.1-24.4,3.2c-1.4,0.2-1.8-0.2-2.1-0.9c-1.8-3.6-4.7-5.9-8.7-6.9
		c-0.2-0.1-0.4-0.1-0.6-0.2l0.2-1l58.2,1.4c1.2,0.1,2.8,0.2,3.9,0.4c0.3,0.1,0.6,0.2,0.8,0.4L146.7,95z"/>
	<path d="M122,16.8c13.8,4.8,25.8,13.7,34.7,25.7c0.5,0.6,1.2,0.9,1.9,0.9c0.5,0,1-0.2,1.4-0.5c1-0.8,1.3-2.3,0.5-3.3
		c-9.5-12.7-22.3-22.2-36.9-27.3c-1.2-0.4-2.6,0.2-3,1.4C120.1,15,120.8,16.4,122,16.8z"/>
	<path d="M24.7,89.5c0-22.5,9.5-43.8,26-58.4c1-0.9,1.1-2.4,0.2-3.3c-0.9-1-2.4-1.1-3.3-0.2C30,43.1,20,65.6,20,89.5
		c0,9,1.4,17.8,4.2,26.2c0.3,1,1.3,1.6,2.2,1.6c0.2,0,0.5,0,0.7-0.1c1.2-0.4,1.9-1.7,1.5-3C26,106.3,24.7,98,24.7,89.5z"/>
	<path d="M79.9,168.5c1.1,0,2-0.7,2.3-1.8c0.3-1.3-0.4-2.5-1.7-2.9c-11.4-3-22.1-8.8-30.9-17c-1-0.9-2.5-0.8-3.3,0.1
		c-0.9,1-0.8,2.5,0.1,3.3c9.4,8.7,20.8,14.9,32.9,18.1C79.5,168.5,79.7,168.5,79.9,168.5z"/>
	<path d="M169.4,118.2c-1.2-0.5-2.6,0.1-3.1,1.3c-6.8,16.5-18.9,30.1-34.3,38.3c-1.2,0.6-1.6,2-1,3.2c0.4,0.8,1.2,1.3,2.1,1.3
		c0.4,0,0.8-0.1,1.1-0.3c16.4-8.7,29.3-23.2,36.5-40.7C171.2,120.1,170.6,118.7,169.4,118.2z"/>
	<path d="M115.6,31.6c13.2,4.2,24.6,13.2,32,25.4c0.4,0.7,1.2,1.1,2,1.1c0.4,0,0.8-0.1,1.2-0.3c1.1-0.7,1.5-2.1,0.8-3.2
		c-8-13.1-20.3-22.9-34.6-27.4c-1.2-0.4-2.6,0.3-3,1.5S114.3,31.2,115.6,31.6z"/>
	<path d="M35.9,97c0.1,1.2,1.2,2.1,2.3,2.1c0.1,0,0.2,0,0.3,0c1.3-0.1,2.2-1.3,2.1-2.6c-0.3-2.3-0.4-4.7-0.4-7
		c0-17.3,7.1-33.7,19.5-45.2c0.9-0.9,1-2.4,0.1-3.3c-0.9-1-2.4-1-3.3-0.1c-13.4,12.4-21,30.1-21,48.7C35.5,92,35.6,94.5,35.9,97z"/>
	<path d="M79.7,151.7c1,0,1.9-0.6,2.2-1.6c0.4-1.2-0.3-2.6-1.5-3c-7.7-2.6-14.6-6.8-20.7-12.4c-0.9-0.9-2.4-0.8-3.3,0.1
		c-0.9,0.9-0.8,2.4,0.1,3.3c6.6,6.1,14.1,10.6,22.4,13.4C79.2,151.7,79.4,151.7,79.7,151.7z"/>
	<path d="M157.9,110.9c0.4-1.2-0.3-2.6-1.5-3c-1.3-0.4-2.6,0.3-3,1.5c-4.5,13.5-13.5,24.9-25.4,32.2c-1.1,0.7-1.4,2.1-0.8,3.3
		c0.4,0.7,1.2,1.1,2,1.1c0.4,0,0.9-0.1,1.2-0.4C143.4,137.8,153.1,125.4,157.9,110.9z"/>
	<path d="M140.7,187.5h-6.1c-1.3,0-2.4,1.1-2.4,2.4s1.1,2.4,2.4,2.4h6.1c1.3,0,2.4-1.1,2.4-2.4S142,187.5,140.7,187.5z"/>
</g>
</svg>
