<svg xmlns="http://www.w3.org/2000/svg" width="160" height="185"><path fill="#605ca8" d="M159.6 83.4c.7 1.3.3 2.3 0 3.2-.3.5-1 1.4-2.5 1.6l-29.9 3.9c-8.1 1.1-16.3 2.1-24.4 3.2-.4.1-.8.1-1.2.1-3.2 0-4.9-1.9-5.7-3.5-1.2-2.4-3-3.8-5.6-4.5-.7-.1-1.4-.4-2.1-.7-.3.8-.8 1.6-1.4 2.3l8.1 90.9h12.9c1.3 0 2.4 1.1 2.4 2.4 0 1.3-1.1 2.4-2.4 2.4H49.5c-1.3 0-2.4-1.1-2.4-2.4 0-1.3 1.1-2.4 2.4-2.4H63l7.9-88.5-1.9 1.7-41.9 36.8c-1.1.9-2.6 2.1-3.7 2.8-1.1.7-2.3 1-3.4 1-1.5 0-2.8-.4-4-.9-1-.4-1.7-1.2-1.9-2.1-.1-.6-.2-1.7.8-2.9l18.9-22.4c5.8-6.7 11.5-13.5 17.2-20.3 2.7-3.2 5.5-2.9 7.4-2.2 2.4.9 4.6.7 7-.6.6-.4 1.3-.6 2-.9.1-3.2 1.5-6 3.7-8l-.1-.1-13-61v-.1c-.3-1.4-.6-3.4-.7-4.7-.2-3.1 1.7-5.2 3.3-6.7.8-.8 1.8-1 2.8-.8.6.1 1.7.6 2.2 2.1l3.4 9.3c1.2 3.4 2.5 6.8 3.7 10.1l3.5 9.6c3 8 5.9 16.1 8.9 24.1 1.4 3.8 0 6.2-1.5 7.6-1.9 1.8-2.8 3.9-2.8 6.8 0 .3-.1.7-.1 1.1 3.4.8 6.1 3.2 7.5 6.3.3-.2.7-.3 1-.4l5.3.1 54.9 1.3h.1c1.4 0 3.4.2 4.6.4 3 .6 4.5 3 5.5 5Zm-75-1.9c0-3.6-2.8-6.5-6.1-6.5s-6.1 2.9-6.1 6.5 2.7 6.5 6.1 6.5c3.3 0 6.1-2.9 6.1-6.5ZM62.8 11.1l12.6 59h.8v-.7c0-4.2 1.5-7.6 4.4-10.3.5-.5.9-1 .3-2.5-3-8-5.9-16.1-8.9-24.1l-7.3-19.6h.1c-.4-.9-1-2.5-2-5.3l-.5-1.3c-.1.3-.1.5-.1.8.1 1.1.4 2.8.6 4ZM24.3 126l44.6-39.1-.4-.8c-.2 0-.4.1-.5.2-3.6 2-7.3 2.2-11 .8-.2 0-.4-.1-.6-.1-.4 0-.8.2-1.5 1-5.7 6.8-11.5 13.5-17.2 20.3l-17.3 20.4c.3-.1.6-.2.8-.3.9-.6 2.2-1.6 3.1-2.4ZM68 179.5h22.2l-7.8-87.6c-1.2.5-2.5.8-3.9.8-.9 0-1.8-.2-2.7-.4L68 179.5ZM126.7 87l27.3-3.6c-.2-.2-.5-.3-.8-.4-1.1-.2-2.7-.3-3.9-.4l-58.2-1.4-.2 1c.2.1.4.1.6.2 4 1 6.9 3.3 8.7 6.9.3.7.7 1.1 2.1.9 8.1-1.1 16.3-2.1 24.4-3.2ZM102 8.8c-1.2-.4-1.9-1.8-1.4-3.1.4-1.2 1.8-1.8 3-1.4 14.6 5.1 27.4 14.6 36.9 27.3.8 1 .5 2.5-.5 3.3-.4.3-.9.5-1.4.5-.7 0-1.4-.3-1.9-.9-8.9-12-20.9-20.9-34.7-25.7ZM4.7 81.5c0 8.5 1.3 16.8 3.9 24.7.4 1.3-.3 2.6-1.5 3-.2.1-.5.1-.7.1-.9 0-1.9-.6-2.2-1.6C1.4 99.3 0 90.5 0 81.5c0-23.9 10-46.4 27.6-61.9.9-.9 2.4-.8 3.3.2.9.9.8 2.4-.2 3.3-16.5 14.6-26 35.9-26 58.4Zm55.2 79c-.2 0-.4 0-.6-.2a77.94 77.94 0 0 1-32.9-18.1c-.9-.8-1-2.3-.1-3.3.8-.9 2.3-1 3.3-.1 8.8 8.2 19.5 14 30.9 17 1.3.4 2 1.6 1.7 2.9-.3 1.1-1.2 1.8-2.3 1.8Zm89.5-50.3c1.2.5 1.8 1.9 1.3 3.1-7.2 17.5-20.1 32-36.5 40.7-.3.2-.7.3-1.1.3-.9 0-1.7-.5-2.1-1.3-.6-1.2-.2-2.6 1-3.2 15.4-8.2 27.5-21.8 34.3-38.3.5-1.2 1.9-1.8 3.1-1.3ZM95.6 23.6c-1.3-.4-2-1.7-1.6-2.9.4-1.2 1.8-1.9 3-1.5 14.3 4.5 26.6 14.3 34.6 27.4.7 1.1.3 2.5-.8 3.2-.4.2-.8.3-1.2.3-.8 0-1.6-.4-2-1.1-7.4-12.2-18.8-21.2-32-25.4ZM15.9 89c-.3-2.5-.4-5-.4-7.4 0-18.6 7.6-36.3 21-48.7.9-.9 2.4-.9 3.3.1.9.9.8 2.4-.1 3.3-12.4 11.5-19.5 27.9-19.5 45.2 0 2.3.1 4.7.4 7 .1 1.3-.8 2.5-2.1 2.6h-.3c-1.1 0-2.2-.9-2.3-2.1Zm43.8 54.7c-.3 0-.5 0-.8-.2-8.3-2.8-15.8-7.3-22.4-13.4-.9-.9-1-2.4-.1-3.3.9-.9 2.4-1 3.3-.1 6.1 5.6 13 9.8 20.7 12.4 1.2.4 1.9 1.8 1.5 3-.3 1-1.2 1.6-2.2 1.6Zm78.2-40.8c-4.8 14.5-14.5 26.9-27.5 34.7-.3.3-.8.4-1.2.4-.8 0-1.6-.4-2-1.1-.6-1.2-.3-2.6.8-3.3 11.9-7.3 20.9-18.7 25.4-32.2.4-1.2 1.7-1.9 3-1.5 1.2.4 1.9 1.8 1.5 3Zm-17.2 76.6c1.3 0 2.4 1.1 2.4 2.4 0 1.3-1.1 2.4-2.4 2.4h-6.1c-1.3 0-2.4-1.1-2.4-2.4 0-1.3 1.1-2.4 2.4-2.4h6.1Z"/></svg>